<svg width="1440" height="2029" viewBox="0 0 1440 2029" fill="none" xmlns="http://www.w3.org/2000/svg">
<path fill-rule="evenodd" clip-rule="evenodd" d="M232.033 30.2675C400.929 -32.2902 583.518 20.1727 763.123 33.5123C929.75 45.8879 1102.01 29.3115 1250.49 105.91C1402.02 184.085 1506.61 324.272 1601.43 465.98C1701.2 615.094 1781.36 773.741 1815.23 949.933C1853.96 1151.36 1903.15 1371.64 1810.75 1554.8C1717.65 1739.37 1517.92 1849.43 1324.57 1922.6C1146.21 1990.09 953.297 1939.46 762.971 1951.28C558.245 1963.98 343.17 2086.53 159.67 1994.91C-23.5617 1903.42 -57.6466 1660.13 -166.965 1486.96C-281.311 1305.82 -492.617 1164.21 -499.87 950.117C-507.125 735.983 -337.488 559.432 -204.069 391.753C-84.4728 241.445 51.9052 96.9853 232.033 30.2675Z" fill="#4C75A4"/>
<path fill-rule="evenodd" clip-rule="evenodd" d="M232.033 30.2675C400.929 -32.2902 583.518 20.1727 763.123 33.5123C929.75 45.8879 1102.01 29.3115 1250.49 105.91C1402.02 184.085 1506.61 324.272 1601.43 465.98C1701.2 615.094 1781.36 773.741 1815.23 949.933C1853.96 1151.36 1903.15 1371.64 1810.75 1554.8C1717.65 1739.37 1517.92 1849.43 1324.57 1922.6C1146.21 1990.09 953.297 1939.46 762.971 1951.28C558.245 1963.98 343.17 2086.53 159.67 1994.91C-23.5617 1903.42 -57.6466 1660.13 -166.965 1486.96C-281.311 1305.82 -492.617 1164.21 -499.87 950.117C-507.125 735.983 -337.488 559.432 -204.069 391.753C-84.4728 241.445 51.9052 96.9853 232.033 30.2675Z" fill="url(#paint0_radial_197_46)"/>
<defs>
<radialGradient id="paint0_radial_197_46" cx="0" cy="0" r="1" gradientUnits="userSpaceOnUse" gradientTransform="translate(710.541 1022.12) rotate(60) scale(1107.5 1054)">
<stop stop-color="white" stop-opacity="0"/>
<stop offset="1" stop-color="white" stop-opacity="0.35"/>
</radialGradient>
</defs>
</svg>
