<svg width="4132" height="2029" viewBox="0 0 4132 2029" fill="none" xmlns="http://www.w3.org/2000/svg">
<path fill-rule="evenodd" clip-rule="evenodd" d="M1629.07 30.5978C1797.97 -31.9599 1980.56 20.503 2160.16 33.8426C2326.79 46.2182 2499.04 29.6417 2647.52 106.24C2799.06 184.415 3735.68 247.792 3830.5 389.5C3930.27 538.614 3971.13 726.808 4005 903C4043.72 1104.43 4194.66 1472.03 4102.27 1655.19C4009.16 1839.76 2914.96 1849.76 2721.61 1922.93C2543.25 1990.42 2350.33 1939.79 2160.01 1951.61C1955.28 1964.31 1740.21 2086.86 1556.71 1995.24C1373.47 1903.75 844.854 2096.1 735.536 1922.93C621.189 1741.79 8.25365 1740.56 1.00017 1526.47C-6.25455 1312.33 362.118 502.01 495.536 334.33C615.133 184.022 1448.94 97.3156 1629.07 30.5978Z" fill="#4C75A4"/>
<path fill-rule="evenodd" clip-rule="evenodd" d="M1629.07 30.5978C1797.97 -31.9599 1980.56 20.503 2160.16 33.8426C2326.79 46.2182 2499.04 29.6417 2647.52 106.24C2799.06 184.415 3735.68 247.792 3830.5 389.5C3930.27 538.614 3971.13 726.808 4005 903C4043.72 1104.43 4194.66 1472.03 4102.27 1655.19C4009.16 1839.76 2914.96 1849.76 2721.61 1922.93C2543.25 1990.42 2350.33 1939.79 2160.01 1951.61C1955.28 1964.31 1740.21 2086.86 1556.71 1995.24C1373.47 1903.75 844.854 2096.1 735.536 1922.93C621.189 1741.79 8.25365 1740.56 1.00017 1526.47C-6.25455 1312.33 362.118 502.01 495.536 334.33C615.133 184.022 1448.94 97.3156 1629.07 30.5978Z" fill="url(#paint0_radial_275_510)"/>
<defs>
<radialGradient id="paint0_radial_275_510" cx="0" cy="0" r="1" gradientUnits="userSpaceOnUse" gradientTransform="translate(1690.54 1019.12) rotate(60) scale(1107.5 1054)">
<stop stop-color="white" stop-opacity="0"/>
<stop offset="1" stop-color="white" stop-opacity="0.35"/>
</radialGradient>
</defs>
</svg>
