<svg width="3501" height="872" viewBox="0 0 3501 872" fill="none" xmlns="http://www.w3.org/2000/svg">
<g clip-path="url(#clip0_279_702)">
<path fill-rule="evenodd" clip-rule="evenodd" d="M-322.05 624.017C-352.322 560.929 -28.907 433.599 0.0887458 377.202C26.9892 324.881 380.424 261 501.503 229.466C625.074 197.282 838.068 194.914 1052.81 196.13C1278.78 197.409 1518.82 249.966 1781.5 279.296C2081.8 312.827 2436.51 261.558 2703 334.296C2971.55 407.595 3462.44 543.949 3560.85 624.803C3651.62 699.387 3830.79 877.835 3838.5 943.571C3846.78 1014.28 3950.53 1129.53 3805.41 1169.2C3660.49 1208.82 2779.58 1254.51 2517.5 1250.86C2243.35 1247.03 2009.78 1242.38 1692.33 1195.51C1374.83 1148.64 -60.9348 1241.89 -302.399 1159.13C-518.848 1084.94 -232.51 699.01 -322.05 624.017Z" fill="#4C75A4"/>
<path fill-rule="evenodd" clip-rule="evenodd" d="M-322.05 624.017C-352.322 560.929 -28.907 433.599 0.0887458 377.202C26.9892 324.881 380.424 261 501.503 229.466C625.074 197.282 838.068 194.914 1052.81 196.13C1278.78 197.409 1518.82 249.966 1781.5 279.296C2081.8 312.827 2436.51 261.558 2703 334.296C2971.55 407.595 3462.44 543.949 3560.85 624.803C3651.62 699.387 3830.79 877.835 3838.5 943.571C3846.78 1014.28 3950.53 1129.53 3805.41 1169.2C3660.49 1208.82 2779.58 1254.51 2517.5 1250.86C2243.35 1247.03 2009.78 1242.38 1692.33 1195.51C1374.83 1148.64 -60.9348 1241.89 -302.399 1159.13C-518.848 1084.94 -232.51 699.01 -322.05 624.017Z" fill="url(#paint0_radial_279_702)" fill-opacity="0.4"/>
</g>
<defs>
<radialGradient id="paint0_radial_279_702" cx="0" cy="0" r="1" gradientUnits="userSpaceOnUse" gradientTransform="translate(1782.06 836.449) rotate(98.8322) scale(643.28 2115.37)">
<stop stop-color="white" stop-opacity="0"/>
<stop offset="1" stop-color="white"/>
</radialGradient>
<clipPath id="clip0_279_702">
<rect width="3501" height="872" fill="white"/>
</clipPath>
</defs>
</svg>
