<svg width="2554" height="1304" viewBox="0 0 2554 1304" fill="none" xmlns="http://www.w3.org/2000/svg">
<path fill-rule="evenodd" clip-rule="evenodd" d="M83.3815 682.347C17.6812 614.867 89.4603 564.106 114.563 507.104C137.852 454.222 127.002 394.126 225.727 359.118C326.484 323.389 498.566 314.664 671.953 309.454C854.404 303.971 1047.18 306.745 1258.44 328.085C1499.95 352.482 1764.43 376.897 1977.47 441.33C2192.16 506.26 2312.77 592.726 2389.82 670.263C2460.9 741.786 2390.78 796.305 2395.03 861.505C2399.61 931.637 2534.27 1025.49 2415.88 1069.32C2297.66 1113.08 2006.61 1079.41 1795.06 1083.61C1573.78 1088 1394.52 1131.8 1139.55 1094.64C884.545 1057.48 683.329 968.688 490.8 893.531C318.216 826.16 153.451 754.314 83.3815 682.347Z" fill="#4C75A4"/>
<path fill-rule="evenodd" clip-rule="evenodd" d="M83.3815 682.347C17.6812 614.867 89.4603 564.106 114.563 507.104C137.852 454.222 127.002 394.126 225.727 359.118C326.484 323.389 498.566 314.664 671.953 309.454C854.404 303.971 1047.18 306.745 1258.44 328.085C1499.95 352.482 1764.43 376.897 1977.47 441.33C2192.16 506.26 2312.77 592.726 2389.82 670.263C2460.9 741.786 2390.78 796.305 2395.03 861.505C2399.61 931.637 2534.27 1025.49 2415.88 1069.32C2297.66 1113.08 2006.61 1079.41 1795.06 1083.61C1573.78 1088 1394.52 1131.8 1139.55 1094.64C884.545 1057.48 683.329 968.688 490.8 893.531C318.216 826.16 153.451 754.314 83.3815 682.347Z" fill="url(#paint0_radial_279_702)" fill-opacity="0.4"/>
<defs>
<radialGradient id="paint0_radial_279_702" cx="0" cy="0" r="1" gradientUnits="userSpaceOnUse" gradientTransform="translate(1287.45 707.182) rotate(-0.300184) scale(1169.03 402.628)">
<stop stop-color="white" stop-opacity="0"/>
<stop offset="1" stop-color="white"/>
</radialGradient>
</defs>
</svg>
