<svg width="8046" height="2750" viewBox="0 0 8046 2750" fill="none" xmlns="http://www.w3.org/2000/svg">
<g clip-path="url(#clip0_282_61)">
<path fill-rule="evenodd" clip-rule="evenodd" d="M-604.9 1493.73C-895.105 1272.05 -619.528 1083.01 -536.23 880.931C-458.952 693.456 -444.074 233.184 -53.4482 93.7608C345.22 -48.5324 964.413 143.688 1669.21 93.7609C2410.85 41.224 3220.09 -23.4131 4088.05 11.6709C5080.33 51.7796 6194.55 345.671 7071.55 299.671C8007.05 250.602 8449.73 773.379 8789.55 1027.81C9103.02 1262.51 8835.43 1464.27 8874.5 1689.34C8916.53 1931.45 9496.53 2231.81 9028.7 2405.4C8561.56 2578.74 7364.33 2515.62 6503.69 2569.06C5603.45 2624.95 4887.58 2809.63 3836.25 2727.78C2784.74 2645.93 1935.23 2375.35 1125.65 2150.39C399.942 1948.74 -295.395 1730.15 -604.9 1493.73Z" fill="#4C75A4"/>
<path fill-rule="evenodd" clip-rule="evenodd" d="M-604.9 1493.73C-895.105 1272.05 -619.528 1083.01 -536.23 880.931C-458.952 693.456 -444.074 233.184 -53.4482 93.7608C345.22 -48.5324 964.413 143.688 1669.21 93.7609C2410.85 41.224 3220.09 -23.4131 4088.05 11.6709C5080.33 51.7796 6194.55 345.671 7071.55 299.671C8007.05 250.602 8449.73 773.379 8789.55 1027.81C9103.02 1262.51 8835.43 1464.27 8874.5 1689.34C8916.53 1931.45 9496.53 2231.81 9028.7 2405.4C8561.56 2578.74 7364.33 2515.62 6503.69 2569.06C5603.45 2624.95 4887.58 2809.63 3836.25 2727.78C2784.74 2645.93 1935.23 2375.35 1125.65 2150.39C399.942 1948.74 -295.395 1730.15 -604.9 1493.73Z" fill="url(#paint0_radial_282_61)" fill-opacity="0.4"/>
</g>
<defs>
<radialGradient id="paint0_radial_282_61" cx="0" cy="0" r="1" gradientUnits="userSpaceOnUse" gradientTransform="translate(4268.91 1392.8) rotate(4.90876) scale(4995.23 1367.37)">
<stop stop-color="white" stop-opacity="0"/>
<stop offset="1" stop-color="white"/>
</radialGradient>
<clipPath id="clip0_282_61">
<rect width="8046" height="2750" fill="white"/>
</clipPath>
</defs>
</svg>
