<svg width="2365" height="2029" viewBox="0 0 2365 2029" fill="none" xmlns="http://www.w3.org/2000/svg">
<path fill-rule="evenodd" clip-rule="evenodd" d="M733.033 30.2675C901.929 -32.2902 1084.52 20.1727 1264.12 33.5123C1430.75 45.888 1603.01 29.3115 1751.49 105.91C1903.02 184.085 2007.61 324.272 2102.43 465.98C2202.2 615.094 2282.36 773.741 2316.23 949.933C2354.96 1151.36 2404.15 1371.64 2311.75 1554.8C2218.65 1739.37 2018.92 1849.43 1825.57 1922.6C1647.21 1990.09 1454.3 1939.46 1263.97 1951.28C1059.25 1963.98 844.17 2086.53 660.671 1994.91C477.438 1903.42 443.353 1660.13 334.035 1486.96C219.689 1305.82 8.3834 1164.21 1.12993 950.117C-6.12478 735.983 163.512 559.432 296.931 391.753C416.527 241.445 552.905 96.9853 733.033 30.2675Z" fill="#4C75A4"/>
</svg>
