<svg width="7836" height="4201" viewBox="0 0 7836 4201" fill="none" xmlns="http://www.w3.org/2000/svg">
<path fill-rule="evenodd" clip-rule="evenodd" d="M7760.05 1566.87C7960.65 1980.04 7733.63 2469.12 7412.84 2894.51C7094.93 3316.08 6602.83 3711.01 5960.5 3953.2C5350.6 4183.16 4634.52 4220.26 3971.04 4192.22C3400.4 4168.1 2888.24 4084.43 2346.69 3995.79C1749.11 3897.98 949.204 4064.34 480.976 3828.71C4.97411 3589.17 -5.88531 2973.08 1.2115 2566.83C8.07567 2173.88 395.331 1808.71 673.312 1434.33C948.106 1064.24 1098.81 629.809 1625.09 379.804C2148.93 130.962 2784.4 59.2815 3405.16 7.60244C3984.46 -40.6252 4619.42 157.4 5143.86 268.76C5669.49 380.372 6229.06 234.389 6631.86 462.46C7115.81 736.476 7565.29 1165.72 7760.05 1566.87Z" fill="#4C75A4"/>
<path fill-rule="evenodd" clip-rule="evenodd" d="M7760.05 1566.87C7960.65 1980.04 7733.63 2469.12 7412.84 2894.51C7094.93 3316.08 6602.83 3711.01 5960.5 3953.2C5350.6 4183.16 4634.52 4220.26 3971.04 4192.22C3400.4 4168.1 2888.24 4084.43 2346.69 3995.79C1749.11 3897.98 949.204 4064.34 480.976 3828.71C4.97411 3589.17 -5.88531 2973.08 1.2115 2566.83C8.07567 2173.88 395.331 1808.71 673.312 1434.33C948.106 1064.24 1098.81 629.809 1625.09 379.804C2148.93 130.962 2784.4 59.2815 3405.16 7.60244C3984.46 -40.6252 4619.42 157.4 5143.86 268.76C5669.49 380.372 6229.06 234.389 6631.86 462.46C7115.81 736.476 7565.29 1165.72 7760.05 1566.87Z" fill="url(#paint0_radial_275_511)" fill-opacity="0.4"/>
<defs>
<radialGradient id="paint0_radial_275_511" cx="0" cy="0" r="1" gradientUnits="userSpaceOnUse" gradientTransform="translate(3885.53 2121.41) rotate(84.0004) scale(2004.06 3643.96)">
<stop stop-color="white" stop-opacity="0"/>
<stop offset="1" stop-color="white"/>
</radialGradient>
</defs>
</svg>
