<svg width="1920" height="1607" viewBox="0 0 1920 1607" fill="none" xmlns="http://www.w3.org/2000/svg">
<g filter="url(#filter0_f_184_46)">
<path fill-rule="evenodd" clip-rule="evenodd" d="M400.85 423.909C469.998 404.083 550.414 428.247 600.861 479.492C651.046 530.47 668.105 609.599 652.307 679.342C638.705 739.387 570.746 762.035 527.03 805.42C483.608 848.514 461.976 925.868 400.85 928.897C339.319 931.947 300.027 866.615 261.499 818.58C228.551 777.501 194.719 731.645 200.69 679.342C206.28 630.373 259.625 607.421 290.034 568.615C328.99 518.901 340.111 441.325 400.85 423.909Z" fill="#E9E9E9" fill-opacity="0.6"/>
<path fill-rule="evenodd" clip-rule="evenodd" d="M1441.51 211.689C1505.81 201.645 1576.07 186.366 1628.9 224.38C1687.44 266.508 1724.73 339.815 1719.52 411.746C1714.53 480.61 1653.91 526.527 1603.59 573.811C1555.61 618.9 1507.35 672.139 1441.51 672.986C1375.15 673.84 1310.44 634.26 1275.2 578.036C1244.59 529.205 1272.16 469.104 1277.75 411.746C1282.44 363.677 1274.16 312.384 1304.75 275.009C1337.83 234.602 1389.91 219.748 1441.51 211.689Z" fill="#E9E9E9" fill-opacity="0.6"/>
<path fill-rule="evenodd" clip-rule="evenodd" d="M1154.76 890.354C1221.51 901.66 1241.28 985.088 1277.64 1042.16C1302.48 1081.15 1323.54 1119.17 1329.72 1164.97C1337.22 1220.5 1348.86 1280.7 1315.98 1326.08C1279.36 1376.62 1216.97 1411.72 1154.76 1406.48C1095.28 1401.47 1064.53 1339.14 1018.6 1301.03C963.617 1255.41 872.154 1235.89 863.688 1164.97C855.09 1092.95 928.938 1041.84 981.715 992.043C1032.3 944.322 1086.17 878.739 1154.76 890.354Z" fill="#E9E9E9" fill-opacity="0.6"/>
</g>
<defs>
<filter id="filter0_f_184_46" x="0" y="0" width="1920" height="1607" filterUnits="userSpaceOnUse" color-interpolation-filters="sRGB">
<feFlood flood-opacity="0" result="BackgroundImageFix"/>
<feBlend mode="normal" in="SourceGraphic" in2="BackgroundImageFix" result="shape"/>
<feGaussianBlur stdDeviation="100" result="effect1_foregroundBlur_184_46"/>
</filter>
</defs>
</svg>
