<svg width="289" height="300" viewBox="0 0 289 300" fill="none" xmlns="http://www.w3.org/2000/svg">
<path d="M215.875 0.0547485H70.875C65.3522 0.0547485 60.875 4.53891 60.875 10.0704V289.257C60.875 294.788 65.3522 299.272 70.875 299.272H215.875C221.398 299.272 225.875 294.788 225.875 289.257V10.0704C225.875 4.53891 221.398 0.0547485 215.875 0.0547485Z" fill="#F9F9FB"/>
<g filter="url(#filter0_d_237_90)">
<path d="M85.25 70.1643H258.375C263.898 70.1643 268.375 74.6482 268.375 80.18V146.534C268.375 152.065 263.898 156.549 258.375 156.549H95.25C89.7269 156.549 85.25 152.065 85.25 146.534V70.1643Z" fill="#4C75A4"/>
<path d="M105.25 90.1956C108.702 90.1956 111.5 92.9981 111.5 96.4554C111.5 99.9127 108.702 102.715 105.25 102.715C101.798 102.715 99 99.9127 99 96.4554C99 92.9981 101.798 90.1956 105.25 90.1956ZM107.263 94.5587L104.469 97.3562L103.237 96.1236C103.054 95.9402 102.758 95.9402 102.575 96.1236C102.392 96.307 102.392 96.6038 102.575 96.7872L104.138 98.3521C104.321 98.5355 104.617 98.5355 104.8 98.3521L107.925 95.2222C108.108 95.0388 108.108 94.7421 107.925 94.5587C107.742 94.3753 107.446 94.3753 107.263 94.5587Z" fill="#F9F9FB"/>
<path d="M105.25 107.723C108.702 107.723 111.5 110.525 111.5 113.983C111.5 117.44 108.702 120.243 105.25 120.243C101.798 120.243 99 117.44 99 113.983C99 110.525 101.798 107.723 105.25 107.723ZM107.263 112.086L104.469 114.884L103.237 113.651C103.054 113.468 102.758 113.468 102.575 113.651C102.392 113.834 102.392 114.131 102.575 114.315L104.138 115.879C104.321 116.063 104.617 116.063 104.8 115.879L107.925 112.75C108.108 112.566 108.108 112.269 107.925 112.086C107.742 111.903 107.446 111.903 107.263 112.086Z" fill="#F9F9FB"/>
<path d="M105.25 125.25C108.702 125.25 111.5 128.053 111.5 131.51C111.5 134.967 108.702 137.77 105.25 137.77C101.798 137.77 99 134.967 99 131.51C99 128.053 101.798 125.25 105.25 125.25ZM107.263 129.613L104.469 132.411L103.237 131.178C103.054 130.995 102.758 130.995 102.575 131.178C102.392 131.362 102.392 131.659 102.575 131.842L104.138 133.407C104.321 133.59 104.617 133.59 104.8 133.407L107.925 130.277C108.108 130.094 108.108 129.797 107.925 129.613C107.742 129.43 107.446 129.43 107.263 129.613Z" fill="#F9F9FB"/>
<path d="M254 88.9437H120.875C119.839 88.9437 119 89.7844 119 90.8216V94.5775C119 95.6146 119.839 96.4554 120.875 96.4554H254C255.036 96.4554 255.875 95.6146 255.875 94.5775V90.8216C255.875 89.7844 255.036 88.9437 254 88.9437Z" fill="black" fill-opacity="0.2"/>
<path d="M254 102.715H120.875C119.839 102.715 119 103.556 119 104.593V108.349C119 109.386 119.839 110.227 120.875 110.227H254C255.036 110.227 255.875 109.386 255.875 108.349V104.593C255.875 103.556 255.036 102.715 254 102.715Z" fill="black" fill-opacity="0.2"/>
<path d="M254 116.487H120.875C119.839 116.487 119 117.327 119 118.365V122.12C119 123.158 119.839 123.998 120.875 123.998H254C255.036 123.998 255.875 123.158 255.875 122.12V118.365C255.875 117.327 255.036 116.487 254 116.487Z" fill="black" fill-opacity="0.2"/>
<path d="M254 130.258H120.875C119.839 130.258 119 131.099 119 132.136V135.892C119 136.929 119.839 137.77 120.875 137.77H254C255.036 137.77 255.875 136.929 255.875 135.892V132.136C255.875 131.099 255.036 130.258 254 130.258Z" fill="black" fill-opacity="0.2"/>
</g>
<g filter="url(#filter1_d_237_90)">
<path d="M20.875 198.49C20.875 192.958 25.3519 188.474 30.875 188.474H204V264.844C204 270.375 199.523 274.859 194 274.859H30.875C25.3519 274.859 20.875 270.375 20.875 264.844V198.49Z" fill="#F89B61"/>
<path d="M40.4187 236.913L42.4112 232.919H37.2831C36.5068 232.919 35.8774 233.549 35.8774 234.326V234.902C35.8774 235.26 35.9887 235.61 36.1962 235.901C37.0687 237.127 38.4431 237.793 40.2812 237.909C40.2181 237.588 40.2549 237.242 40.4187 236.913ZM40.8749 225.41C42.6012 225.41 43.9999 226.811 43.9999 228.54C43.9999 230.268 42.6012 231.67 40.8749 231.67C39.1493 231.67 37.7499 230.268 37.7499 228.54C37.7499 226.811 39.1493 225.41 40.8749 225.41ZM43.4756 232.186L40.9774 237.193C40.6656 237.818 41.1193 238.552 41.8168 238.552H46.8131C47.5099 238.552 47.9637 237.818 47.6524 237.193L45.1543 232.186C44.8087 231.493 43.8212 231.493 43.4756 232.186ZM44.6274 233.855V235.734C44.6274 235.907 44.4874 236.047 44.3149 236.047C44.1424 236.047 44.0018 235.907 44.0018 235.734V233.855C44.0018 233.682 44.1424 233.541 44.3149 233.541C44.4874 233.541 44.6274 233.682 44.6274 233.855ZM44.3149 237.3C44.1424 237.3 44.0018 237.16 44.0018 236.986C44.0018 236.813 44.1424 236.673 44.3149 236.673C44.4874 236.673 44.6274 236.813 44.6274 236.986C44.6274 237.16 44.4874 237.3 44.3149 237.3Z" fill="#F9F9FB"/>
<path d="M177.125 207.254H56.5C55.4645 207.254 54.625 208.094 54.625 209.131V212.887C54.625 213.924 55.4645 214.765 56.5 214.765H177.125C178.161 214.765 179 213.924 179 212.887V209.131C179 208.094 178.161 207.254 177.125 207.254Z" fill="black" fill-opacity="0.2"/>
<path d="M177.125 221.025H56.5C55.4645 221.025 54.625 221.866 54.625 222.903V226.659C54.625 227.696 55.4645 228.537 56.5 228.537H177.125C178.161 228.537 179 227.696 179 226.659V222.903C179 221.866 178.161 221.025 177.125 221.025Z" fill="black" fill-opacity="0.2"/>
<path d="M177.125 234.797H56.5C55.4645 234.797 54.625 235.637 54.625 236.675V240.43C54.625 241.468 55.4645 242.308 56.5 242.308H177.125C178.161 242.308 179 241.468 179 240.43V236.675C179 235.637 178.161 234.797 177.125 234.797Z" fill="black" fill-opacity="0.2"/>
<path d="M177.125 248.568H56.5C55.4645 248.568 54.625 249.409 54.625 250.446V254.202C54.625 255.239 55.4645 256.08 56.5 256.08H177.125C178.161 256.08 179 255.239 179 254.202V250.446C179 249.409 178.161 248.568 177.125 248.568Z" fill="black" fill-opacity="0.2"/>
</g>
<defs>
<filter id="filter0_d_237_90" x="65.25" y="50.1643" width="223.125" height="126.385" filterUnits="userSpaceOnUse" color-interpolation-filters="sRGB">
<feFlood flood-opacity="0" result="BackgroundImageFix"/>
<feColorMatrix in="SourceAlpha" type="matrix" values="0 0 0 0 0 0 0 0 0 0 0 0 0 0 0 0 0 0 127 0" result="hardAlpha"/>
<feOffset/>
<feGaussianBlur stdDeviation="10"/>
<feComposite in2="hardAlpha" operator="out"/>
<feColorMatrix type="matrix" values="0 0 0 0 0 0 0 0 0 0 0 0 0 0 0 0 0 0 0.4 0"/>
<feBlend mode="normal" in2="BackgroundImageFix" result="effect1_dropShadow_237_90"/>
<feBlend mode="normal" in="SourceGraphic" in2="effect1_dropShadow_237_90" result="shape"/>
</filter>
<filter id="filter1_d_237_90" x="0.875" y="168.474" width="223.125" height="126.385" filterUnits="userSpaceOnUse" color-interpolation-filters="sRGB">
<feFlood flood-opacity="0" result="BackgroundImageFix"/>
<feColorMatrix in="SourceAlpha" type="matrix" values="0 0 0 0 0 0 0 0 0 0 0 0 0 0 0 0 0 0 127 0" result="hardAlpha"/>
<feOffset/>
<feGaussianBlur stdDeviation="10"/>
<feComposite in2="hardAlpha" operator="out"/>
<feColorMatrix type="matrix" values="0 0 0 0 0 0 0 0 0 0 0 0 0 0 0 0 0 0 0.4 0"/>
<feBlend mode="normal" in2="BackgroundImageFix" result="effect1_dropShadow_237_90"/>
<feBlend mode="normal" in="SourceGraphic" in2="effect1_dropShadow_237_90" result="shape"/>
</filter>
</defs>
</svg>
