<svg width="400" height="300" viewBox="0 0 400 300" fill="none" xmlns="http://www.w3.org/2000/svg">
<path d="M271.25 0.391235H126.25C120.727 0.391235 116.25 4.87539 116.25 10.4069V289.593C116.25 295.125 120.727 299.609 126.25 299.609H271.25C276.773 299.609 281.25 295.125 281.25 289.593V10.4069C281.25 4.87539 276.773 0.391235 271.25 0.391235Z" fill="#F9F9FB"/>
<g filter="url(#filter0_d_272_362)">
<path d="M140.625 70.5008H313.75C319.273 70.5008 323.75 74.9847 323.75 80.5164V146.87C323.75 152.402 319.273 156.886 313.75 156.886H150.625C145.102 156.886 140.625 152.402 140.625 146.87V70.5008Z" fill="#4C75A4"/>
<path d="M160.625 90.5321C164.077 90.5321 166.875 93.3346 166.875 96.7919C166.875 100.249 164.077 103.052 160.625 103.052C157.173 103.052 154.375 100.249 154.375 96.7919C154.375 93.3346 157.173 90.5321 160.625 90.5321ZM162.638 94.8952L159.844 97.6926L158.612 96.4601C158.429 96.2767 158.133 96.2767 157.95 96.4601C157.767 96.6435 157.767 96.9402 157.95 97.1236L159.513 98.6886C159.696 98.872 159.992 98.872 160.175 98.6886L163.3 95.5587C163.483 95.3753 163.483 95.0786 163.3 94.8952C163.117 94.7117 162.821 94.7117 162.638 94.8952Z" fill="#F9F9FB"/>
<path d="M160.625 108.059C164.077 108.059 166.875 110.862 166.875 114.319C166.875 117.777 164.077 120.579 160.625 120.579C157.173 120.579 154.375 117.777 154.375 114.319C154.375 110.862 157.173 108.059 160.625 108.059ZM162.638 112.423L159.844 115.22L158.612 113.987C158.429 113.804 158.133 113.804 157.95 113.987C157.767 114.171 157.767 114.468 157.95 114.651L159.513 116.216C159.696 116.399 159.992 116.399 160.175 116.216L163.3 113.086C163.483 112.903 163.483 112.606 163.3 112.423C163.117 112.239 162.821 112.239 162.638 112.423Z" fill="#F9F9FB"/>
<path d="M160.625 125.587C164.077 125.587 166.875 128.389 166.875 131.847C166.875 135.304 164.077 138.106 160.625 138.106C157.173 138.106 154.375 135.304 154.375 131.847C154.375 128.389 157.173 125.587 160.625 125.587ZM162.638 129.95L159.844 132.747L158.612 131.515C158.429 131.331 158.133 131.331 157.95 131.515C157.767 131.698 157.767 131.995 157.95 132.178L159.513 133.743C159.696 133.927 159.992 133.927 160.175 133.743L163.3 130.613C163.483 130.43 163.483 130.133 163.3 129.95C163.117 129.767 162.821 129.767 162.638 129.95Z" fill="#F9F9FB"/>
<path d="M309.375 89.2801H176.25C175.214 89.2801 174.375 90.1209 174.375 91.1581V94.9139C174.375 95.9511 175.214 96.7919 176.25 96.7919H309.375C310.411 96.7919 311.25 95.9511 311.25 94.9139V91.1581C311.25 90.1209 310.411 89.2801 309.375 89.2801Z" fill="black" fill-opacity="0.2"/>
<path d="M309.375 103.052H176.25C175.214 103.052 174.375 103.892 174.375 104.93V108.685C174.375 109.723 175.214 110.563 176.25 110.563H309.375C310.411 110.563 311.25 109.723 311.25 108.685V104.93C311.25 103.892 310.411 103.052 309.375 103.052Z" fill="black" fill-opacity="0.2"/>
<path d="M309.375 116.823H176.25C175.214 116.823 174.375 117.664 174.375 118.701V122.457C174.375 123.494 175.214 124.335 176.25 124.335H309.375C310.411 124.335 311.25 123.494 311.25 122.457V118.701C311.25 117.664 310.411 116.823 309.375 116.823Z" fill="black" fill-opacity="0.2"/>
<path d="M309.375 130.595H176.25C175.214 130.595 174.375 131.435 174.375 132.473V136.228C174.375 137.266 175.214 138.106 176.25 138.106H309.375C310.411 138.106 311.25 137.266 311.25 136.228V132.473C311.25 131.435 310.411 130.595 309.375 130.595Z" fill="black" fill-opacity="0.2"/>
</g>
<g filter="url(#filter1_d_272_362)">
<path d="M76.25 198.826C76.25 193.294 80.7269 188.811 86.25 188.811H259.375V265.18C259.375 270.712 254.898 275.196 249.375 275.196H86.25C80.7269 275.196 76.25 270.712 76.25 265.18V198.826Z" fill="#F89B61"/>
<path d="M95.7937 237.249L97.7862 233.255H92.6581C91.8818 233.255 91.2524 233.885 91.2524 234.663V235.239C91.2524 235.597 91.3637 235.946 91.5712 236.238C92.4437 237.464 93.8181 238.13 95.6562 238.245C95.5931 237.925 95.6299 237.578 95.7937 237.249ZM96.2499 225.746C97.9762 225.746 99.3749 227.147 99.3749 228.876C99.3749 230.605 97.9762 232.006 96.2499 232.006C94.5243 232.006 93.1249 230.605 93.1249 228.876C93.1249 227.147 94.5243 225.746 96.2499 225.746ZM98.8506 232.523L96.3524 237.529C96.0406 238.154 96.4943 238.889 97.1918 238.889H102.188C102.885 238.889 103.339 238.154 103.027 237.529L100.529 232.523C100.184 231.83 99.1962 231.83 98.8506 232.523ZM100.002 234.192V236.07C100.002 236.243 99.8624 236.384 99.6899 236.384C99.5174 236.384 99.3768 236.243 99.3768 236.07V234.192C99.3768 234.018 99.5174 233.878 99.6899 233.878C99.8624 233.878 100.002 234.018 100.002 234.192ZM99.6899 237.636C99.5174 237.636 99.3768 237.496 99.3768 237.323C99.3768 237.15 99.5174 237.01 99.6899 237.01C99.8624 237.01 100.002 237.15 100.002 237.323C100.002 237.496 99.8624 237.636 99.6899 237.636Z" fill="#F9F9FB"/>
<path d="M232.5 207.59H111.875C110.839 207.59 110 208.431 110 209.468V213.224C110 214.261 110.839 215.102 111.875 215.102H232.5C233.536 215.102 234.375 214.261 234.375 213.224V209.468C234.375 208.431 233.536 207.59 232.5 207.59Z" fill="black" fill-opacity="0.2"/>
<path d="M232.5 221.361H111.875C110.839 221.361 110 222.202 110 223.239V226.995C110 228.032 110.839 228.873 111.875 228.873H232.5C233.536 228.873 234.375 228.032 234.375 226.995V223.239C234.375 222.202 233.536 221.361 232.5 221.361Z" fill="black" fill-opacity="0.2"/>
<path d="M232.5 235.133H111.875C110.839 235.133 110 235.974 110 237.011V240.767C110 241.804 110.839 242.645 111.875 242.645H232.5C233.536 242.645 234.375 241.804 234.375 240.767V237.011C234.375 235.974 233.536 235.133 232.5 235.133Z" fill="black" fill-opacity="0.2"/>
<path d="M232.5 248.905H111.875C110.839 248.905 110 249.745 110 250.782V254.538C110 255.575 110.839 256.416 111.875 256.416H232.5C233.536 256.416 234.375 255.575 234.375 254.538V250.782C234.375 249.745 233.536 248.905 232.5 248.905Z" fill="black" fill-opacity="0.2"/>
</g>
<defs>
<filter id="filter0_d_272_362" x="120.625" y="50.5008" width="223.125" height="126.385" filterUnits="userSpaceOnUse" color-interpolation-filters="sRGB">
<feFlood flood-opacity="0" result="BackgroundImageFix"/>
<feColorMatrix in="SourceAlpha" type="matrix" values="0 0 0 0 0 0 0 0 0 0 0 0 0 0 0 0 0 0 127 0" result="hardAlpha"/>
<feOffset/>
<feGaussianBlur stdDeviation="10"/>
<feComposite in2="hardAlpha" operator="out"/>
<feColorMatrix type="matrix" values="0 0 0 0 0 0 0 0 0 0 0 0 0 0 0 0 0 0 0.4 0"/>
<feBlend mode="normal" in2="BackgroundImageFix" result="effect1_dropShadow_272_362"/>
<feBlend mode="normal" in="SourceGraphic" in2="effect1_dropShadow_272_362" result="shape"/>
</filter>
<filter id="filter1_d_272_362" x="56.25" y="168.811" width="223.125" height="126.385" filterUnits="userSpaceOnUse" color-interpolation-filters="sRGB">
<feFlood flood-opacity="0" result="BackgroundImageFix"/>
<feColorMatrix in="SourceAlpha" type="matrix" values="0 0 0 0 0 0 0 0 0 0 0 0 0 0 0 0 0 0 127 0" result="hardAlpha"/>
<feOffset/>
<feGaussianBlur stdDeviation="10"/>
<feComposite in2="hardAlpha" operator="out"/>
<feColorMatrix type="matrix" values="0 0 0 0 0 0 0 0 0 0 0 0 0 0 0 0 0 0 0.4 0"/>
<feBlend mode="normal" in2="BackgroundImageFix" result="effect1_dropShadow_272_362"/>
<feBlend mode="normal" in="SourceGraphic" in2="effect1_dropShadow_272_362" result="shape"/>
</filter>
</defs>
</svg>
