<svg width="425" height="400" viewBox="0 0 425 400" fill="none" xmlns="http://www.w3.org/2000/svg">
<path d="M261.875 35.0547H116.875C111.352 35.0547 106.875 39.5389 106.875 45.0704V324.257C106.875 329.788 111.352 334.272 116.875 334.272H261.875C267.398 334.272 271.875 329.788 271.875 324.257V45.0704C271.875 39.5389 267.398 35.0547 261.875 35.0547Z" fill="#F9F9FB"/>
<g filter="url(#filter0_d_40_845)">
<path d="M131.25 105.164H304.375C309.898 105.164 314.375 109.648 314.375 115.18V181.534C314.375 187.065 309.898 191.549 304.375 191.549H141.25C135.727 191.549 131.25 187.065 131.25 181.534V105.164Z" fill="#4C75A4"/>
<path d="M151.25 125.196C154.702 125.196 157.5 127.998 157.5 131.455C157.5 134.913 154.702 137.715 151.25 137.715C147.798 137.715 145 134.913 145 131.455C145 127.998 147.798 125.196 151.25 125.196ZM153.263 129.559L150.469 132.356L149.237 131.124C149.054 130.94 148.758 130.94 148.575 131.124C148.392 131.307 148.392 131.604 148.575 131.787L150.138 133.352C150.321 133.536 150.617 133.536 150.8 133.352L153.925 130.222C154.108 130.039 154.108 129.742 153.925 129.559C153.742 129.375 153.446 129.375 153.263 129.559Z" fill="#F9F9FB"/>
<path d="M151.25 142.723C154.702 142.723 157.5 145.525 157.5 148.983C157.5 152.44 154.702 155.243 151.25 155.243C147.798 155.243 145 152.44 145 148.983C145 145.525 147.798 142.723 151.25 142.723ZM153.263 147.086L150.469 149.884L149.237 148.651C149.054 148.468 148.758 148.468 148.575 148.651C148.392 148.834 148.392 149.131 148.575 149.315L150.138 150.879C150.321 151.063 150.617 151.063 150.8 150.879L153.925 147.75C154.108 147.566 154.108 147.269 153.925 147.086C153.742 146.903 153.446 146.903 153.263 147.086Z" fill="#F9F9FB"/>
<path d="M151.25 160.25C154.702 160.25 157.5 163.053 157.5 166.51C157.5 169.967 154.702 172.77 151.25 172.77C147.798 172.77 145 169.967 145 166.51C145 163.053 147.798 160.25 151.25 160.25ZM153.263 164.613L150.469 167.411L149.237 166.178C149.054 165.995 148.758 165.995 148.575 166.178C148.392 166.362 148.392 166.659 148.575 166.842L150.138 168.407C150.321 168.59 150.617 168.59 150.8 168.407L153.925 165.277C154.108 165.094 154.108 164.797 153.925 164.613C153.742 164.43 153.446 164.43 153.263 164.613Z" fill="#F9F9FB"/>
<path d="M300 123.944H166.875C165.839 123.944 165 124.784 165 125.822V129.577C165 130.615 165.839 131.455 166.875 131.455H300C301.036 131.455 301.875 130.615 301.875 129.577V125.822C301.875 124.784 301.036 123.944 300 123.944Z" fill="black" fill-opacity="0.2"/>
<path d="M300 137.715H166.875C165.839 137.715 165 138.556 165 139.593V143.349C165 144.386 165.839 145.227 166.875 145.227H300C301.036 145.227 301.875 144.386 301.875 143.349V139.593C301.875 138.556 301.036 137.715 300 137.715Z" fill="black" fill-opacity="0.2"/>
<path d="M300 151.487H166.875C165.839 151.487 165 152.327 165 153.365V157.12C165 158.158 165.839 158.998 166.875 158.998H300C301.036 158.998 301.875 158.158 301.875 157.12V153.365C301.875 152.327 301.036 151.487 300 151.487Z" fill="black" fill-opacity="0.2"/>
<path d="M300 165.258H166.875C165.839 165.258 165 166.099 165 167.136V170.892C165 171.929 165.839 172.77 166.875 172.77H300C301.036 172.77 301.875 171.929 301.875 170.892V167.136C301.875 166.099 301.036 165.258 300 165.258Z" fill="black" fill-opacity="0.2"/>
</g>
<g filter="url(#filter1_d_40_845)">
<path d="M66.875 233.49C66.875 227.958 71.3519 223.474 76.875 223.474H250V299.844C250 305.375 245.523 309.859 240 309.859H76.875C71.3519 309.859 66.875 305.375 66.875 299.844V233.49Z" fill="#F89B61"/>
<path d="M86.4188 271.913L88.4112 267.919H83.2831C82.5069 267.919 81.8775 268.549 81.8775 269.326V269.902C81.8775 270.26 81.9888 270.61 82.1963 270.901C83.0688 272.127 84.4431 272.793 86.2813 272.909C86.2181 272.588 86.255 272.242 86.4188 271.913ZM86.875 260.41C88.6013 260.41 90 261.811 90 263.54C90 265.268 88.6013 266.67 86.875 266.67C85.1494 266.67 83.75 265.268 83.75 263.54C83.75 261.811 85.1494 260.41 86.875 260.41ZM89.4756 267.186L86.9775 272.193C86.6656 272.818 87.1194 273.552 87.8169 273.552H92.8131C93.51 273.552 93.9637 272.818 93.6525 272.193L91.1544 267.186C90.8088 266.493 89.8212 266.493 89.4756 267.186ZM90.6275 268.855V270.734C90.6275 270.907 90.4875 271.047 90.315 271.047C90.1425 271.047 90.0019 270.907 90.0019 270.734V268.855C90.0019 268.682 90.1425 268.541 90.315 268.541C90.4875 268.541 90.6275 268.682 90.6275 268.855ZM90.315 272.3C90.1425 272.3 90.0019 272.16 90.0019 271.986C90.0019 271.813 90.1425 271.673 90.315 271.673C90.4875 271.673 90.6275 271.813 90.6275 271.986C90.6275 272.16 90.4875 272.3 90.315 272.3Z" fill="#F9F9FB"/>
<path d="M223.125 242.254H102.5C101.464 242.254 100.625 243.094 100.625 244.131V247.887C100.625 248.924 101.464 249.765 102.5 249.765H223.125C224.161 249.765 225 248.924 225 247.887V244.131C225 243.094 224.161 242.254 223.125 242.254Z" fill="black" fill-opacity="0.2"/>
<path d="M223.125 256.025H102.5C101.464 256.025 100.625 256.866 100.625 257.903V261.659C100.625 262.696 101.464 263.537 102.5 263.537H223.125C224.161 263.537 225 262.696 225 261.659V257.903C225 256.866 224.161 256.025 223.125 256.025Z" fill="black" fill-opacity="0.2"/>
<path d="M223.125 269.797H102.5C101.464 269.797 100.625 270.637 100.625 271.675V275.43C100.625 276.468 101.464 277.308 102.5 277.308H223.125C224.161 277.308 225 276.468 225 275.43V271.675C225 270.637 224.161 269.797 223.125 269.797Z" fill="black" fill-opacity="0.2"/>
<path d="M223.125 283.568H102.5C101.464 283.568 100.625 284.409 100.625 285.446V289.202C100.625 290.239 101.464 291.08 102.5 291.08H223.125C224.161 291.08 225 290.239 225 289.202V285.446C225 284.409 224.161 283.568 223.125 283.568Z" fill="black" fill-opacity="0.2"/>
</g>
<defs>
<filter id="filter0_d_40_845" x="111.25" y="85.1643" width="223.125" height="126.385" filterUnits="userSpaceOnUse" color-interpolation-filters="sRGB">
<feFlood flood-opacity="0" result="BackgroundImageFix"/>
<feColorMatrix in="SourceAlpha" type="matrix" values="0 0 0 0 0 0 0 0 0 0 0 0 0 0 0 0 0 0 127 0" result="hardAlpha"/>
<feOffset/>
<feGaussianBlur stdDeviation="10"/>
<feComposite in2="hardAlpha" operator="out"/>
<feColorMatrix type="matrix" values="0 0 0 0 0 0 0 0 0 0 0 0 0 0 0 0 0 0 0.4 0"/>
<feBlend mode="normal" in2="BackgroundImageFix" result="effect1_dropShadow_40_845"/>
<feBlend mode="normal" in="SourceGraphic" in2="effect1_dropShadow_40_845" result="shape"/>
</filter>
<filter id="filter1_d_40_845" x="46.875" y="203.474" width="223.125" height="126.385" filterUnits="userSpaceOnUse" color-interpolation-filters="sRGB">
<feFlood flood-opacity="0" result="BackgroundImageFix"/>
<feColorMatrix in="SourceAlpha" type="matrix" values="0 0 0 0 0 0 0 0 0 0 0 0 0 0 0 0 0 0 127 0" result="hardAlpha"/>
<feOffset/>
<feGaussianBlur stdDeviation="10"/>
<feComposite in2="hardAlpha" operator="out"/>
<feColorMatrix type="matrix" values="0 0 0 0 0 0 0 0 0 0 0 0 0 0 0 0 0 0 0.4 0"/>
<feBlend mode="normal" in2="BackgroundImageFix" result="effect1_dropShadow_40_845"/>
<feBlend mode="normal" in="SourceGraphic" in2="effect1_dropShadow_40_845" result="shape"/>
</filter>
</defs>
</svg>
