<svg width="2409" height="803" viewBox="0 0 2409 803" fill="none" xmlns="http://www.w3.org/2000/svg">
<path fill-rule="evenodd" clip-rule="evenodd" d="M27.3815 375.725C-38.3188 308.245 33.4603 257.484 58.563 200.482C81.8518 147.6 71.0022 87.5035 169.727 52.4957C270.484 16.7673 442.566 8.04168 615.953 2.8315C798.404 -2.65101 991.179 0.123062 1202.44 21.4633C1443.95 45.8599 1708.43 70.2751 1921.47 134.708C2136.16 199.638 2256.77 286.104 2333.82 363.641C2404.9 435.164 2334.78 489.683 2339.03 554.883C2343.61 625.015 2478.27 718.869 2359.88 762.695C2241.66 806.459 1950.61 772.791 1739.06 776.988C1517.78 781.378 1338.52 825.175 1083.55 788.018C828.545 750.854 627.329 662.066 434.8 586.909C262.216 519.538 97.4509 447.692 27.3815 375.725Z" fill="#4C75A4"/>
<path fill-rule="evenodd" clip-rule="evenodd" d="M27.3815 375.725C-38.3188 308.245 33.4603 257.484 58.563 200.482C81.8518 147.6 71.0022 87.5035 169.727 52.4957C270.484 16.7673 442.566 8.04168 615.953 2.8315C798.404 -2.65101 991.179 0.123062 1202.44 21.4633C1443.95 45.8599 1708.43 70.2751 1921.47 134.708C2136.16 199.638 2256.77 286.104 2333.82 363.641C2404.9 435.164 2334.78 489.683 2339.03 554.883C2343.61 625.015 2478.27 718.869 2359.88 762.695C2241.66 806.459 1950.61 772.791 1739.06 776.988C1517.78 781.378 1338.52 825.175 1083.55 788.018C828.545 750.854 627.329 662.066 434.8 586.909C262.216 519.538 97.4509 447.692 27.3815 375.725Z" fill="url(#paint0_radial_276_549)" fill-opacity="0.4"/>
<defs>
<radialGradient id="paint0_radial_276_549" cx="0" cy="0" r="1" gradientUnits="userSpaceOnUse" gradientTransform="translate(1231.45 400.56) rotate(-0.300184) scale(1169.03 402.628)">
<stop stop-color="white" stop-opacity="0"/>
<stop offset="1" stop-color="white"/>
</radialGradient>
</defs>
</svg>
