<svg width="5006" height="1607" viewBox="0 0 5006 1607" fill="none" xmlns="http://www.w3.org/2000/svg">
<g clip-path="url(#clip0_282_67)">
<g filter="url(#filter0_f_282_67)">
<path fill-rule="evenodd" clip-rule="evenodd" d="M1943.85 423.909C2013 404.083 2093.41 428.247 2143.86 479.492C2194.05 530.47 2211.11 609.599 2195.31 679.342C2181.71 739.387 2113.75 762.035 2070.03 805.42C2026.61 848.514 2004.98 925.868 1943.85 928.897C1882.32 931.947 1843.03 866.615 1804.5 818.58C1771.55 777.501 1737.72 731.645 1743.69 679.342C1749.28 630.373 1802.63 607.421 1833.03 568.615C1871.99 518.901 1883.11 441.325 1943.85 423.909Z" fill="#E9E9E9" fill-opacity="0.6"/>
<path fill-rule="evenodd" clip-rule="evenodd" d="M2984.51 211.689C3048.81 201.645 3119.07 186.366 3171.9 224.38C3230.44 266.508 3267.73 339.815 3262.52 411.746C3257.53 480.61 3196.91 526.527 3146.59 573.811C3098.61 618.9 3050.35 672.139 2984.51 672.986C2918.15 673.84 2853.44 634.26 2818.2 578.036C2787.59 529.205 2815.16 469.104 2820.75 411.746C2825.44 363.677 2817.16 312.384 2847.75 275.009C2880.83 234.602 2932.91 219.748 2984.51 211.689Z" fill="#E9E9E9" fill-opacity="0.6"/>
<path fill-rule="evenodd" clip-rule="evenodd" d="M2697.76 890.354C2764.51 901.66 2784.28 985.088 2820.64 1042.16C2845.48 1081.15 2866.54 1119.17 2872.72 1164.97C2880.22 1220.5 2891.86 1280.7 2858.98 1326.08C2822.36 1376.62 2759.97 1411.72 2697.76 1406.48C2638.28 1401.47 2607.53 1339.14 2561.6 1301.03C2506.62 1255.41 2415.15 1235.89 2406.69 1164.97C2398.09 1092.95 2471.94 1041.84 2524.71 992.043C2575.3 944.322 2629.17 878.739 2697.76 890.354Z" fill="#E9E9E9" fill-opacity="0.6"/>
</g>
</g>
<defs>
<filter id="filter0_f_282_67" x="1543" y="-0.000244141" width="1920" height="1607" filterUnits="userSpaceOnUse" color-interpolation-filters="sRGB">
<feFlood flood-opacity="0" result="BackgroundImageFix"/>
<feBlend mode="normal" in="SourceGraphic" in2="BackgroundImageFix" result="shape"/>
<feGaussianBlur stdDeviation="100" result="effect1_foregroundBlur_282_67"/>
</filter>
<clipPath id="clip0_282_67">
<rect width="1920" height="1607" fill="white" transform="translate(1543)"/>
</clipPath>
</defs>
</svg>
