<svg width="400" height="300" viewBox="0 0 400 300" fill="none" xmlns="http://www.w3.org/2000/svg">
<g clip-path="url(#clip0_272_188)">
<g filter="url(#filter0_d_272_188)">
<path d="M240.463 0.251587H94.9223C89.3788 0.251587 84.885 4.73993 84.885 10.2766V289.723C84.885 295.26 89.3788 299.748 94.9223 299.748H240.463C246.006 299.748 250.5 295.26 250.5 289.723V10.2766C250.5 4.73993 246.006 0.251587 240.463 0.251587Z" fill="#F9F9FB"/>
</g>
<path d="M110.929 25.9432C111.585 26.0601 112.141 26.4051 112.598 26.9782C113.055 27.5514 113.283 28.2005 113.283 28.9256C113.283 29.5455 113.119 30.1069 112.791 30.6098C112.475 31.101 112.013 31.4926 111.404 31.7852C110.795 32.0659 110.086 32.2063 109.278 32.2063H104.395V20.0134H109.05C109.881 20.0134 110.596 20.1537 111.193 20.4344C111.79 20.7151 112.241 21.0953 112.545 21.5748C112.85 22.0426 113.002 22.5689 113.002 23.1537C113.002 23.8555 112.814 24.4402 112.44 24.9081C112.065 25.3759 111.562 25.7209 110.929 25.9432ZM106.397 25.1362H108.874C109.53 25.1362 110.039 24.99 110.402 24.6976C110.777 24.3935 110.964 23.9607 110.964 23.3993C110.964 22.8496 110.777 22.4227 110.402 22.1186C110.039 21.8028 109.53 21.6449 108.874 21.6449H106.397V25.1362ZM109.103 30.5747C109.782 30.5747 110.315 30.411 110.701 30.0835C111.087 29.756 111.281 29.2998 111.281 28.7151C111.281 28.1186 111.076 27.6449 110.666 27.294C110.256 26.9432 109.711 26.7677 109.032 26.7677H106.397V30.5747H109.103ZM119.657 32.3642C118.744 32.3642 117.918 32.1593 117.181 31.7501C116.443 31.3291 115.863 30.7443 115.442 29.9958C115.02 29.2356 114.809 28.3584 114.809 27.3642C114.809 26.3818 115.026 25.5104 115.459 24.7502C115.892 23.99 116.484 23.4051 117.233 22.9958C117.982 22.5865 118.82 22.3818 119.745 22.3818C120.67 22.3818 121.507 22.5865 122.257 22.9958C123.006 23.4051 123.598 23.99 124.031 24.7502C124.464 25.5104 124.681 26.3818 124.681 27.3642C124.681 28.3467 124.458 29.218 124.013 29.9782C123.568 30.7384 122.96 31.3291 122.187 31.7501C121.425 32.1593 120.582 32.3642 119.657 32.3642ZM119.657 30.6273C120.172 30.6273 120.652 30.5045 121.098 30.2589C121.554 30.0133 121.923 29.6449 122.204 29.1537C122.485 28.6624 122.626 28.066 122.626 27.3642C122.626 26.6625 122.491 26.0718 122.222 25.5923C121.952 25.1011 121.595 24.7326 121.15 24.487C120.705 24.2414 120.225 24.1186 119.71 24.1186C119.194 24.1186 118.714 24.2414 118.27 24.487C117.836 24.7326 117.491 25.1011 117.233 25.5923C116.975 26.0718 116.847 26.6625 116.847 27.3642C116.847 28.4051 117.11 29.2121 117.637 29.7852C118.176 30.3466 118.849 30.6273 119.657 30.6273ZM130.858 32.3642C129.945 32.3642 129.119 32.1593 128.382 31.7501C127.644 31.3291 127.064 30.7443 126.643 29.9958C126.221 29.2356 126.01 28.3584 126.01 27.3642C126.01 26.3818 126.227 25.5104 126.66 24.7502C127.094 23.99 127.685 23.4051 128.434 22.9958C129.184 22.5865 130.021 22.3818 130.946 22.3818C131.871 22.3818 132.709 22.5865 133.458 22.9958C134.208 23.4051 134.799 23.99 135.232 24.7502C135.666 25.5104 135.882 26.3818 135.882 27.3642C135.882 28.3467 135.66 29.218 135.214 29.9782C134.77 30.7384 134.161 31.3291 133.388 31.7501C132.627 32.1593 131.784 32.3642 130.858 32.3642ZM130.858 30.6273C131.374 30.6273 131.854 30.5045 132.299 30.2589C132.755 30.0133 133.124 29.6449 133.405 29.1537C133.686 28.6624 133.827 28.066 133.827 27.3642C133.827 26.6625 133.693 26.0718 133.423 25.5923C133.154 25.1011 132.797 24.7326 132.351 24.487C131.907 24.2414 131.427 24.1186 130.911 24.1186C130.396 24.1186 129.916 24.2414 129.471 24.487C129.038 24.7326 128.692 25.1011 128.434 25.5923C128.177 26.0718 128.048 26.6625 128.048 27.3642C128.048 28.4051 128.311 29.2121 128.838 29.7852C129.377 30.3466 130.05 30.6273 130.858 30.6273ZM141.691 27.3818L146.153 32.2063H143.448L139.864 28.0484V32.2063H137.862V19.2239H139.864V26.7677L143.377 22.5397H146.153L141.691 27.3818ZM160.863 22.5397L154.926 36.7501H152.853L154.82 32.0484L151.009 22.5397H153.24L155.962 29.9081L158.79 22.5397H160.863ZM166.572 32.3642C165.659 32.3642 164.833 32.1593 164.095 31.7501C163.358 31.3291 162.778 30.7443 162.356 29.9958C161.935 29.2356 161.724 28.3584 161.724 27.3642C161.724 26.3818 161.941 25.5104 162.374 24.7502C162.808 23.99 163.398 23.4051 164.148 22.9958C164.898 22.5865 165.735 22.3818 166.66 22.3818C167.585 22.3818 168.422 22.5865 169.172 22.9958C169.921 23.4051 170.512 23.99 170.946 24.7502C171.379 25.5104 171.596 26.3818 171.596 27.3642C171.596 28.3467 171.373 29.218 170.928 29.9782C170.484 30.7384 169.874 31.3291 169.102 31.7501C168.341 32.1593 167.497 32.3642 166.572 32.3642ZM166.572 30.6273C167.087 30.6273 167.568 30.5045 168.012 30.2589C168.469 30.0133 168.838 29.6449 169.119 29.1537C169.4 28.6624 169.541 28.066 169.541 27.3642C169.541 26.6625 169.406 26.0718 169.137 25.5923C168.868 25.1011 168.51 24.7326 168.065 24.487C167.62 24.2414 167.14 24.1186 166.625 24.1186C166.11 24.1186 165.629 24.2414 165.184 24.487C164.751 24.7326 164.406 25.1011 164.148 25.5923C163.89 26.0718 163.762 26.6625 163.762 27.3642C163.762 28.4051 164.025 29.2121 164.552 29.7852C165.091 30.3466 165.764 30.6273 166.572 30.6273ZM182.34 22.5397V32.2063H180.338V31.0659C180.021 31.4638 179.606 31.7796 179.09 32.0133C178.587 32.2357 178.048 32.3466 177.474 32.3466C176.714 32.3466 176.028 32.1887 175.419 31.873C174.822 31.5572 174.348 31.0891 173.997 30.4695C173.657 29.8496 173.487 29.101 173.487 28.2239V22.5397H175.472V27.9256C175.472 28.7911 175.689 29.4577 176.122 29.9256C176.555 30.3817 177.147 30.6098 177.896 30.6098C178.646 30.6098 179.237 30.3817 179.67 29.9256C180.116 29.4577 180.338 28.7911 180.338 27.9256V22.5397H182.34ZM186.985 23.9432C187.278 23.452 187.664 23.0718 188.144 22.8028C188.636 22.5221 189.216 22.3818 189.883 22.3818V24.4519H189.374C188.589 24.4519 187.992 24.6508 187.582 25.0484C187.184 25.4461 186.985 26.1361 186.985 27.1186V32.2063H184.982V22.5397H186.985V23.9432ZM114.917 46.329L110.332 58.5219H108.013L103.411 46.329H105.554L109.173 56.4693L112.809 46.329H114.917ZM115.923 53.6447C115.923 52.6742 116.123 51.8146 116.521 51.0658C116.931 50.3171 117.481 49.7381 118.172 49.329C118.874 48.9079 119.647 48.6974 120.49 48.6974C121.252 48.6974 121.913 48.8497 122.475 49.1536C123.049 49.4462 123.506 49.8146 123.845 50.2588V48.8553H125.865V58.5219H123.845V57.0833C123.506 57.5395 123.044 57.9198 122.458 58.2237C121.872 58.5276 121.205 58.6798 120.455 58.6798C119.624 58.6798 118.863 58.4693 118.172 58.0482C117.481 57.6153 116.931 57.0188 116.521 56.2588C116.123 55.4868 115.923 54.6153 115.923 53.6447ZM123.845 53.6798C123.845 53.0132 123.705 52.4342 123.424 51.943C123.155 51.4518 122.798 51.0777 122.352 50.8202C121.908 50.5627 121.428 50.4342 120.912 50.4342C120.397 50.4342 119.917 50.5627 119.472 50.8202C119.027 51.0658 118.664 51.4342 118.383 51.9255C118.113 52.4048 117.979 52.9781 117.979 53.6447C117.979 54.3114 118.113 54.896 118.383 55.3991C118.664 55.9023 119.027 56.2882 119.472 56.557C119.928 56.8145 120.409 56.943 120.912 56.943C121.428 56.943 121.908 56.8145 122.352 56.557C122.798 56.2995 123.155 55.9254 123.424 55.4342C123.705 54.9311 123.845 54.3465 123.845 53.6798ZM127.828 53.6798C127.828 52.6855 128.027 51.8146 128.426 51.0658C128.835 50.3058 129.397 49.7206 130.112 49.3114C130.826 48.9023 131.646 48.6974 132.571 48.6974C133.742 48.6974 134.708 48.9781 135.469 49.5395C136.242 50.089 136.763 50.8785 137.032 51.9079H134.872C134.696 51.4286 134.415 51.0539 134.029 50.7851C133.642 50.5163 133.156 50.3816 132.571 50.3816C131.751 50.3816 131.095 50.6742 130.604 51.2588C130.124 51.8321 129.883 52.6391 129.883 53.6798C129.883 54.7206 130.124 55.5338 130.604 56.1184C131.095 56.703 131.751 56.9956 132.571 56.9956C133.73 56.9956 134.497 56.4868 134.872 55.4693H137.032C136.751 56.4518 136.224 57.2356 135.452 57.8202C134.679 58.3935 133.718 58.6798 132.571 58.6798C131.646 58.6798 130.826 58.4749 130.112 58.0658C129.397 57.6447 128.835 57.0601 128.426 56.3114C128.027 55.5514 127.828 54.6742 127.828 53.6798ZM138.361 53.6798C138.361 52.6855 138.559 51.8146 138.958 51.0658C139.367 50.3058 139.929 49.7206 140.644 49.3114C141.359 48.9023 142.178 48.6974 143.103 48.6974C144.274 48.6974 145.24 48.9781 146.001 49.5395C146.774 50.089 147.296 50.8785 147.565 51.9079H145.404C145.229 51.4286 144.947 51.0539 144.561 50.7851C144.175 50.5163 143.688 50.3816 143.103 50.3816C142.283 50.3816 141.628 50.6742 141.136 51.2588C140.656 51.8321 140.416 52.6391 140.416 53.6798C140.416 54.7206 140.656 55.5338 141.136 56.1184C141.628 56.703 142.283 56.9956 143.103 56.9956C144.262 56.9956 145.03 56.4868 145.404 55.4693H147.565C147.284 56.4518 146.757 57.2356 145.984 57.8202C145.211 58.3935 144.251 58.6798 143.103 58.6798C142.178 58.6798 141.359 58.4749 140.644 58.0658C139.929 57.6447 139.367 57.0601 138.958 56.3114C138.559 55.5514 138.361 54.6742 138.361 53.6798ZM150.579 47.5746C150.216 47.5746 149.912 47.4518 149.666 47.2062C149.42 46.9606 149.297 46.6567 149.297 46.2939C149.297 45.9311 149.42 45.6273 149.666 45.3816C149.912 45.136 150.216 45.0132 150.579 45.0132C150.93 45.0132 151.229 45.136 151.475 45.3816C151.721 45.6273 151.844 45.9311 151.844 46.2939C151.844 46.6567 151.721 46.9606 151.475 47.2062C151.229 47.4518 150.93 47.5746 150.579 47.5746ZM151.563 48.8553V58.5219H149.56V48.8553H151.563ZM159.075 48.6974C159.836 48.6974 160.515 48.8553 161.112 49.1711C161.722 49.4869 162.196 49.9549 162.535 50.5746C162.875 51.1943 163.045 51.943 163.045 52.8202V58.5219H161.06V53.1184C161.06 52.2532 160.843 51.5921 160.41 51.136C159.976 50.668 159.385 50.4342 158.636 50.4342C157.886 50.4342 157.289 50.668 156.844 51.136C156.411 51.5921 156.194 52.2532 156.194 53.1184V58.5219H154.192V48.8553H156.194V49.9606C156.522 49.5627 156.938 49.2532 157.441 49.0307C157.956 48.8083 158.501 48.6974 159.075 48.6974ZM164.932 53.6447C164.932 52.6742 165.131 51.8146 165.529 51.0658C165.939 50.3171 166.489 49.7381 167.18 49.329C167.883 48.9079 168.655 48.6974 169.499 48.6974C170.26 48.6974 170.921 48.8497 171.483 49.1536C172.057 49.4462 172.514 49.8146 172.854 50.2588V48.8553H174.874V58.5219H172.854V57.0833C172.514 57.5395 172.051 57.9198 171.466 58.2237C170.88 58.5276 170.213 58.6798 169.463 58.6798C168.632 58.6798 167.871 58.4693 167.18 58.0482C166.489 57.6153 165.939 57.0188 165.529 56.2588C165.131 55.4868 164.932 54.6153 164.932 53.6447ZM172.854 53.6798C172.854 53.0132 172.713 52.4342 172.432 51.943C172.162 51.4518 171.805 51.0777 171.361 50.8202C170.915 50.5627 170.435 50.4342 169.92 50.4342C169.405 50.4342 168.925 50.5627 168.48 50.8202C168.034 51.0658 167.672 51.4342 167.391 51.9255C167.121 52.4048 166.987 52.9781 166.987 53.6447C166.987 54.3114 167.121 54.896 167.391 55.3991C167.672 55.9023 168.034 56.2882 168.48 56.557C168.937 56.8145 169.416 56.943 169.92 56.943C170.435 56.943 170.915 56.8145 171.361 56.557C171.805 56.2995 172.162 55.9254 172.432 55.4342C172.713 54.9311 172.854 54.3465 172.854 53.6798ZM179.84 50.4869V55.8377C179.84 56.2005 179.922 56.4637 180.085 56.6272C180.261 56.7794 180.554 56.8553 180.964 56.8553H182.193V58.5219H180.612C179.711 58.5219 179.02 58.3114 178.54 57.8903C178.06 57.4693 177.82 56.7851 177.82 55.8377V50.4869H176.678V48.8553H177.82V46.4518H179.84V48.8553H182.193V50.4869H179.84ZM185.058 47.5746C184.694 47.5746 184.39 47.4518 184.144 47.2062C183.898 46.9606 183.775 46.6567 183.775 46.2939C183.775 45.9311 183.898 45.6273 184.144 45.3816C184.39 45.136 184.694 45.0132 185.058 45.0132C185.409 45.0132 185.708 45.136 185.953 45.3816C186.199 45.6273 186.322 45.9311 186.322 46.2939C186.322 46.6567 186.199 46.9606 185.953 47.2062C185.708 47.4518 185.409 47.5746 185.058 47.5746ZM186.041 48.8553V58.5219H184.039V48.8553H186.041ZM192.869 58.6798C191.955 58.6798 191.13 58.4749 190.392 58.0658C189.654 57.6447 189.074 57.0601 188.653 56.3114C188.231 55.5514 188.021 54.6742 188.021 53.6798C188.021 52.6974 188.237 51.8258 188.67 51.0658C189.104 50.3058 189.695 49.7206 190.445 49.3114C191.194 48.9023 192.031 48.6974 192.956 48.6974C193.882 48.6974 194.719 48.9023 195.468 49.3114C196.218 49.7206 196.809 50.3058 197.242 51.0658C197.676 51.8258 197.892 52.6974 197.892 53.6798C197.892 54.6623 197.669 55.5338 197.225 56.2939C196.78 57.0539 196.171 57.6447 195.398 58.0658C194.637 58.4749 193.794 58.6798 192.869 58.6798ZM192.869 56.943C193.384 56.943 193.864 56.8202 194.309 56.5746C194.766 56.3289 195.134 55.9605 195.415 55.4693C195.697 54.9781 195.837 54.3816 195.837 53.6798C195.837 52.9781 195.702 52.3872 195.433 51.9079C195.164 51.4167 194.806 51.0483 194.362 50.8027C193.917 50.557 193.436 50.4342 192.921 50.4342C192.406 50.4342 191.926 50.557 191.481 50.8027C191.047 51.0483 190.702 51.4167 190.445 51.9079C190.187 52.3872 190.058 52.9781 190.058 53.6798C190.058 54.7206 190.322 55.5276 190.849 56.1009C191.387 56.6623 192.061 56.943 192.869 56.943ZM204.755 48.6974C205.516 48.6974 206.195 48.8553 206.792 49.1711C207.401 49.4869 207.875 49.9549 208.215 50.5746C208.555 51.1943 208.724 51.943 208.724 52.8202V58.5219H206.739V53.1184C206.739 52.2532 206.523 51.5921 206.089 51.136C205.657 50.668 205.065 50.4342 204.315 50.4342C203.566 50.4342 202.969 50.668 202.524 51.136C202.091 51.5921 201.874 52.2532 201.874 53.1184V58.5219H199.871V48.8553H201.874V49.9606C202.202 49.5627 202.618 49.2532 203.121 49.0307C203.637 48.8083 204.181 48.6974 204.755 48.6974Z" fill="#353535"/>
<path d="M158.283 259.648H108.096C105.325 259.648 103.078 261.893 103.078 264.661V282.205C103.078 284.973 105.325 287.217 108.096 287.217H158.283C161.054 287.217 163.301 284.973 163.301 282.205V264.661C163.301 261.893 161.054 259.648 158.283 259.648Z" fill="#A0A0A0"/>
<path d="M227.289 259.648H177.102C174.331 259.648 172.084 261.893 172.084 264.661V282.205C172.084 284.973 174.331 287.217 177.102 287.217H227.289C230.06 287.217 232.307 284.973 232.307 282.205V264.661C232.307 261.893 230.06 259.648 227.289 259.648Z" fill="#4C75A4"/>
<g filter="url(#filter1_d_272_188)">
<path d="M310.096 150.627H139.463C136.691 150.627 134.444 152.871 134.444 155.639V181.955C134.444 184.723 136.691 186.967 139.463 186.967H310.096C312.868 186.967 315.115 184.723 315.115 181.955V155.639C315.115 152.871 312.868 150.627 310.096 150.627Z" fill="#F9F9FB"/>
<path d="M154.832 161.944C154.074 161.944 153.46 162.558 153.46 163.314V165.86H150.911C150.154 165.86 149.539 166.474 149.539 167.231V170.363C149.539 171.12 150.154 171.734 150.911 171.734H153.46V174.279C153.46 175.036 154.074 175.65 154.832 175.65H157.969C158.727 175.65 159.341 175.036 159.341 174.279V171.734H161.89C162.647 171.734 163.262 171.12 163.262 170.363V167.231C163.262 166.474 162.647 165.86 161.89 165.86H159.341V163.314C159.341 162.558 158.727 161.944 157.969 161.944H154.832Z" fill="#4C75A4"/>
<path d="M300.686 160.025H178.985C177.945 160.025 177.103 160.867 177.103 161.905V165.664C177.103 166.702 177.945 167.544 178.985 167.544H300.686C301.726 167.544 302.568 166.702 302.568 165.664V161.905C302.568 160.867 301.726 160.025 300.686 160.025Z" fill="black" fill-opacity="0.2"/>
<path d="M300.686 173.183H178.985C177.945 173.183 177.103 174.024 177.103 175.063V178.822C177.103 179.86 177.945 180.702 178.985 180.702H300.686C301.726 180.702 302.568 179.86 302.568 178.822V175.063C302.568 174.024 301.726 173.183 300.686 173.183Z" fill="black" fill-opacity="0.2"/>
</g>
<g filter="url(#filter2_d_272_188)">
<path d="M258.655 98.6219H125.034C122.263 98.6219 120.016 100.866 120.016 103.634V129.95C120.016 132.718 122.263 134.963 125.034 134.963H258.655C261.427 134.963 263.674 132.718 263.674 129.95V103.634C263.674 100.866 261.427 98.6219 258.655 98.6219Z" fill="#F9F9FB"/>
<path d="M148.05 108.02C149.024 108.02 149.814 108.809 149.814 109.782V118.793C149.814 119.767 149.024 120.555 148.05 120.555H135.895C134.92 120.555 134.131 119.767 134.131 118.793V109.782C134.131 108.809 134.92 108.02 135.895 108.02H148.05ZM140.208 114.678H137.463C137.166 114.678 136.92 114.899 136.881 115.185L136.875 115.265V115.65L136.881 115.735C137.009 116.607 137.74 117.028 138.836 117.028C139.879 117.028 140.591 116.647 140.768 115.857L140.79 115.736L140.796 115.651V115.265C140.796 114.968 140.575 114.722 140.288 114.683L140.208 114.678ZM146.481 115.066H142.954L142.874 115.072C142.588 115.111 142.366 115.356 142.366 115.654C142.366 115.951 142.588 116.196 142.874 116.236L142.954 116.241H146.481L146.561 116.236C146.848 116.196 147.069 115.951 147.069 115.654C147.069 115.356 146.848 115.111 146.561 115.072L146.481 115.066ZM138.836 111.547C138.186 111.547 137.659 112.072 137.659 112.721C137.659 113.37 138.186 113.896 138.836 113.896C139.485 113.896 140.012 113.37 140.012 112.721C140.012 112.072 139.485 111.547 138.836 111.547ZM146.481 112.328H142.954L142.874 112.334C142.588 112.372 142.366 112.618 142.366 112.915C142.366 113.213 142.588 113.458 142.874 113.498L142.954 113.503H146.481L146.561 113.498C146.848 113.458 147.069 113.213 147.069 112.915C147.069 112.618 146.848 112.372 146.561 112.334L146.481 112.328Z" fill="#4C75A4"/>
<path d="M249.245 108.02H158.91C157.871 108.02 157.028 108.862 157.028 109.9V113.659C157.028 114.698 157.871 115.539 158.91 115.539H249.245C250.285 115.539 251.127 114.698 251.127 113.659V109.9C251.127 108.862 250.285 108.02 249.245 108.02Z" fill="black" fill-opacity="0.2"/>
<path d="M249.245 121.178H158.91C157.871 121.178 157.028 122.02 157.028 123.058V126.817C157.028 127.855 157.871 128.697 158.91 128.697H249.245C250.285 128.697 251.127 127.855 251.127 126.817V123.058C251.127 122.02 250.285 121.178 249.245 121.178Z" fill="black" fill-opacity="0.2"/>
</g>
<g filter="url(#filter3_d_272_188)">
<path d="M295.04 202.631H155.146C152.374 202.631 150.127 204.875 150.127 207.644V233.959C150.127 236.728 152.374 238.972 155.146 238.972H295.04C297.812 238.972 300.059 236.728 300.059 233.959V207.644C300.059 204.875 297.812 202.631 295.04 202.631Z" fill="#F9F9FB"/>
<path d="M172.084 212.968C176.416 212.968 179.927 216.475 179.927 220.801C179.927 225.127 176.416 228.634 172.084 228.634C167.753 228.634 164.241 225.127 164.241 220.801C164.241 216.475 167.753 212.968 172.084 212.968ZM172.081 219.43C171.679 219.43 171.348 219.733 171.303 220.122L171.297 220.214L171.301 224.523L171.306 224.614C171.351 225.003 171.683 225.305 172.085 225.305C172.487 225.305 172.819 225.002 172.863 224.613L172.869 224.521L172.866 220.213L172.861 220.121C172.815 219.732 172.483 219.429 172.081 219.43ZM172.085 216.493C171.543 216.493 171.103 216.932 171.103 217.473C171.103 218.015 171.543 218.454 172.085 218.454C172.627 218.454 173.066 218.015 173.066 217.473C173.066 216.932 172.627 216.493 172.085 216.493Z" fill="#4C75A4"/>
<path d="M285.631 212.03H189.022C187.982 212.03 187.14 212.871 187.14 213.909V217.669C187.14 218.707 187.982 219.548 189.022 219.548H285.631C286.67 219.548 287.513 218.707 287.513 217.669V213.909C287.513 212.871 286.67 212.03 285.631 212.03Z" fill="black" fill-opacity="0.2"/>
<path d="M285.631 225.188H189.022C187.982 225.188 187.14 226.029 187.14 227.067V230.827C187.14 231.865 187.982 232.706 189.022 232.706H285.631C286.67 232.706 287.513 231.865 287.513 230.827V227.067C287.513 226.029 286.67 225.188 285.631 225.188Z" fill="black" fill-opacity="0.2"/>
</g>
</g>
<defs>
<filter id="filter0_d_272_188" x="64.885" y="-19.7484" width="205.615" height="339.497" filterUnits="userSpaceOnUse" color-interpolation-filters="sRGB">
<feFlood flood-opacity="0" result="BackgroundImageFix"/>
<feColorMatrix in="SourceAlpha" type="matrix" values="0 0 0 0 0 0 0 0 0 0 0 0 0 0 0 0 0 0 127 0" result="hardAlpha"/>
<feOffset/>
<feGaussianBlur stdDeviation="10"/>
<feComposite in2="hardAlpha" operator="out"/>
<feColorMatrix type="matrix" values="0 0 0 0 0 0 0 0 0 0 0 0 0 0 0 0 0 0 0.25 0"/>
<feBlend mode="normal" in2="BackgroundImageFix" result="effect1_dropShadow_272_188"/>
<feBlend mode="normal" in="SourceGraphic" in2="effect1_dropShadow_272_188" result="shape"/>
</filter>
<filter id="filter1_d_272_188" x="124.444" y="140.627" width="200.671" height="56.3406" filterUnits="userSpaceOnUse" color-interpolation-filters="sRGB">
<feFlood flood-opacity="0" result="BackgroundImageFix"/>
<feColorMatrix in="SourceAlpha" type="matrix" values="0 0 0 0 0 0 0 0 0 0 0 0 0 0 0 0 0 0 127 0" result="hardAlpha"/>
<feOffset/>
<feGaussianBlur stdDeviation="5"/>
<feComposite in2="hardAlpha" operator="out"/>
<feColorMatrix type="matrix" values="0 0 0 0 0 0 0 0 0 0 0 0 0 0 0 0 0 0 0.4 0"/>
<feBlend mode="normal" in2="BackgroundImageFix" result="effect1_dropShadow_272_188"/>
<feBlend mode="normal" in="SourceGraphic" in2="effect1_dropShadow_272_188" result="shape"/>
</filter>
<filter id="filter2_d_272_188" x="110.016" y="88.6219" width="163.658" height="56.3406" filterUnits="userSpaceOnUse" color-interpolation-filters="sRGB">
<feFlood flood-opacity="0" result="BackgroundImageFix"/>
<feColorMatrix in="SourceAlpha" type="matrix" values="0 0 0 0 0 0 0 0 0 0 0 0 0 0 0 0 0 0 127 0" result="hardAlpha"/>
<feOffset/>
<feGaussianBlur stdDeviation="5"/>
<feComposite in2="hardAlpha" operator="out"/>
<feColorMatrix type="matrix" values="0 0 0 0 0 0 0 0 0 0 0 0 0 0 0 0 0 0 0.4 0"/>
<feBlend mode="normal" in2="BackgroundImageFix" result="effect1_dropShadow_272_188"/>
<feBlend mode="normal" in="SourceGraphic" in2="effect1_dropShadow_272_188" result="shape"/>
</filter>
<filter id="filter3_d_272_188" x="140.127" y="192.631" width="169.932" height="56.3406" filterUnits="userSpaceOnUse" color-interpolation-filters="sRGB">
<feFlood flood-opacity="0" result="BackgroundImageFix"/>
<feColorMatrix in="SourceAlpha" type="matrix" values="0 0 0 0 0 0 0 0 0 0 0 0 0 0 0 0 0 0 127 0" result="hardAlpha"/>
<feOffset/>
<feGaussianBlur stdDeviation="5"/>
<feComposite in2="hardAlpha" operator="out"/>
<feColorMatrix type="matrix" values="0 0 0 0 0 0 0 0 0 0 0 0 0 0 0 0 0 0 0.4 0"/>
<feBlend mode="normal" in2="BackgroundImageFix" result="effect1_dropShadow_272_188"/>
<feBlend mode="normal" in="SourceGraphic" in2="effect1_dropShadow_272_188" result="shape"/>
</filter>
<clipPath id="clip0_272_188">
<rect width="400" height="300" fill="white"/>
</clipPath>
</defs>
</svg>
