<svg width="261" height="341" viewBox="0 0 261 341" fill="none" xmlns="http://www.w3.org/2000/svg">
<g filter="url(#filter0_d_236_54)">
<path d="M175.963 20.9547H30.4223C24.8788 20.9547 20.385 25.443 20.385 30.9797V310.427C20.385 315.963 24.8788 320.452 30.4223 320.452H175.963C181.506 320.452 186 315.963 186 310.427V30.9797C186 25.443 181.506 20.9547 175.963 20.9547Z" fill="#F9F9FB"/>
</g>
<path d="M46.4293 46.6463C47.0848 46.7632 47.6413 47.1082 48.098 47.6813C48.5547 48.2545 48.783 48.9036 48.783 49.6287C48.783 50.2486 48.6193 50.81 48.2912 51.3129C47.975 51.8041 47.5127 52.1957 46.9036 52.4883C46.2946 52.769 45.5862 52.9094 44.7782 52.9094H39.895V40.7165H44.5498C45.3812 40.7165 46.0956 40.8568 46.6928 41.1375C47.29 41.4182 47.741 41.7984 48.0453 42.2779C48.3495 42.7457 48.502 43.272 48.502 43.8568C48.502 44.5586 48.3144 45.1433 47.9399 45.6112C47.5654 46.079 47.0616 46.424 46.4293 46.6463ZM41.8975 45.8392H44.3742C45.0299 45.8392 45.5393 45.6931 45.9023 45.4007C46.277 45.0966 46.4644 44.6638 46.4644 44.1024C46.4644 43.5527 46.277 43.1258 45.9023 42.8217C45.5393 42.5059 45.0299 42.348 44.3742 42.348H41.8975V45.8392ZM44.6025 51.2778C45.2817 51.2778 45.8145 51.1141 46.2009 50.7866C46.5874 50.4591 46.7806 50.0029 46.7806 49.4182C46.7806 48.8217 46.5756 48.348 46.1658 47.9971C45.756 47.6463 45.2115 47.4708 44.5322 47.4708H41.8975V51.2778H44.6025ZM55.1573 53.0673C54.2439 53.0673 53.4184 52.8624 52.6806 52.4532C51.9429 52.0322 51.3632 51.4474 50.9417 50.6989C50.5201 49.9387 50.3093 49.0615 50.3093 48.0673C50.3093 47.0849 50.5258 46.2135 50.9592 45.4533C51.3921 44.6931 51.9837 44.1082 52.7333 43.6989C53.4824 43.2896 54.3198 43.0849 55.2451 43.0849C56.1698 43.0849 57.0073 43.2896 57.757 43.6989C58.506 44.1082 59.0976 44.6931 59.5311 45.4533C59.9639 46.2135 60.181 47.0849 60.181 48.0673C60.181 49.0498 59.9583 49.9211 59.5135 50.6813C59.0681 51.4415 58.4596 52.0322 57.6867 52.4532C56.9251 52.8624 56.082 53.0673 55.1573 53.0673ZM55.1573 51.3304C55.6724 51.3304 56.1523 51.2076 56.5977 50.962C57.0544 50.7164 57.4232 50.348 57.7043 49.8568C57.9853 49.3655 58.1258 48.7691 58.1258 48.0673C58.1258 47.3656 57.991 46.7749 57.7218 46.2954C57.4521 45.8042 57.0951 45.4357 56.6504 45.1901C56.205 44.9445 55.7251 44.8217 55.21 44.8217C54.6944 44.8217 54.2144 44.9445 53.7697 45.1901C53.3362 45.4357 52.9905 45.8042 52.7333 46.2954C52.4755 46.7749 52.3469 47.3656 52.3469 48.0673C52.3469 49.1082 52.6104 49.9152 53.1373 50.4883C53.6756 51.0497 54.3493 51.3304 55.1573 51.3304ZM66.3583 53.0673C65.4449 53.0673 64.6193 52.8624 63.8816 52.4532C63.1438 52.0322 62.5642 51.4474 62.1426 50.6989C61.7211 49.9387 61.5103 49.0615 61.5103 48.0673C61.5103 47.0849 61.7273 46.2135 62.1602 45.4533C62.5937 44.6931 63.1853 44.1082 63.9343 43.6989C64.6839 43.2896 65.5214 43.0849 66.4461 43.0849C67.3714 43.0849 68.2089 43.2896 68.9579 43.6989C69.7076 44.1082 70.2992 44.6931 70.732 45.4533C71.1655 46.2135 71.3819 47.0849 71.3819 48.0673C71.3819 49.0498 71.1599 49.9211 70.7145 50.6813C70.2697 51.4415 69.6605 52.0322 68.8877 52.4532C68.1267 52.8624 67.2836 53.0673 66.3583 53.0673ZM66.3583 51.3304C66.8739 51.3304 67.3539 51.2076 67.7986 50.962C68.2553 50.7164 68.6242 50.348 68.9052 49.8568C69.1863 49.3655 69.3268 48.7691 69.3268 48.0673C69.3268 47.3656 69.1926 46.7749 68.9228 46.2954C68.6537 45.8042 68.2967 45.4357 67.8513 45.1901C67.4066 44.9445 66.9266 44.8217 66.411 44.8217C65.8959 44.8217 65.416 44.9445 64.9706 45.1901C64.5378 45.4357 64.1921 45.8042 63.9343 46.2954C63.6771 46.7749 63.5479 47.3656 63.5479 48.0673C63.5479 49.1082 63.8113 49.9152 64.3383 50.4883C64.8772 51.0497 65.5503 51.3304 66.3583 51.3304ZM77.191 48.0848L81.6526 52.9094H78.9475L75.3642 48.7515V52.9094H73.3618V39.927H75.3642V47.4708L78.8773 43.2428H81.6526L77.191 48.0848ZM96.3628 43.2428L90.4258 57.4532H88.3531L90.3204 52.7515L86.5087 43.2428H88.7395L91.4621 50.6111L94.2901 43.2428H96.3628ZM102.072 53.0673C101.159 53.0673 100.333 52.8624 99.5954 52.4532C98.8577 52.0322 98.278 51.4474 97.8565 50.6989C97.4349 49.9387 97.2241 49.0615 97.2241 48.0673C97.2241 47.0849 97.4406 46.2135 97.874 45.4533C98.3075 44.6931 98.8985 44.1082 99.6481 43.6989C100.398 43.2896 101.235 43.0849 102.16 43.0849C103.085 43.0849 103.922 43.2896 104.672 43.6989C105.421 44.1082 106.012 44.6931 106.446 45.4533C106.879 46.2135 107.096 47.0849 107.096 48.0673C107.096 49.0498 106.873 49.9211 106.428 50.6813C105.984 51.4415 105.374 52.0322 104.602 52.4532C103.841 52.8624 102.997 53.0673 102.072 53.0673ZM102.072 51.3304C102.587 51.3304 103.068 51.2076 103.512 50.962C103.969 50.7164 104.338 50.348 104.619 49.8568C104.9 49.3655 105.041 48.7691 105.041 48.0673C105.041 47.3656 104.906 46.7749 104.637 46.2954C104.368 45.8042 104.01 45.4357 103.565 45.1901C103.12 44.9445 102.64 44.8217 102.125 44.8217C101.61 44.8217 101.129 44.9445 100.684 45.1901C100.251 45.4357 99.906 45.8042 99.6481 46.2954C99.3903 46.7749 99.2617 47.3656 99.2617 48.0673C99.2617 49.1082 99.5252 49.9152 100.052 50.4883C100.591 51.0497 101.264 51.3304 102.072 51.3304ZM117.84 43.2428V52.9094H115.838V51.769C115.521 52.1669 115.106 52.4827 114.59 52.7164C114.087 52.9388 113.548 53.0497 112.974 53.0497C112.214 53.0497 111.528 52.8918 110.919 52.576C110.322 52.2603 109.848 51.7922 109.497 51.1725C109.157 50.5527 108.987 49.8041 108.987 48.9269V43.2428H110.972V48.6287C110.972 49.4942 111.189 50.1608 111.622 50.6287C112.055 51.0848 112.647 51.3129 113.396 51.3129C114.146 51.3129 114.737 51.0848 115.17 50.6287C115.616 50.1608 115.838 49.4942 115.838 48.6287V43.2428H117.84ZM122.485 44.6463C122.778 44.155 123.164 43.7749 123.644 43.5059C124.136 43.2252 124.716 43.0849 125.383 43.0849V45.155H124.874C124.089 45.155 123.492 45.3538 123.082 45.7515C122.684 46.1492 122.485 46.8392 122.485 47.8217V52.9094H120.482V43.2428H122.485V44.6463ZM50.4166 67.0321L45.8321 79.225H43.5135L38.9114 67.0321H41.0543L44.6728 77.1724L48.3088 67.0321H50.4166ZM51.4235 74.3478C51.4235 73.3773 51.6229 72.5177 52.0207 71.7689C52.4309 71.0202 52.9811 70.4412 53.6718 70.0321C54.3744 69.611 55.1473 69.4005 55.9904 69.4005C56.752 69.4005 57.4132 69.5528 57.9753 69.8566C58.5493 70.1492 59.006 70.5177 59.3454 70.9619V69.5584H61.3654V79.225H59.3454V77.7864C59.006 78.2426 58.5436 78.6229 57.9577 78.9268C57.3724 79.2306 56.7049 79.3829 55.9553 79.3829C55.1241 79.3829 54.3631 79.1724 53.6718 78.7513C52.9811 78.3184 52.4309 77.7219 52.0207 76.9619C51.6229 76.1899 51.4235 75.3184 51.4235 74.3478ZM59.3454 74.3829C59.3454 73.7163 59.2048 73.1373 58.9238 72.6461C58.6547 72.1549 58.2977 71.7808 57.8523 71.5233C57.4076 71.2658 56.9276 71.1373 56.412 71.1373C55.8969 71.1373 55.417 71.2658 54.9716 71.5233C54.5269 71.7689 54.1636 72.1373 53.8826 72.6286C53.6135 73.1079 53.4786 73.6812 53.4786 74.3478C53.4786 75.0145 53.6135 75.5991 53.8826 76.1022C54.1636 76.6054 54.5269 76.9913 54.9716 77.2601C55.4283 77.5176 55.9089 77.6461 56.412 77.6461C56.9276 77.6461 57.4076 77.5176 57.8523 77.2601C58.2977 77.0026 58.6547 76.6285 58.9238 76.1373C59.2048 75.6342 59.3454 75.0496 59.3454 74.3829ZM63.3283 74.3829C63.3283 73.3886 63.5271 72.5177 63.9255 71.7689C64.3351 71.0089 64.8972 70.4237 65.6118 70.0145C66.3263 69.6054 67.1456 69.4005 68.0709 69.4005C69.2421 69.4005 70.2082 69.6812 70.9692 70.2426C71.742 70.7921 72.2633 71.5816 72.5325 72.611H70.3719C70.1963 72.1317 69.9152 71.757 69.5288 71.4882C69.1424 71.2194 68.6562 71.0847 68.0709 71.0847C67.251 71.0847 66.5954 71.3773 66.1036 71.9619C65.6237 72.5352 65.3834 73.3422 65.3834 74.3829C65.3834 75.4237 65.6237 76.2369 66.1036 76.8215C66.5954 77.4061 67.251 77.6987 68.0709 77.6987C69.2302 77.6987 69.9974 77.1899 70.3719 76.1724H72.5325C72.2514 77.1548 71.7245 77.9387 70.9516 78.5233C70.1787 79.0966 69.2183 79.3829 68.0709 79.3829C67.1456 79.3829 66.3263 79.178 65.6118 78.7689C64.8972 78.3478 64.3351 77.7632 63.9255 77.0145C63.5271 76.2545 63.3283 75.3773 63.3283 74.3829ZM73.8605 74.3829C73.8605 73.3886 74.0594 72.5177 74.4577 71.7689C74.8674 71.0089 75.4295 70.4237 76.144 70.0145C76.8585 69.6054 77.6778 69.4005 78.6031 69.4005C79.7743 69.4005 80.7404 69.6812 81.5014 70.2426C82.2743 70.7921 82.7956 71.5816 83.0647 72.611H80.9042C80.7285 72.1317 80.4475 71.757 80.061 71.4882C79.6746 71.2194 79.1884 71.0847 78.6031 71.0847C77.7832 71.0847 77.1276 71.3773 76.6358 71.9619C76.1559 72.5352 75.9156 73.3422 75.9156 74.3829C75.9156 75.4237 76.1559 76.2369 76.6358 76.8215C77.1276 77.4061 77.7832 77.6987 78.6031 77.6987C79.7624 77.6987 80.5296 77.1899 80.9042 76.1724H83.0647C82.7836 77.1548 82.2567 77.9387 81.4838 78.5233C80.711 79.0966 79.7505 79.3829 78.6031 79.3829C77.6778 79.3829 76.8585 79.178 76.144 78.7689C75.4295 78.3478 74.8674 77.7632 74.4577 77.0145C74.0594 76.2545 73.8605 75.3773 73.8605 74.3829ZM86.079 68.2777C85.7158 68.2777 85.4115 68.1549 85.1656 67.9093C84.9197 67.6637 84.7967 67.3598 84.7967 66.997C84.7967 66.6342 84.9197 66.3303 85.1656 66.0847C85.4115 65.8391 85.7158 65.7163 86.079 65.7163C86.4303 65.7163 86.7289 65.8391 86.9748 66.0847C87.2207 66.3303 87.3437 66.6342 87.3437 66.997C87.3437 67.3598 87.2207 67.6637 86.9748 67.9093C86.7289 68.1549 86.4303 68.2777 86.079 68.2777ZM87.0627 69.5584V79.225H85.0602V69.5584H87.0627ZM94.5749 69.4005C95.3359 69.4005 96.0153 69.5584 96.6125 69.8742C97.2216 70.19 97.6959 70.658 98.0353 71.2777C98.3747 71.8974 98.5447 72.6461 98.5447 73.5233V79.225H96.5598V73.8215C96.5598 72.9563 96.3434 72.2952 95.9099 71.8391C95.4764 71.371 94.8855 71.1373 94.1358 71.1373C93.3861 71.1373 92.7889 71.371 92.3441 71.8391C91.9107 72.2952 91.6942 72.9563 91.6942 73.8215V79.225H89.6918V69.5584H91.6942V70.6637C92.0223 70.2658 92.4376 69.9563 92.9414 69.7338C93.4564 69.5114 94.0009 69.4005 94.5749 69.4005ZM100.432 74.3478C100.432 73.3773 100.631 72.5177 101.029 71.7689C101.439 71.0202 101.989 70.4412 102.68 70.0321C103.383 69.611 104.155 69.4005 104.999 69.4005C105.76 69.4005 106.421 69.5528 106.983 69.8566C107.557 70.1492 108.014 70.5177 108.354 70.9619V69.5584H110.374V79.225H108.354V77.7864C108.014 78.2426 107.551 78.6229 106.966 78.9268C106.38 79.2306 105.713 79.3829 104.963 79.3829C104.132 79.3829 103.371 79.1724 102.68 78.7513C101.989 78.3184 101.439 77.7219 101.029 76.9619C100.631 76.1899 100.432 75.3184 100.432 74.3478ZM108.354 74.3829C108.354 73.7163 108.213 73.1373 107.932 72.6461C107.662 72.1549 107.305 71.7808 106.861 71.5233C106.415 71.2658 105.935 71.1373 105.42 71.1373C104.905 71.1373 104.425 71.2658 103.98 71.5233C103.534 71.7689 103.172 72.1373 102.891 72.6286C102.621 73.1079 102.487 73.6812 102.487 74.3478C102.487 75.0145 102.621 75.5991 102.891 76.1022C103.172 76.6054 103.534 76.9913 103.98 77.2601C104.437 77.5176 104.916 77.6461 105.42 77.6461C105.935 77.6461 106.415 77.5176 106.861 77.2601C107.305 77.0026 107.662 76.6285 107.932 76.1373C108.213 75.6342 108.354 75.0496 108.354 74.3829ZM115.34 71.19V76.5408C115.34 76.9036 115.422 77.1667 115.585 77.3303C115.761 77.4825 116.054 77.5583 116.464 77.5583H117.693V79.225H116.112C115.211 79.225 114.52 79.0145 114.04 78.5934C113.56 78.1724 113.32 77.4882 113.32 76.5408V71.19H112.178V69.5584H113.32V67.1549H115.34V69.5584H117.693V71.19H115.34ZM120.558 68.2777C120.194 68.2777 119.89 68.1549 119.644 67.9093C119.398 67.6637 119.275 67.3598 119.275 66.997C119.275 66.6342 119.398 66.3303 119.644 66.0847C119.89 65.8391 120.194 65.7163 120.558 65.7163C120.909 65.7163 121.208 65.8391 121.453 66.0847C121.699 66.3303 121.822 66.6342 121.822 66.997C121.822 67.3598 121.699 67.6637 121.453 67.9093C121.208 68.1549 120.909 68.2777 120.558 68.2777ZM121.541 69.5584V79.225H119.539V69.5584H121.541ZM128.369 79.3829C127.455 79.3829 126.63 79.178 125.892 78.7689C125.154 78.3478 124.574 77.7632 124.153 77.0145C123.731 76.2545 123.521 75.3773 123.521 74.3829C123.521 73.4005 123.737 72.5289 124.17 71.7689C124.604 71.0089 125.195 70.4237 125.945 70.0145C126.694 69.6054 127.531 69.4005 128.456 69.4005C129.382 69.4005 130.219 69.6054 130.968 70.0145C131.718 70.4237 132.309 71.0089 132.742 71.7689C133.176 72.5289 133.392 73.4005 133.392 74.3829C133.392 75.3654 133.169 76.2369 132.725 76.9969C132.28 77.757 131.671 78.3478 130.898 78.7689C130.137 79.178 129.294 79.3829 128.369 79.3829ZM128.369 77.6461C128.884 77.6461 129.364 77.5233 129.809 77.2776C130.266 77.032 130.634 76.6636 130.915 76.1724C131.197 75.6812 131.337 75.0847 131.337 74.3829C131.337 73.6812 131.202 73.0903 130.933 72.611C130.664 72.1198 130.306 71.7514 129.862 71.5057C129.417 71.2601 128.936 71.1373 128.421 71.1373C127.906 71.1373 127.426 71.2601 126.981 71.5057C126.547 71.7514 126.202 72.1198 125.945 72.611C125.687 73.0903 125.558 73.6812 125.558 74.3829C125.558 75.4237 125.822 76.2307 126.349 76.804C126.887 77.3654 127.561 77.6461 128.369 77.6461ZM140.255 69.4005C141.016 69.4005 141.695 69.5584 142.292 69.8742C142.901 70.19 143.375 70.658 143.715 71.2777C144.055 71.8974 144.224 72.6461 144.224 73.5233V79.225H142.239V73.8215C142.239 72.9563 142.023 72.2952 141.589 71.8391C141.157 71.371 140.565 71.1373 139.815 71.1373C139.066 71.1373 138.469 71.371 138.024 71.8391C137.591 72.2952 137.374 72.9563 137.374 73.8215V79.225H135.371V69.5584H137.374V70.6637C137.702 70.2658 138.118 69.9563 138.621 69.7338C139.137 69.5114 139.681 69.4005 140.255 69.4005Z" fill="#353535"/>
<path d="M93.7826 280.352H43.5963C40.8246 280.352 38.5776 282.596 38.5776 285.364V302.908C38.5776 305.676 40.8246 307.92 43.5963 307.92H93.7826C96.5543 307.92 98.8012 305.676 98.8012 302.908V285.364C98.8012 282.596 96.5543 280.352 93.7826 280.352Z" fill="#A0A0A0"/>
<path d="M162.789 280.352H112.602C109.831 280.352 107.584 282.596 107.584 285.364V302.908C107.584 305.676 109.831 307.92 112.602 307.92H162.789C165.56 307.92 167.807 305.676 167.807 302.908V285.364C167.807 282.596 165.56 280.352 162.789 280.352Z" fill="#4C75A4"/>
<g filter="url(#filter1_d_236_54)">
<path d="M245.596 171.33H74.9627C72.191 171.33 69.9441 173.574 69.9441 176.342V202.658C69.9441 205.426 72.191 207.67 74.9627 207.67H245.596C248.368 207.67 250.615 205.426 250.615 202.658V176.342C250.615 173.574 248.368 171.33 245.596 171.33Z" fill="#F9F9FB"/>
<path d="M90.3322 182.647C89.5744 182.647 88.9596 183.261 88.9596 184.018V186.563H86.4114C85.6536 186.563 85.0388 187.177 85.0388 187.934V191.066C85.0388 191.823 85.6536 192.437 86.4114 192.437H88.9596V194.982C88.9596 195.739 89.5744 196.353 90.3322 196.353H93.4689C94.2267 196.353 94.8415 195.739 94.8415 194.982V192.437H97.3897C98.1475 192.437 98.7623 191.823 98.7623 191.066V187.934C98.7623 187.177 98.1475 186.563 97.3897 186.563H94.8415V184.018C94.8415 183.261 94.2267 182.647 93.4689 182.647H90.3322Z" fill="#4C75A4"/>
<path d="M236.186 180.728H114.485C113.445 180.728 112.603 181.57 112.603 182.608V186.367C112.603 187.405 113.445 188.247 114.485 188.247H236.186C237.226 188.247 238.068 187.405 238.068 186.367V182.608C238.068 181.57 237.226 180.728 236.186 180.728Z" fill="black" fill-opacity="0.2"/>
<path d="M236.186 193.886H114.485C113.445 193.886 112.603 194.728 112.603 195.766V199.525C112.603 200.563 113.445 201.405 114.485 201.405H236.186C237.226 201.405 238.068 200.563 238.068 199.525V195.766C238.068 194.728 237.226 193.886 236.186 193.886Z" fill="black" fill-opacity="0.2"/>
</g>
<g filter="url(#filter2_d_236_54)">
<path d="M194.155 119.325H60.5343C57.7625 119.325 55.5156 121.569 55.5156 124.338V150.653C55.5156 153.421 57.7625 155.666 60.5343 155.666H194.155C196.927 155.666 199.174 153.421 199.174 150.653V124.338C199.174 121.569 196.927 119.325 194.155 119.325Z" fill="#F9F9FB"/>
<path d="M83.5498 128.723C84.524 128.723 85.3138 129.512 85.3138 130.485V139.496C85.3138 140.47 84.524 141.258 83.5498 141.258H71.3947C70.4204 141.258 69.6306 140.47 69.6306 139.496V130.485C69.6306 129.512 70.4204 128.723 71.3947 128.723H83.5498ZM75.7082 135.381H72.963C72.6656 135.381 72.4197 135.602 72.3808 135.888L72.3752 135.968V136.353L72.3815 136.438C72.5088 137.31 73.2396 137.731 74.3356 137.731C75.3795 137.731 76.0915 137.35 76.2678 136.56L76.2897 136.439L76.296 136.354V135.968C76.296 135.671 76.0745 135.425 75.7879 135.386L75.7082 135.381ZM81.9815 135.769H78.454L78.3743 135.775C78.0876 135.814 77.8662 136.059 77.8662 136.357C77.8662 136.654 78.0876 136.899 78.3743 136.939L78.454 136.944H81.9815L82.0611 136.939C82.3478 136.899 82.5693 136.654 82.5693 136.357C82.5693 136.059 82.3478 135.814 82.0611 135.775L81.9815 135.769ZM74.3356 132.25C73.6857 132.25 73.1593 132.775 73.1593 133.425C73.1593 134.073 73.6857 134.599 74.3356 134.599C74.9855 134.599 75.5118 134.073 75.5118 133.425C75.5118 132.775 74.9855 132.25 74.3356 132.25ZM81.9815 133.031H78.454L78.3743 133.037C78.0876 133.076 77.8662 133.321 77.8662 133.618C77.8662 133.916 78.0876 134.161 78.3743 134.201L78.454 134.206H81.9815L82.0611 134.201C82.3478 134.161 82.5693 133.916 82.5693 133.618C82.5693 133.321 82.3478 133.076 82.0611 133.037L81.9815 133.031Z" fill="#4C75A4"/>
<path d="M184.745 128.723H94.4101C93.3707 128.723 92.5281 129.565 92.5281 130.603V134.363C92.5281 135.401 93.3707 136.242 94.4101 136.242H184.745C185.785 136.242 186.627 135.401 186.627 134.363V130.603C186.627 129.565 185.785 128.723 184.745 128.723Z" fill="black" fill-opacity="0.2"/>
<path d="M184.745 141.881H94.4101C93.3707 141.881 92.5281 142.723 92.5281 143.761V147.52C92.5281 148.558 93.3707 149.4 94.4101 149.4H184.745C185.785 149.4 186.627 148.558 186.627 147.52V143.761C186.627 142.723 185.785 141.881 184.745 141.881Z" fill="black" fill-opacity="0.2"/>
</g>
<g filter="url(#filter3_d_236_54)">
<path d="M230.54 223.334H90.6461C87.8744 223.334 85.6274 225.579 85.6274 228.347V254.662C85.6274 257.431 87.8744 259.675 90.6461 259.675H230.54C233.312 259.675 235.559 257.431 235.559 254.662V228.347C235.559 225.579 233.312 223.334 230.54 223.334Z" fill="#F9F9FB"/>
<path d="M107.584 233.671C111.916 233.671 115.427 237.178 115.427 241.504C115.427 245.83 111.916 249.337 107.584 249.337C103.253 249.337 99.7412 245.83 99.7412 241.504C99.7412 237.178 103.253 233.671 107.584 233.671ZM107.581 240.133C107.179 240.133 106.848 240.436 106.803 240.825L106.797 240.917L106.801 245.226L106.806 245.317C106.851 245.706 107.183 246.008 107.585 246.008C107.987 246.008 108.319 245.705 108.363 245.316L108.369 245.225L108.366 240.916L108.361 240.824C108.315 240.435 107.983 240.133 107.581 240.133ZM107.585 237.196C107.043 237.196 106.603 237.635 106.603 238.176C106.603 238.718 107.043 239.157 107.585 239.157C108.127 239.157 108.566 238.718 108.566 238.176C108.566 237.635 108.127 237.196 107.585 237.196Z" fill="#4C75A4"/>
<path d="M221.131 232.733H124.522C123.482 232.733 122.64 233.574 122.64 234.612V238.372C122.64 239.41 123.482 240.252 124.522 240.252H221.131C222.17 240.252 223.013 239.41 223.013 238.372V234.612C223.013 233.574 222.17 232.733 221.131 232.733Z" fill="black" fill-opacity="0.2"/>
<path d="M221.131 245.891H124.522C123.482 245.891 122.64 246.732 122.64 247.77V251.53C122.64 252.568 123.482 253.409 124.522 253.409H221.131C222.17 253.409 223.013 252.568 223.013 251.53V247.77C223.013 246.732 222.17 245.891 221.131 245.891Z" fill="black" fill-opacity="0.2"/>
</g>
<defs>
<filter id="filter0_d_236_54" x="0.38501" y="0.954681" width="205.615" height="339.497" filterUnits="userSpaceOnUse" color-interpolation-filters="sRGB">
<feFlood flood-opacity="0" result="BackgroundImageFix"/>
<feColorMatrix in="SourceAlpha" type="matrix" values="0 0 0 0 0 0 0 0 0 0 0 0 0 0 0 0 0 0 127 0" result="hardAlpha"/>
<feOffset/>
<feGaussianBlur stdDeviation="10"/>
<feComposite in2="hardAlpha" operator="out"/>
<feColorMatrix type="matrix" values="0 0 0 0 0 0 0 0 0 0 0 0 0 0 0 0 0 0 0.25 0"/>
<feBlend mode="normal" in2="BackgroundImageFix" result="effect1_dropShadow_236_54"/>
<feBlend mode="normal" in="SourceGraphic" in2="effect1_dropShadow_236_54" result="shape"/>
</filter>
<filter id="filter1_d_236_54" x="59.9441" y="161.33" width="200.671" height="56.3406" filterUnits="userSpaceOnUse" color-interpolation-filters="sRGB">
<feFlood flood-opacity="0" result="BackgroundImageFix"/>
<feColorMatrix in="SourceAlpha" type="matrix" values="0 0 0 0 0 0 0 0 0 0 0 0 0 0 0 0 0 0 127 0" result="hardAlpha"/>
<feOffset/>
<feGaussianBlur stdDeviation="5"/>
<feComposite in2="hardAlpha" operator="out"/>
<feColorMatrix type="matrix" values="0 0 0 0 0 0 0 0 0 0 0 0 0 0 0 0 0 0 0.4 0"/>
<feBlend mode="normal" in2="BackgroundImageFix" result="effect1_dropShadow_236_54"/>
<feBlend mode="normal" in="SourceGraphic" in2="effect1_dropShadow_236_54" result="shape"/>
</filter>
<filter id="filter2_d_236_54" x="45.5156" y="109.325" width="163.658" height="56.3406" filterUnits="userSpaceOnUse" color-interpolation-filters="sRGB">
<feFlood flood-opacity="0" result="BackgroundImageFix"/>
<feColorMatrix in="SourceAlpha" type="matrix" values="0 0 0 0 0 0 0 0 0 0 0 0 0 0 0 0 0 0 127 0" result="hardAlpha"/>
<feOffset/>
<feGaussianBlur stdDeviation="5"/>
<feComposite in2="hardAlpha" operator="out"/>
<feColorMatrix type="matrix" values="0 0 0 0 0 0 0 0 0 0 0 0 0 0 0 0 0 0 0.4 0"/>
<feBlend mode="normal" in2="BackgroundImageFix" result="effect1_dropShadow_236_54"/>
<feBlend mode="normal" in="SourceGraphic" in2="effect1_dropShadow_236_54" result="shape"/>
</filter>
<filter id="filter3_d_236_54" x="75.6274" y="213.334" width="169.932" height="56.3406" filterUnits="userSpaceOnUse" color-interpolation-filters="sRGB">
<feFlood flood-opacity="0" result="BackgroundImageFix"/>
<feColorMatrix in="SourceAlpha" type="matrix" values="0 0 0 0 0 0 0 0 0 0 0 0 0 0 0 0 0 0 127 0" result="hardAlpha"/>
<feOffset/>
<feGaussianBlur stdDeviation="5"/>
<feComposite in2="hardAlpha" operator="out"/>
<feColorMatrix type="matrix" values="0 0 0 0 0 0 0 0 0 0 0 0 0 0 0 0 0 0 0.4 0"/>
<feBlend mode="normal" in2="BackgroundImageFix" result="effect1_dropShadow_236_54"/>
<feBlend mode="normal" in="SourceGraphic" in2="effect1_dropShadow_236_54" result="shape"/>
</filter>
</defs>
</svg>
