<svg width="303" height="401" viewBox="0 0 303 401" fill="none" xmlns="http://www.w3.org/2000/svg">
<g filter="url(#filter0_d_40_795)">
<path d="M191.963 31.9547H46.4224C40.8789 31.9547 36.3851 36.443 36.3851 41.9797V321.427C36.3851 326.963 40.8789 331.452 46.4224 331.452H191.963C197.506 331.452 202 326.963 202 321.427V41.9797C202 36.443 197.506 31.9547 191.963 31.9547Z" fill="#F9F9FB"/>
</g>
<path d="M62.4293 57.6463C63.0848 57.7632 63.6413 58.1082 64.098 58.6813C64.5547 59.2545 64.783 59.9036 64.783 60.6287C64.783 61.2486 64.6193 61.81 64.2912 62.3129C63.975 62.8041 63.5127 63.1957 62.9036 63.4883C62.2946 63.769 61.5862 63.9094 60.7782 63.9094H55.895V51.7165H60.5498C61.3812 51.7165 62.0956 51.8568 62.6928 52.1375C63.29 52.4182 63.741 52.7984 64.0453 53.2779C64.3495 53.7457 64.502 54.272 64.502 54.8568C64.502 55.5586 64.3144 56.1433 63.9399 56.6112C63.5654 57.079 63.0616 57.424 62.4293 57.6463ZM57.8975 56.8392H60.3742C61.0299 56.8392 61.5393 56.6931 61.9023 56.4007C62.277 56.0966 62.4644 55.6638 62.4644 55.1024C62.4644 54.5527 62.277 54.1258 61.9023 53.8217C61.5393 53.5059 61.0299 53.348 60.3742 53.348H57.8975V56.8392ZM60.6025 62.2778C61.2817 62.2778 61.8145 62.1141 62.2009 61.7866C62.5874 61.4591 62.7806 61.0029 62.7806 60.4182C62.7806 59.8217 62.5756 59.348 62.1658 58.9971C61.756 58.6463 61.2115 58.4708 60.5322 58.4708H57.8975V62.2778H60.6025ZM71.1573 64.0673C70.2439 64.0673 69.4184 63.8624 68.6806 63.4532C67.9429 63.0322 67.3632 62.4474 66.9417 61.6989C66.5201 60.9387 66.3093 60.0615 66.3093 59.0673C66.3093 58.0849 66.5258 57.2135 66.9592 56.4533C67.3921 55.6931 67.9837 55.1082 68.7333 54.6989C69.4824 54.2896 70.3198 54.0849 71.2451 54.0849C72.1698 54.0849 73.0073 54.2896 73.757 54.6989C74.506 55.1082 75.0976 55.6931 75.5311 56.4533C75.9639 57.2135 76.181 58.0849 76.181 59.0673C76.181 60.0498 75.9583 60.9211 75.5135 61.6813C75.0681 62.4415 74.4596 63.0322 73.6867 63.4532C72.9251 63.8624 72.082 64.0673 71.1573 64.0673ZM71.1573 62.3304C71.6724 62.3304 72.1523 62.2076 72.5977 61.962C73.0544 61.7164 73.4232 61.348 73.7043 60.8568C73.9853 60.3655 74.1258 59.7691 74.1258 59.0673C74.1258 58.3656 73.991 57.7749 73.7218 57.2954C73.4521 56.8042 73.0951 56.4357 72.6504 56.1901C72.205 55.9445 71.7251 55.8217 71.21 55.8217C70.6944 55.8217 70.2144 55.9445 69.7697 56.1901C69.3362 56.4357 68.9905 56.8042 68.7333 57.2954C68.4755 57.7749 68.3469 58.3656 68.3469 59.0673C68.3469 60.1082 68.6104 60.9152 69.1373 61.4883C69.6756 62.0497 70.3493 62.3304 71.1573 62.3304ZM82.3583 64.0673C81.4449 64.0673 80.6193 63.8624 79.8816 63.4532C79.1438 63.0322 78.5642 62.4474 78.1426 61.6989C77.7211 60.9387 77.5103 60.0615 77.5103 59.0673C77.5103 58.0849 77.7273 57.2135 78.1602 56.4533C78.5937 55.6931 79.1853 55.1082 79.9343 54.6989C80.6839 54.2896 81.5214 54.0849 82.4461 54.0849C83.3714 54.0849 84.2089 54.2896 84.9579 54.6989C85.7076 55.1082 86.2992 55.6931 86.732 56.4533C87.1655 57.2135 87.3819 58.0849 87.3819 59.0673C87.3819 60.0498 87.1599 60.9211 86.7145 61.6813C86.2697 62.4415 85.6605 63.0322 84.8877 63.4532C84.1267 63.8624 83.2836 64.0673 82.3583 64.0673ZM82.3583 62.3304C82.8739 62.3304 83.3539 62.2076 83.7986 61.962C84.2553 61.7164 84.6242 61.348 84.9052 60.8568C85.1863 60.3655 85.3268 59.7691 85.3268 59.0673C85.3268 58.3656 85.1926 57.7749 84.9228 57.2954C84.6537 56.8042 84.2967 56.4357 83.8513 56.1901C83.4066 55.9445 82.9266 55.8217 82.411 55.8217C81.8959 55.8217 81.416 55.9445 80.9706 56.1901C80.5378 56.4357 80.1921 56.8042 79.9343 57.2954C79.6771 57.7749 79.5478 58.3656 79.5478 59.0673C79.5478 60.1082 79.8113 60.9152 80.3383 61.4883C80.8772 62.0497 81.5503 62.3304 82.3583 62.3304ZM93.191 59.0848L97.6526 63.9094H94.9475L91.3642 59.7515V63.9094H89.3618V50.927H91.3642V58.4708L94.8773 54.2428H97.6526L93.191 59.0848ZM112.363 54.2428L106.426 68.4532H104.353L106.32 63.7515L102.509 54.2428H104.74L107.462 61.6111L110.29 54.2428H112.363ZM118.072 64.0673C117.159 64.0673 116.333 63.8624 115.595 63.4532C114.858 63.0322 114.278 62.4474 113.856 61.6989C113.435 60.9387 113.224 60.0615 113.224 59.0673C113.224 58.0849 113.441 57.2135 113.874 56.4533C114.308 55.6931 114.898 55.1082 115.648 54.6989C116.398 54.2896 117.235 54.0849 118.16 54.0849C119.085 54.0849 119.922 54.2896 120.672 54.6989C121.421 55.1082 122.012 55.6931 122.446 56.4533C122.879 57.2135 123.096 58.0849 123.096 59.0673C123.096 60.0498 122.873 60.9211 122.428 61.6813C121.984 62.4415 121.374 63.0322 120.602 63.4532C119.841 63.8624 118.997 64.0673 118.072 64.0673ZM118.072 62.3304C118.587 62.3304 119.068 62.2076 119.512 61.962C119.969 61.7164 120.338 61.348 120.619 60.8568C120.9 60.3655 121.041 59.7691 121.041 59.0673C121.041 58.3656 120.906 57.7749 120.637 57.2954C120.368 56.8042 120.01 56.4357 119.565 56.1901C119.12 55.9445 118.64 55.8217 118.125 55.8217C117.61 55.8217 117.129 55.9445 116.684 56.1901C116.251 56.4357 115.906 56.8042 115.648 57.2954C115.39 57.7749 115.262 58.3656 115.262 59.0673C115.262 60.1082 115.525 60.9152 116.052 61.4883C116.591 62.0497 117.264 62.3304 118.072 62.3304ZM133.84 54.2428V63.9094H131.838V62.769C131.521 63.1669 131.106 63.4827 130.59 63.7164C130.087 63.9388 129.548 64.0497 128.974 64.0497C128.214 64.0497 127.528 63.8918 126.919 63.576C126.322 63.2603 125.848 62.7922 125.497 62.1725C125.157 61.5527 124.987 60.8041 124.987 59.9269V54.2428H126.972V59.6287C126.972 60.4942 127.189 61.1608 127.622 61.6287C128.055 62.0848 128.647 62.3129 129.396 62.3129C130.146 62.3129 130.737 62.0848 131.17 61.6287C131.616 61.1608 131.838 60.4942 131.838 59.6287V54.2428H133.84ZM138.485 55.6463C138.778 55.155 139.164 54.7749 139.644 54.5059C140.136 54.2252 140.716 54.0849 141.383 54.0849V56.155H140.874C140.089 56.155 139.492 56.3538 139.082 56.7515C138.684 57.1492 138.485 57.8392 138.485 58.8217V63.9094H136.482V54.2428H138.485V55.6463ZM66.4166 78.0321L61.8321 90.225H59.5135L54.9114 78.0321H57.0543L60.6728 88.1724L64.3088 78.0321H66.4166ZM67.4235 85.3478C67.4235 84.3773 67.6229 83.5177 68.0207 82.7689C68.431 82.0202 68.9811 81.4412 69.6718 81.0321C70.3744 80.611 71.1473 80.4005 71.9904 80.4005C72.752 80.4005 73.4132 80.5528 73.9753 80.8566C74.5493 81.1493 75.006 81.5177 75.3454 81.9619V80.5584H77.3654V90.225H75.3454V88.7864C75.006 89.2425 74.5436 89.6229 73.9577 89.9268C73.3724 90.2306 72.7049 90.3829 71.9553 90.3829C71.1241 90.3829 70.3631 90.1724 69.6718 89.7513C68.9811 89.3184 68.431 88.7219 68.0207 87.9619C67.6229 87.1899 67.4235 86.3184 67.4235 85.3478ZM75.3454 85.3829C75.3454 84.7163 75.2048 84.1373 74.9238 83.6461C74.6547 83.1549 74.2977 82.7808 73.8523 82.5233C73.4076 82.2658 72.9276 82.1373 72.412 82.1373C71.8969 82.1373 71.417 82.2658 70.9716 82.5233C70.5269 82.7689 70.1636 83.1373 69.8826 83.6286C69.6135 84.1079 69.4786 84.6812 69.4786 85.3478C69.4786 86.0145 69.6135 86.5991 69.8826 87.1022C70.1636 87.6054 70.5269 87.9913 70.9716 88.2601C71.4283 88.5176 71.9089 88.6461 72.412 88.6461C72.9276 88.6461 73.4076 88.5176 73.8523 88.2601C74.2977 88.0026 74.6547 87.6285 74.9238 87.1373C75.2048 86.6342 75.3454 86.0496 75.3454 85.3829ZM79.3283 85.3829C79.3283 84.3886 79.5271 83.5177 79.9255 82.7689C80.3351 82.0089 80.8972 81.4237 81.6118 81.0145C82.3263 80.6054 83.1456 80.4005 84.0709 80.4005C85.2421 80.4005 86.2082 80.6812 86.9692 81.2426C87.742 81.7921 88.2633 82.5816 88.5325 83.611H86.3719C86.1963 83.1317 85.9152 82.757 85.5288 82.4882C85.1424 82.2194 84.6562 82.0847 84.0709 82.0847C83.251 82.0847 82.5954 82.3773 82.1036 82.9619C81.6237 83.5352 81.3834 84.3422 81.3834 85.3829C81.3834 86.4237 81.6237 87.2369 82.1036 87.8215C82.5954 88.4061 83.251 88.6987 84.0709 88.6987C85.2302 88.6987 85.9974 88.1899 86.3719 87.1724H88.5325C88.2514 88.1548 87.7245 88.9387 86.9516 89.5233C86.1787 90.0966 85.2183 90.3829 84.0709 90.3829C83.1456 90.3829 82.3263 90.178 81.6118 89.7689C80.8972 89.3478 80.3351 88.7632 79.9255 88.0145C79.5271 87.2545 79.3283 86.3773 79.3283 85.3829ZM89.8605 85.3829C89.8605 84.3886 90.0594 83.5177 90.4577 82.7689C90.8674 82.0089 91.4295 81.4237 92.144 81.0145C92.8585 80.6054 93.6778 80.4005 94.6031 80.4005C95.7743 80.4005 96.7404 80.6812 97.5014 81.2426C98.2743 81.7921 98.7956 82.5816 99.0647 83.611H96.9042C96.7285 83.1317 96.4475 82.757 96.061 82.4882C95.6746 82.2194 95.1884 82.0847 94.6031 82.0847C93.7832 82.0847 93.1276 82.3773 92.6358 82.9619C92.1559 83.5352 91.9156 84.3422 91.9156 85.3829C91.9156 86.4237 92.1559 87.2369 92.6358 87.8215C93.1276 88.4061 93.7832 88.6987 94.6031 88.6987C95.7624 88.6987 96.5296 88.1899 96.9042 87.1724H99.0647C98.7836 88.1548 98.2567 88.9387 97.4838 89.5233C96.711 90.0966 95.7505 90.3829 94.6031 90.3829C93.6778 90.3829 92.8585 90.178 92.144 89.7689C91.4295 89.3478 90.8674 88.7632 90.4577 88.0145C90.0594 87.2545 89.8605 86.3773 89.8605 85.3829ZM102.079 79.2777C101.716 79.2777 101.412 79.1549 101.166 78.9093C100.92 78.6637 100.797 78.3598 100.797 77.997C100.797 77.6342 100.92 77.3303 101.166 77.0847C101.412 76.8391 101.716 76.7163 102.079 76.7163C102.43 76.7163 102.729 76.8391 102.975 77.0847C103.221 77.3303 103.344 77.6342 103.344 77.997C103.344 78.3598 103.221 78.6637 102.975 78.9093C102.729 79.1549 102.43 79.2777 102.079 79.2777ZM103.063 80.5584V90.225H101.06V80.5584H103.063ZM110.575 80.4005C111.336 80.4005 112.015 80.5584 112.612 80.8742C113.222 81.19 113.696 81.658 114.035 82.2777C114.375 82.8974 114.545 83.6461 114.545 84.5233V90.225H112.56V84.8215C112.56 83.9563 112.343 83.2952 111.91 82.8391C111.476 82.371 110.885 82.1373 110.136 82.1373C109.386 82.1373 108.789 82.371 108.344 82.8391C107.911 83.2952 107.694 83.9563 107.694 84.8215V90.225H105.692V80.5584H107.694V81.6637C108.022 81.2658 108.438 80.9563 108.941 80.7338C109.456 80.5114 110.001 80.4005 110.575 80.4005ZM116.432 85.3478C116.432 84.3773 116.631 83.5177 117.029 82.7689C117.439 82.0202 117.989 81.4412 118.68 81.0321C119.383 80.611 120.155 80.4005 120.999 80.4005C121.76 80.4005 122.421 80.5528 122.983 80.8566C123.557 81.1493 124.014 81.5177 124.354 81.9619V80.5584H126.374V90.225H124.354V88.7864C124.014 89.2425 123.551 89.6229 122.966 89.9268C122.38 90.2306 121.713 90.3829 120.963 90.3829C120.132 90.3829 119.371 90.1724 118.68 89.7513C117.989 89.3184 117.439 88.7219 117.029 87.9619C116.631 87.1899 116.432 86.3184 116.432 85.3478ZM124.354 85.3829C124.354 84.7163 124.213 84.1373 123.932 83.6461C123.662 83.1549 123.305 82.7808 122.861 82.5233C122.415 82.2658 121.935 82.1373 121.42 82.1373C120.905 82.1373 120.425 82.2658 119.98 82.5233C119.534 82.7689 119.172 83.1373 118.891 83.6286C118.621 84.1079 118.487 84.6812 118.487 85.3478C118.487 86.0145 118.621 86.5991 118.891 87.1022C119.172 87.6054 119.534 87.9913 119.98 88.2601C120.437 88.5176 120.916 88.6461 121.42 88.6461C121.935 88.6461 122.415 88.5176 122.861 88.2601C123.305 88.0026 123.662 87.6285 123.932 87.1373C124.213 86.6342 124.354 86.0496 124.354 85.3829ZM131.34 82.19V87.5408C131.34 87.9036 131.422 88.1667 131.585 88.3303C131.761 88.4825 132.054 88.5583 132.464 88.5583H133.693V90.225H132.112C131.211 90.225 130.52 90.0145 130.04 89.5934C129.56 89.1724 129.32 88.4882 129.32 87.5408V82.19H128.178V80.5584H129.32V78.1549H131.34V80.5584H133.693V82.19H131.34ZM136.558 79.2777C136.194 79.2777 135.89 79.1549 135.644 78.9093C135.398 78.6637 135.275 78.3598 135.275 77.997C135.275 77.6342 135.398 77.3303 135.644 77.0847C135.89 76.8391 136.194 76.7163 136.558 76.7163C136.909 76.7163 137.208 76.8391 137.453 77.0847C137.699 77.3303 137.822 77.6342 137.822 77.997C137.822 78.3598 137.699 78.6637 137.453 78.9093C137.208 79.1549 136.909 79.2777 136.558 79.2777ZM137.541 80.5584V90.225H135.539V80.5584H137.541ZM144.369 90.3829C143.455 90.3829 142.63 90.178 141.892 89.7689C141.154 89.3478 140.574 88.7632 140.153 88.0145C139.731 87.2545 139.521 86.3773 139.521 85.3829C139.521 84.4005 139.737 83.5289 140.17 82.7689C140.604 82.0089 141.195 81.4237 141.945 81.0145C142.694 80.6054 143.531 80.4005 144.456 80.4005C145.382 80.4005 146.219 80.6054 146.968 81.0145C147.718 81.4237 148.309 82.0089 148.742 82.7689C149.176 83.5289 149.392 84.4005 149.392 85.3829C149.392 86.3654 149.169 87.2369 148.725 87.9969C148.28 88.757 147.671 89.3478 146.898 89.7689C146.137 90.178 145.294 90.3829 144.369 90.3829ZM144.369 88.6461C144.884 88.6461 145.364 88.5233 145.809 88.2776C146.266 88.032 146.634 87.6636 146.915 87.1724C147.197 86.6812 147.337 86.0847 147.337 85.3829C147.337 84.6812 147.202 84.0903 146.933 83.611C146.664 83.1198 146.306 82.7514 145.862 82.5058C145.417 82.2601 144.936 82.1373 144.421 82.1373C143.906 82.1373 143.426 82.2601 142.981 82.5058C142.547 82.7514 142.202 83.1198 141.945 83.611C141.687 84.0903 141.558 84.6812 141.558 85.3829C141.558 86.4237 141.822 87.2307 142.349 87.804C142.887 88.3654 143.561 88.6461 144.369 88.6461ZM156.255 80.4005C157.016 80.4005 157.695 80.5584 158.292 80.8742C158.901 81.19 159.375 81.658 159.715 82.2777C160.055 82.8974 160.224 83.6461 160.224 84.5233V90.225H158.239V84.8215C158.239 83.9563 158.023 83.2952 157.589 82.8391C157.157 82.371 156.565 82.1373 155.815 82.1373C155.066 82.1373 154.469 82.371 154.024 82.8391C153.591 83.2952 153.374 83.9563 153.374 84.8215V90.225H151.371V80.5584H153.374V81.6637C153.702 81.2658 154.118 80.9563 154.621 80.7338C155.137 80.5114 155.681 80.4005 156.255 80.4005Z" fill="#353535"/>
<path d="M109.783 291.352H59.5963C56.8246 291.352 54.5776 293.596 54.5776 296.364V313.908C54.5776 316.676 56.8246 318.92 59.5963 318.92H109.783C112.554 318.92 114.801 316.676 114.801 313.908V296.364C114.801 293.596 112.554 291.352 109.783 291.352Z" fill="#A0A0A0"/>
<path d="M178.789 291.352H128.602C125.831 291.352 123.584 293.596 123.584 296.364V313.908C123.584 316.676 125.831 318.92 128.602 318.92H178.789C181.561 318.92 183.807 316.676 183.807 313.908V296.364C183.807 293.596 181.561 291.352 178.789 291.352Z" fill="#4C75A4"/>
<g filter="url(#filter1_d_40_795)">
<path d="M261.596 182.33H90.9627C88.191 182.33 85.9441 184.574 85.9441 187.342V213.658C85.9441 216.426 88.191 218.67 90.9627 218.67H261.596C264.368 218.67 266.615 216.426 266.615 213.658V187.342C266.615 184.574 264.368 182.33 261.596 182.33Z" fill="#F9F9FB"/>
<path d="M106.332 193.647C105.574 193.647 104.96 194.261 104.96 195.018V197.563H102.411C101.654 197.563 101.039 198.177 101.039 198.934V202.066C101.039 202.823 101.654 203.437 102.411 203.437H104.96V205.982C104.96 206.739 105.574 207.353 106.332 207.353H109.469C110.227 207.353 110.842 206.739 110.842 205.982V203.437H113.39C114.148 203.437 114.762 202.823 114.762 202.066V198.934C114.762 198.177 114.148 197.563 113.39 197.563H110.842V195.018C110.842 194.261 110.227 193.647 109.469 193.647H106.332Z" fill="#4C75A4"/>
<path d="M252.186 191.728H130.484C129.445 191.728 128.602 192.57 128.602 193.608V197.367C128.602 198.405 129.445 199.247 130.484 199.247H252.186C253.226 199.247 254.068 198.405 254.068 197.367V193.608C254.068 192.57 253.226 191.728 252.186 191.728Z" fill="black" fill-opacity="0.2"/>
<path d="M252.186 204.886H130.484C129.445 204.886 128.602 205.728 128.602 206.766V210.525C128.602 211.563 129.445 212.405 130.484 212.405H252.186C253.226 212.405 254.068 211.563 254.068 210.525V206.766C254.068 205.728 253.226 204.886 252.186 204.886Z" fill="black" fill-opacity="0.2"/>
</g>
<g filter="url(#filter2_d_40_795)">
<path d="M210.155 130.325H76.5342C73.7624 130.325 71.5155 132.569 71.5155 135.337V161.653C71.5155 164.421 73.7624 166.666 76.5342 166.666H210.155C212.927 166.666 215.174 164.421 215.174 161.653V135.337C215.174 132.569 212.927 130.325 210.155 130.325Z" fill="#F9F9FB"/>
<path d="M99.5496 139.723C100.524 139.723 101.314 140.512 101.314 141.485V150.496C101.314 151.47 100.524 152.258 99.5496 152.258H87.3945C86.4202 152.258 85.6304 151.47 85.6304 150.496V141.485C85.6304 140.512 86.4202 139.723 87.3945 139.723H99.5496ZM91.708 146.381H88.9628C88.6654 146.381 88.4195 146.602 88.3806 146.888L88.375 146.968V147.353L88.3813 147.438C88.5086 148.31 89.2395 148.731 90.3354 148.731C91.3793 148.731 92.0913 148.35 92.2676 147.56L92.2895 147.439L92.2958 147.354V146.968C92.2958 146.671 92.0744 146.425 91.7877 146.386L91.708 146.381ZM97.9813 146.769H94.4538L94.3741 146.775C94.0875 146.814 93.866 147.059 93.866 147.357C93.866 147.654 94.0875 147.899 94.3741 147.939L94.4538 147.944H97.9813L98.061 147.939C98.3477 147.899 98.5691 147.654 98.5691 147.357C98.5691 147.059 98.3477 146.814 98.061 146.775L97.9813 146.769ZM90.3354 143.25C89.6855 143.25 89.1592 143.775 89.1592 144.425C89.1592 145.073 89.6855 145.599 90.3354 145.599C90.9853 145.599 91.5116 145.073 91.5116 144.425C91.5116 143.775 90.9853 143.25 90.3354 143.25ZM97.9813 144.031H94.4538L94.3741 144.037C94.0875 144.076 93.866 144.321 93.866 144.618C93.866 144.916 94.0875 145.161 94.3741 145.201L94.4538 145.206H97.9813L98.061 145.201C98.3477 145.161 98.5691 144.916 98.5691 144.618C98.5691 144.321 98.3477 144.076 98.061 144.037L97.9813 144.031Z" fill="#4C75A4"/>
<path d="M200.745 139.723H110.41C109.371 139.723 108.528 140.565 108.528 141.603V145.363C108.528 146.401 109.371 147.242 110.41 147.242H200.745C201.785 147.242 202.627 146.401 202.627 145.363V141.603C202.627 140.565 201.785 139.723 200.745 139.723Z" fill="black" fill-opacity="0.2"/>
<path d="M200.745 152.881H110.41C109.371 152.881 108.528 153.723 108.528 154.761V158.52C108.528 159.558 109.371 160.4 110.41 160.4H200.745C201.785 160.4 202.627 159.558 202.627 158.52V154.761C202.627 153.723 201.785 152.881 200.745 152.881Z" fill="black" fill-opacity="0.2"/>
</g>
<g filter="url(#filter3_d_40_795)">
<path d="M246.54 234.334H106.646C103.874 234.334 101.627 236.579 101.627 239.347V265.662C101.627 268.431 103.874 270.675 106.646 270.675H246.54C249.312 270.675 251.559 268.431 251.559 265.662V239.347C251.559 236.579 249.312 234.334 246.54 234.334Z" fill="#F9F9FB"/>
<path d="M123.584 244.671C127.916 244.671 131.427 248.178 131.427 252.504C131.427 256.83 127.916 260.337 123.584 260.337C119.253 260.337 115.741 256.83 115.741 252.504C115.741 248.178 119.253 244.671 123.584 244.671ZM123.581 251.133C123.179 251.133 122.847 251.436 122.803 251.825L122.797 251.917L122.8 256.226L122.805 256.317C122.851 256.706 123.183 257.008 123.585 257.008C123.987 257.008 124.318 256.705 124.363 256.316L124.369 256.225L124.366 251.916L124.36 251.824C124.315 251.435 123.983 251.133 123.581 251.133ZM123.584 248.196C123.042 248.196 122.603 248.635 122.603 249.176C122.603 249.718 123.042 250.157 123.584 250.157C124.126 250.157 124.566 249.718 124.566 249.176C124.566 248.635 124.126 248.196 123.584 248.196Z" fill="#4C75A4"/>
<path d="M237.13 243.733H140.522C139.482 243.733 138.64 244.574 138.64 245.612V249.372C138.64 250.41 139.482 251.252 140.522 251.252H237.13C238.17 251.252 239.012 250.41 239.012 249.372V245.612C239.012 244.574 238.17 243.733 237.13 243.733Z" fill="black" fill-opacity="0.2"/>
<path d="M237.13 256.891H140.522C139.482 256.891 138.64 257.732 138.64 258.77V262.53C138.64 263.568 139.482 264.409 140.522 264.409H237.13C238.17 264.409 239.012 263.568 239.012 262.53V258.77C239.012 257.732 238.17 256.891 237.13 256.891Z" fill="black" fill-opacity="0.2"/>
</g>
<defs>
<filter id="filter0_d_40_795" x="16.3851" y="11.9547" width="205.615" height="339.497" filterUnits="userSpaceOnUse" color-interpolation-filters="sRGB">
<feFlood flood-opacity="0" result="BackgroundImageFix"/>
<feColorMatrix in="SourceAlpha" type="matrix" values="0 0 0 0 0 0 0 0 0 0 0 0 0 0 0 0 0 0 127 0" result="hardAlpha"/>
<feOffset/>
<feGaussianBlur stdDeviation="10"/>
<feComposite in2="hardAlpha" operator="out"/>
<feColorMatrix type="matrix" values="0 0 0 0 0 0 0 0 0 0 0 0 0 0 0 0 0 0 0.25 0"/>
<feBlend mode="normal" in2="BackgroundImageFix" result="effect1_dropShadow_40_795"/>
<feBlend mode="normal" in="SourceGraphic" in2="effect1_dropShadow_40_795" result="shape"/>
</filter>
<filter id="filter1_d_40_795" x="75.9441" y="172.33" width="200.671" height="56.3406" filterUnits="userSpaceOnUse" color-interpolation-filters="sRGB">
<feFlood flood-opacity="0" result="BackgroundImageFix"/>
<feColorMatrix in="SourceAlpha" type="matrix" values="0 0 0 0 0 0 0 0 0 0 0 0 0 0 0 0 0 0 127 0" result="hardAlpha"/>
<feOffset/>
<feGaussianBlur stdDeviation="5"/>
<feComposite in2="hardAlpha" operator="out"/>
<feColorMatrix type="matrix" values="0 0 0 0 0 0 0 0 0 0 0 0 0 0 0 0 0 0 0.4 0"/>
<feBlend mode="normal" in2="BackgroundImageFix" result="effect1_dropShadow_40_795"/>
<feBlend mode="normal" in="SourceGraphic" in2="effect1_dropShadow_40_795" result="shape"/>
</filter>
<filter id="filter2_d_40_795" x="61.5155" y="120.325" width="163.658" height="56.3406" filterUnits="userSpaceOnUse" color-interpolation-filters="sRGB">
<feFlood flood-opacity="0" result="BackgroundImageFix"/>
<feColorMatrix in="SourceAlpha" type="matrix" values="0 0 0 0 0 0 0 0 0 0 0 0 0 0 0 0 0 0 127 0" result="hardAlpha"/>
<feOffset/>
<feGaussianBlur stdDeviation="5"/>
<feComposite in2="hardAlpha" operator="out"/>
<feColorMatrix type="matrix" values="0 0 0 0 0 0 0 0 0 0 0 0 0 0 0 0 0 0 0.4 0"/>
<feBlend mode="normal" in2="BackgroundImageFix" result="effect1_dropShadow_40_795"/>
<feBlend mode="normal" in="SourceGraphic" in2="effect1_dropShadow_40_795" result="shape"/>
</filter>
<filter id="filter3_d_40_795" x="91.6273" y="224.334" width="169.932" height="56.3406" filterUnits="userSpaceOnUse" color-interpolation-filters="sRGB">
<feFlood flood-opacity="0" result="BackgroundImageFix"/>
<feColorMatrix in="SourceAlpha" type="matrix" values="0 0 0 0 0 0 0 0 0 0 0 0 0 0 0 0 0 0 127 0" result="hardAlpha"/>
<feOffset/>
<feGaussianBlur stdDeviation="5"/>
<feComposite in2="hardAlpha" operator="out"/>
<feColorMatrix type="matrix" values="0 0 0 0 0 0 0 0 0 0 0 0 0 0 0 0 0 0 0.4 0"/>
<feBlend mode="normal" in2="BackgroundImageFix" result="effect1_dropShadow_40_795"/>
<feBlend mode="normal" in="SourceGraphic" in2="effect1_dropShadow_40_795" result="shape"/>
</filter>
</defs>
</svg>
