<svg width="35" height="48" viewBox="0 0 35 48" fill="none" xmlns="http://www.w3.org/2000/svg">
<path d="M34.2045 0H0.795455C0.5845 0 0.382167 0.0842873 0.232972 0.234303C0.0838084 0.384351 0 0.58784 0 0.8V2.72C0.01575 4.39546 0.435018 6.04211 1.22188 7.51898C2.00874 8.99581 3.13982 10.2589 4.51818 11.2L11.1364 15.936C12.4743 16.8256 13.586 18.0189 14.3818 19.4195C16.0478 22.3514 16.0478 25.6486 14.3818 28.5805C13.586 29.9811 12.4743 31.1744 11.1364 32.064L4.51818 36.8C3.13982 37.7411 2.00874 39.0042 1.22188 40.481C0.435018 41.9578 0.01575 43.6045 0 45.28V47.2C0 47.4122 0.0838084 47.6157 0.232972 47.7658C0.382167 47.9158 0.5845 48 0.795455 48H34.2045C34.4155 48 34.6179 47.9158 34.7671 47.7658C34.9163 47.6157 35 47.4122 35 47.2V45.28C34.9844 43.6045 34.565 41.9578 33.7782 40.481C32.9913 39.0042 31.8602 37.7411 30.4818 36.8L23.8636 32.064C22.5257 31.1744 21.414 29.9811 20.6182 28.5805C18.9522 25.6486 18.9522 22.3514 20.6182 19.4195C21.414 18.0189 22.5257 16.8256 23.8636 15.936L30.4818 11.2C31.8602 10.2589 32.9913 8.99581 33.7782 7.51898C34.565 6.04211 34.9844 4.39546 35 2.72V0.8C35 0.58784 34.9163 0.384351 34.7671 0.234303C34.6179 0.0842873 34.4155 0 34.2045 0Z" fill="#F89B61"/>
</svg>
