<svg width="400" height="300" viewBox="0 0 400 300" fill="none" xmlns="http://www.w3.org/2000/svg">
<g clip-path="url(#clip0_272_209)">
<path d="M96.5664 6.16907V14.962H95.1118V8.9398L92.4067 14.962H91.3986L88.6807 8.9398V14.962H87.2261V6.16907H88.7956L91.909 13.0643L95.0097 6.16907H96.5664ZM101.528 15.0759C100.864 15.0759 100.265 14.9283 99.7287 14.6331C99.1928 14.3294 98.7717 13.9077 98.4655 13.3679C98.1592 12.8196 98.0061 12.1871 98.0061 11.4701C98.0061 10.7616 98.1637 10.1333 98.4782 9.58503C98.7933 9.03677 99.2227 8.61509 99.767 8.31986C100.312 8.02464 100.92 7.87705 101.592 7.87705C102.264 7.87705 102.872 8.02464 103.416 8.31986C103.961 8.61509 104.391 9.03677 104.705 9.58503C105.02 10.1333 105.177 10.7616 105.177 11.4701C105.177 12.1786 105.016 12.807 104.692 13.3553C104.369 13.9035 103.927 14.3294 103.365 14.6331C102.813 14.9283 102.2 15.0759 101.528 15.0759ZM101.528 13.8234C101.902 13.8234 102.251 13.7348 102.574 13.5577C102.906 13.3806 103.174 13.1149 103.378 12.7606C103.582 12.4064 103.684 11.9762 103.684 11.4701C103.684 10.9641 103.587 10.5382 103.391 10.1923C103.196 9.83807 102.936 9.57238 102.612 9.39526C102.29 9.21813 101.941 9.12957 101.566 9.12957C101.192 9.12957 100.843 9.21813 100.52 9.39526C100.205 9.57238 99.9545 9.83807 99.767 10.1923C99.58 10.5382 99.4863 10.9641 99.4863 11.4701C99.4863 12.2208 99.6777 12.8028 100.06 13.2161C100.452 13.6209 100.941 13.8234 101.528 13.8234ZM110.163 7.87705C110.716 7.87705 111.209 7.99092 111.643 8.21865C112.085 8.44638 112.43 8.78374 112.676 9.23079C112.923 9.67783 113.046 10.2176 113.046 10.8502V14.962H111.604V11.0653C111.604 10.4411 111.447 9.96459 111.132 9.63564C110.818 9.29828 110.388 9.12957 109.844 9.12957C109.299 9.12957 108.865 9.29828 108.542 9.63564C108.227 9.96459 108.07 10.4411 108.07 11.0653V14.962H106.615V7.99092H108.07V8.78798C108.308 8.50122 108.61 8.27767 108.976 8.11743C109.35 7.9572 109.746 7.87705 110.163 7.87705Z" fill="#F9F9FB"/>
<g filter="url(#filter0_d_272_209)">
<path d="M136.477 36.4149H63.8004C58.898 36.4149 54.9238 40.3554 54.9238 45.2162V285.599C54.9238 290.46 58.898 294.4 63.8004 294.4H136.477C141.38 294.4 145.354 290.46 145.354 285.599V45.2162C145.354 40.3554 141.38 36.4149 136.477 36.4149Z" fill="#F9F9FB"/>
</g>
<path d="M194.204 6.16907V7.34568H191.843V14.962H190.388V7.34568H188.015V6.16907H194.204ZM202.044 7.99092V14.962H200.589V14.1397C200.359 14.4264 200.058 14.6541 199.683 14.8229C199.318 14.9831 198.926 15.0632 198.509 15.0632C197.957 15.0632 197.459 14.9494 197.016 14.7216C196.582 14.4939 196.238 14.1565 195.983 13.7095C195.736 13.2625 195.613 12.7227 195.613 12.0901V7.99092H197.055V11.875C197.055 12.4992 197.212 12.9799 197.527 13.3173C197.842 13.6462 198.271 13.8107 198.815 13.8107C199.36 13.8107 199.79 13.6462 200.104 13.3173C200.428 12.9799 200.589 12.4992 200.589 11.875V7.99092H202.044ZM210.407 11.3057C210.407 11.5671 210.39 11.8033 210.356 12.0142H204.984C205.027 12.5708 205.235 13.0179 205.609 13.3553C205.984 13.6926 206.443 13.8613 206.987 13.8613C207.77 13.8613 208.323 13.5366 208.646 12.8871H210.216C210.003 13.5281 209.616 14.0553 209.055 14.4686C208.501 14.8735 207.812 15.0759 206.987 15.0759C206.316 15.0759 205.711 14.9283 205.176 14.6331C204.648 14.3294 204.231 13.9077 203.925 13.3679C203.627 12.8196 203.478 12.1871 203.478 11.4701C203.478 10.7532 203.623 10.1248 203.912 9.58503C204.21 9.03677 204.622 8.61509 205.15 8.31986C205.686 8.02464 206.298 7.87705 206.987 7.87705C207.651 7.87705 208.242 8.02046 208.761 8.30721C209.28 8.59396 209.684 8.99882 209.973 9.52178C210.262 10.0363 210.407 10.6309 210.407 11.3057ZM208.889 10.8502C208.88 10.3188 208.689 9.89291 208.314 9.57239C207.94 9.25186 207.477 9.09162 206.924 9.09162C206.422 9.09162 205.992 9.25186 205.635 9.57239C205.278 9.88444 205.065 10.3104 204.997 10.8502H208.889Z" fill="#F9F9FB"/>
<g filter="url(#filter1_d_272_209)">
<path d="M235.784 36.4149H163.107C158.204 36.4149 154.23 40.3554 154.23 45.2162V285.599C154.23 290.46 158.204 294.4 163.107 294.4H235.784C240.686 294.4 244.66 290.46 244.66 285.599V45.2162C244.66 40.3554 240.686 36.4149 235.784 36.4149Z" fill="#F9F9FB"/>
</g>
<path d="M296.555 6.16906L293.926 14.962H292.28L290.417 8.3072L288.439 14.962L286.806 14.9747L284.292 6.16906H285.836L287.674 13.3299L289.664 6.16906H291.298L293.148 13.292L294.998 6.16906H296.555ZM304.198 11.3057C304.198 11.5671 304.181 11.8033 304.147 12.0142H298.775C298.818 12.5708 299.026 13.0179 299.401 13.3552C299.775 13.6926 300.234 13.8613 300.779 13.8613C301.561 13.8613 302.114 13.5366 302.438 12.8871H304.007C303.794 13.5281 303.407 14.0553 302.846 14.4686C302.293 14.8734 301.604 15.0759 300.779 15.0759C300.106 15.0759 299.503 14.9283 298.967 14.6331C298.439 14.3294 298.023 13.9077 297.716 13.3679C297.418 12.8196 297.27 12.187 297.27 11.4701C297.27 10.7532 297.414 10.1248 297.704 9.58503C298.001 9.03677 298.414 8.61508 298.941 8.31986C299.477 8.02463 300.09 7.87704 300.779 7.87704C301.442 7.87704 302.033 8.02045 302.552 8.3072C303.071 8.59396 303.475 8.99881 303.765 9.52177C304.054 10.0363 304.198 10.6309 304.198 11.3057ZM302.68 10.8502C302.671 10.3188 302.48 9.89291 302.106 9.57238C301.731 9.25185 301.268 9.09161 300.715 9.09161C300.213 9.09161 299.783 9.25185 299.426 9.57238C299.069 9.88444 298.856 10.3104 298.788 10.8502H302.68ZM305.145 11.4448C305.145 10.7448 305.29 10.1248 305.579 9.58503C305.877 9.04524 306.276 8.62773 306.778 8.3325C307.289 8.02886 307.854 7.87704 308.475 7.87704C308.935 7.87704 309.386 7.97826 309.828 8.18068C310.279 8.37469 310.636 8.63615 310.9 8.96509V5.59973H312.367V14.962H310.9V13.9119C310.662 14.2493 310.33 14.5276 309.904 14.7469C309.488 14.9662 309.007 15.0759 308.463 15.0759C307.85 15.0759 307.289 14.9241 306.778 14.6204C306.276 14.3084 305.877 13.8782 305.579 13.3299C305.29 12.7733 305.145 12.1449 305.145 11.4448ZM310.9 11.4701C310.9 10.9894 310.798 10.5719 310.593 10.2176C310.398 9.86337 310.139 9.59344 309.815 9.4079C309.492 9.22236 309.143 9.12957 308.769 9.12957C308.394 9.12957 308.046 9.22236 307.722 9.4079C307.399 9.58503 307.136 9.85071 306.931 10.205C306.736 10.5508 306.638 10.9641 306.638 11.4448C306.638 11.9256 306.736 12.3473 306.931 12.71C307.136 13.0727 307.399 13.351 307.722 13.545C308.054 13.7306 308.403 13.8234 308.769 13.8234C309.143 13.8234 309.492 13.7306 309.815 13.545C310.139 13.3595 310.398 13.0896 310.593 12.7353C310.798 12.3726 310.9 11.9509 310.9 11.4701Z" fill="#F9F9FB"/>
<g filter="url(#filter2_d_272_209)">
<path d="M335.09 36.4149H262.413C257.511 36.4149 253.537 40.3554 253.537 45.2162V285.599C253.537 290.46 257.511 294.4 262.413 294.4H335.09C339.992 294.4 343.967 290.46 343.967 285.599V45.2162C343.967 40.3554 339.992 36.4149 335.09 36.4149Z" fill="#F9F9FB"/>
</g>
<g filter="url(#filter3_d_272_209)">
<path d="M129.82 84.2715H8.87656C3.97417 84.2715 0 88.2119 0 93.0727V149.18C0 154.041 3.97417 157.982 8.87656 157.982H129.82C134.722 157.982 138.696 154.041 138.696 149.18V93.0727C138.696 88.2119 134.722 84.2715 129.82 84.2715Z" fill="#4C75A4"/>
<path d="M52.7046 92.5226H9.98613C9.06693 92.5226 8.32178 93.2615 8.32178 94.1729V97.4733C8.32178 98.3847 9.06693 99.1235 9.98613 99.1235H52.7046C53.6238 99.1235 54.3689 98.3847 54.3689 97.4733V94.1729C54.3689 93.2615 53.6238 92.5226 52.7046 92.5226Z" fill="black" fill-opacity="0.2"/>
<path d="M86.5465 101.874H9.98613C9.06693 101.874 8.32178 102.613 8.32178 103.524V106.825C8.32178 107.736 9.06693 108.475 9.98613 108.475H86.5465C87.4657 108.475 88.2108 107.736 88.2108 106.825V103.524C88.2108 102.613 87.4657 101.874 86.5465 101.874Z" fill="black" fill-opacity="0.2"/>
<path d="M64.3551 111.225H9.98613C9.06693 111.225 8.32178 111.964 8.32178 112.875V116.176C8.32178 117.087 9.06693 117.826 9.98613 117.826H64.3551C65.2743 117.826 66.0194 117.087 66.0194 116.176V112.875C66.0194 111.964 65.2743 111.225 64.3551 111.225Z" fill="black" fill-opacity="0.2"/>
</g>
<g filter="url(#filter4_d_272_209)">
<path d="M247.434 183.835H126.491C121.588 183.835 117.614 187.776 117.614 192.636V248.744C117.614 253.605 121.588 257.545 126.491 257.545H247.434C252.336 257.545 256.311 253.605 256.311 248.744V192.636C256.311 187.776 252.336 183.835 247.434 183.835Z" fill="#A0A0A0"/>
<path d="M170.319 192.086H127.601C126.681 192.086 125.936 192.825 125.936 193.737V197.037C125.936 197.948 126.681 198.687 127.601 198.687H170.319C171.238 198.687 171.983 197.948 171.983 197.037V193.737C171.983 192.825 171.238 192.086 170.319 192.086Z" fill="black" fill-opacity="0.2"/>
<path d="M204.161 201.438H127.601C126.681 201.438 125.936 202.176 125.936 203.088V206.388C125.936 207.3 126.681 208.038 127.601 208.038H204.161C205.08 208.038 205.825 207.3 205.825 206.388V203.088C205.825 202.176 205.08 201.438 204.161 201.438Z" fill="black" fill-opacity="0.2"/>
<path d="M181.97 210.789H127.601C126.681 210.789 125.936 211.528 125.936 212.439V215.739C125.936 216.651 126.681 217.39 127.601 217.39H181.97C182.889 217.39 183.634 216.651 183.634 215.739V212.439C183.634 211.528 182.889 210.789 181.97 210.789Z" fill="black" fill-opacity="0.2"/>
</g>
<g filter="url(#filter5_d_272_209)">
<path d="M391.123 77.6706H270.18C265.278 77.6706 261.304 81.611 261.304 86.4718V142.579C261.304 147.44 265.278 151.381 270.18 151.381H391.123C396.026 151.381 400 147.44 400 142.579V86.4718C400 81.611 396.026 77.6706 391.123 77.6706Z" fill="#F89B61"/>
<path d="M314.008 85.9218H271.29C270.371 85.9218 269.625 86.6606 269.625 87.572V90.8724C269.625 91.7838 270.371 92.5227 271.29 92.5227H314.008C314.927 92.5227 315.673 91.7838 315.673 90.8724V87.572C315.673 86.6606 314.927 85.9218 314.008 85.9218Z" fill="black" fill-opacity="0.2"/>
<path d="M347.85 95.273H271.29C270.371 95.273 269.625 96.0118 269.625 96.9232V100.224C269.625 101.135 270.371 101.874 271.29 101.874H347.85C348.769 101.874 349.515 101.135 349.515 100.224V96.9232C349.515 96.0118 348.769 95.273 347.85 95.273Z" fill="black" fill-opacity="0.2"/>
<path d="M325.659 104.624H271.29C270.371 104.624 269.625 105.363 269.625 106.275V109.575C269.625 110.486 270.371 111.225 271.29 111.225H325.659C326.578 111.225 327.323 110.486 327.323 109.575V106.275C327.323 105.363 326.578 104.624 325.659 104.624Z" fill="black" fill-opacity="0.2"/>
</g>
</g>
<defs>
<filter id="filter0_d_272_209" x="34.9238" y="16.4149" width="130.43" height="297.985" filterUnits="userSpaceOnUse" color-interpolation-filters="sRGB">
<feFlood flood-opacity="0" result="BackgroundImageFix"/>
<feColorMatrix in="SourceAlpha" type="matrix" values="0 0 0 0 0 0 0 0 0 0 0 0 0 0 0 0 0 0 127 0" result="hardAlpha"/>
<feOffset/>
<feGaussianBlur stdDeviation="10"/>
<feComposite in2="hardAlpha" operator="out"/>
<feColorMatrix type="matrix" values="0 0 0 0 0 0 0 0 0 0 0 0 0 0 0 0 0 0 0.25 0"/>
<feBlend mode="normal" in2="BackgroundImageFix" result="effect1_dropShadow_272_209"/>
<feBlend mode="normal" in="SourceGraphic" in2="effect1_dropShadow_272_209" result="shape"/>
</filter>
<filter id="filter1_d_272_209" x="134.23" y="16.4149" width="130.43" height="297.985" filterUnits="userSpaceOnUse" color-interpolation-filters="sRGB">
<feFlood flood-opacity="0" result="BackgroundImageFix"/>
<feColorMatrix in="SourceAlpha" type="matrix" values="0 0 0 0 0 0 0 0 0 0 0 0 0 0 0 0 0 0 127 0" result="hardAlpha"/>
<feOffset/>
<feGaussianBlur stdDeviation="10"/>
<feComposite in2="hardAlpha" operator="out"/>
<feColorMatrix type="matrix" values="0 0 0 0 0 0 0 0 0 0 0 0 0 0 0 0 0 0 0.25 0"/>
<feBlend mode="normal" in2="BackgroundImageFix" result="effect1_dropShadow_272_209"/>
<feBlend mode="normal" in="SourceGraphic" in2="effect1_dropShadow_272_209" result="shape"/>
</filter>
<filter id="filter2_d_272_209" x="233.537" y="16.4149" width="130.43" height="297.985" filterUnits="userSpaceOnUse" color-interpolation-filters="sRGB">
<feFlood flood-opacity="0" result="BackgroundImageFix"/>
<feColorMatrix in="SourceAlpha" type="matrix" values="0 0 0 0 0 0 0 0 0 0 0 0 0 0 0 0 0 0 127 0" result="hardAlpha"/>
<feOffset/>
<feGaussianBlur stdDeviation="10"/>
<feComposite in2="hardAlpha" operator="out"/>
<feColorMatrix type="matrix" values="0 0 0 0 0 0 0 0 0 0 0 0 0 0 0 0 0 0 0.25 0"/>
<feBlend mode="normal" in2="BackgroundImageFix" result="effect1_dropShadow_272_209"/>
<feBlend mode="normal" in="SourceGraphic" in2="effect1_dropShadow_272_209" result="shape"/>
</filter>
<filter id="filter3_d_272_209" x="-20" y="64.2715" width="178.696" height="113.71" filterUnits="userSpaceOnUse" color-interpolation-filters="sRGB">
<feFlood flood-opacity="0" result="BackgroundImageFix"/>
<feColorMatrix in="SourceAlpha" type="matrix" values="0 0 0 0 0 0 0 0 0 0 0 0 0 0 0 0 0 0 127 0" result="hardAlpha"/>
<feOffset/>
<feGaussianBlur stdDeviation="10"/>
<feComposite in2="hardAlpha" operator="out"/>
<feColorMatrix type="matrix" values="0 0 0 0 0 0 0 0 0 0 0 0 0 0 0 0 0 0 0.4 0"/>
<feBlend mode="normal" in2="BackgroundImageFix" result="effect1_dropShadow_272_209"/>
<feBlend mode="normal" in="SourceGraphic" in2="effect1_dropShadow_272_209" result="shape"/>
</filter>
<filter id="filter4_d_272_209" x="97.6143" y="163.835" width="178.696" height="113.71" filterUnits="userSpaceOnUse" color-interpolation-filters="sRGB">
<feFlood flood-opacity="0" result="BackgroundImageFix"/>
<feColorMatrix in="SourceAlpha" type="matrix" values="0 0 0 0 0 0 0 0 0 0 0 0 0 0 0 0 0 0 127 0" result="hardAlpha"/>
<feOffset/>
<feGaussianBlur stdDeviation="10"/>
<feComposite in2="hardAlpha" operator="out"/>
<feColorMatrix type="matrix" values="0 0 0 0 0 0 0 0 0 0 0 0 0 0 0 0 0 0 0.4 0"/>
<feBlend mode="normal" in2="BackgroundImageFix" result="effect1_dropShadow_272_209"/>
<feBlend mode="normal" in="SourceGraphic" in2="effect1_dropShadow_272_209" result="shape"/>
</filter>
<filter id="filter5_d_272_209" x="241.304" y="57.6706" width="178.696" height="113.71" filterUnits="userSpaceOnUse" color-interpolation-filters="sRGB">
<feFlood flood-opacity="0" result="BackgroundImageFix"/>
<feColorMatrix in="SourceAlpha" type="matrix" values="0 0 0 0 0 0 0 0 0 0 0 0 0 0 0 0 0 0 127 0" result="hardAlpha"/>
<feOffset/>
<feGaussianBlur stdDeviation="10"/>
<feComposite in2="hardAlpha" operator="out"/>
<feColorMatrix type="matrix" values="0 0 0 0 0 0 0 0 0 0 0 0 0 0 0 0 0 0 0.4 0"/>
<feBlend mode="normal" in2="BackgroundImageFix" result="effect1_dropShadow_272_209"/>
<feBlend mode="normal" in="SourceGraphic" in2="effect1_dropShadow_272_209" result="shape"/>
</filter>
<clipPath id="clip0_272_209">
<rect width="400" height="300" fill="white"/>
</clipPath>
</defs>
</svg>
