<svg width="493" height="349" viewBox="0 0 493 349" fill="none" xmlns="http://www.w3.org/2000/svg">
<path d="M129.834 1.3844V11.375H128.193V4.53253L125.142 11.375H124.005L120.94 4.53253V11.375H119.299V1.3844H121.069L124.581 9.21878L128.078 1.3844H129.834ZM135.43 11.5044C134.682 11.5044 134.005 11.3367 133.401 11.0013C132.796 10.6563 132.321 10.1771 131.976 9.56377C131.631 8.94084 131.458 8.22209 131.458 7.40753C131.458 6.60253 131.636 5.88859 131.99 5.26565C132.346 4.64271 132.83 4.16359 133.444 3.82815C134.059 3.49271 134.744 3.32503 135.502 3.32503C136.261 3.32503 136.946 3.49271 137.56 3.82815C138.175 4.16359 138.659 4.64271 139.014 5.26565C139.369 5.88859 139.547 6.60253 139.547 7.40753C139.547 8.21253 139.364 8.92646 139 9.5494C138.635 10.1723 138.136 10.6563 137.503 11.0013C136.88 11.3367 136.189 11.5044 135.43 11.5044ZM135.43 10.0813C135.853 10.0813 136.246 9.98065 136.61 9.7794C136.985 9.57815 137.287 9.27628 137.517 8.87378C137.747 8.47128 137.863 7.98253 137.863 7.40753C137.863 6.83253 137.752 6.34859 137.532 5.95565C137.311 5.55315 137.018 5.25127 136.654 5.05002C136.289 4.84877 135.896 4.74815 135.473 4.74815C135.052 4.74815 134.658 4.84877 134.293 5.05002C133.938 5.25127 133.656 5.55315 133.444 5.95565C133.233 6.34859 133.127 6.83253 133.127 7.40753C133.127 8.26046 133.343 8.92171 133.775 9.39127C134.217 9.85127 134.768 10.0813 135.43 10.0813ZM145.17 3.32503C145.793 3.32503 146.35 3.4544 146.839 3.71315C147.338 3.9719 147.727 4.35521 148.005 4.86315C148.283 5.37109 148.422 5.9844 148.422 6.70315V11.375H146.796V6.94753C146.796 6.23834 146.619 5.6969 146.263 5.32315C145.909 4.93984 145.424 4.74815 144.81 4.74815C144.196 4.74815 143.707 4.93984 143.342 5.32315C142.987 5.6969 142.809 6.23834 142.809 6.94753V11.375H141.168V3.4544H142.809V4.36003C143.078 4.03421 143.419 3.78021 143.831 3.59815C144.253 3.41609 144.7 3.32503 145.17 3.32503Z" fill="#F9F9FB"/>
<g filter="url(#filter0_d_240_259)">
<path d="M174.851 35.75H92.8762C87.3466 35.75 82.864 40.2272 82.864 45.75V318.875C82.864 324.398 87.3466 328.875 92.8762 328.875H174.851C180.38 328.875 184.863 324.398 184.863 318.875V45.75C184.863 40.2272 180.38 35.75 174.851 35.75Z" fill="#F9F9FB"/>
</g>
<path d="M239.962 1.3844V2.72127H237.299V11.375H235.659V2.72127H232.982V1.3844H239.962ZM248.805 3.4544V11.375H247.165V10.4406C246.905 10.7665 246.565 11.0252 246.143 11.2169C245.73 11.399 245.289 11.49 244.819 11.49C244.195 11.49 243.634 11.3607 243.135 11.1019C242.645 10.8432 242.257 10.4598 241.969 9.9519C241.691 9.44396 241.551 8.83065 241.551 8.1119V3.4544H243.178V7.86753C243.178 8.57671 243.356 9.12296 243.71 9.50628C244.066 9.88003 244.55 10.0669 245.164 10.0669C245.778 10.0669 246.263 9.88003 246.618 9.50628C246.982 9.12296 247.165 8.57671 247.165 7.86753V3.4544H248.805ZM258.239 7.22065C258.239 7.51771 258.219 7.78609 258.181 8.02565H252.122C252.17 8.65815 252.405 9.16609 252.827 9.5494C253.249 9.93271 253.768 10.1244 254.381 10.1244C255.264 10.1244 255.888 9.75546 256.252 9.01752H258.023C257.783 9.74584 257.346 10.3448 256.713 10.8144C256.089 11.2744 255.312 11.5044 254.381 11.5044C253.624 11.5044 252.942 11.3367 252.338 11.0013C251.743 10.6563 251.273 10.1771 250.927 9.56377C250.591 8.94084 250.423 8.22209 250.423 7.40753C250.423 6.59296 250.587 5.87896 250.913 5.26565C251.249 4.64271 251.714 4.16359 252.309 3.82815C252.913 3.49271 253.604 3.32503 254.381 3.32503C255.13 3.32503 255.797 3.48796 256.382 3.81378C256.967 4.13959 257.423 4.59959 257.749 5.19378C258.075 5.77834 258.239 6.45396 258.239 7.22065ZM256.526 6.70315C256.517 6.0994 256.301 5.61546 255.878 5.25128C255.456 4.88709 254.933 4.70503 254.309 4.70503C253.743 4.70503 253.259 4.88709 252.856 5.25128C252.453 5.60584 252.213 6.08984 252.136 6.70315H256.526Z" fill="#F9F9FB"/>
<g filter="url(#filter1_d_240_259)">
<path d="M286.861 35.75H204.887C199.357 35.75 194.875 40.2272 194.875 45.75V318.875C194.875 324.398 199.357 328.875 204.887 328.875H286.861C292.391 328.875 296.874 324.398 296.874 318.875V45.75C296.874 40.2272 292.391 35.75 286.861 35.75Z" fill="#F9F9FB"/>
</g>
<path d="M355.407 1.38436L352.442 11.375H350.586L348.484 3.81374L346.253 11.375L344.411 11.3894L341.576 1.38436H343.317L345.39 9.52061L347.635 1.38436H349.477L351.564 9.47749L353.651 1.38436H355.407ZM364.029 7.22061C364.029 7.51767 364.009 7.78605 363.971 8.02561H357.912C357.96 8.65811 358.195 9.16605 358.617 9.54936C359.039 9.93268 359.557 10.1244 360.172 10.1244C361.054 10.1244 361.678 9.75542 362.043 9.01749H363.813C363.573 9.7458 363.136 10.3448 362.503 10.8144C361.879 11.2744 361.102 11.5044 360.172 11.5044C359.413 11.5044 358.732 11.3367 358.128 11.0012C357.533 10.6562 357.063 10.177 356.717 9.56374C356.381 8.9408 356.214 8.22205 356.214 7.40749C356.214 6.59293 356.376 5.87892 356.703 5.26561C357.038 4.64267 357.504 4.16355 358.099 3.82811C358.704 3.49268 359.394 3.32499 360.172 3.32499C360.92 3.32499 361.586 3.48793 362.172 3.81374C362.757 4.13955 363.213 4.59955 363.539 5.19374C363.865 5.7783 364.029 6.45392 364.029 7.22061ZM362.316 6.70311C362.306 6.09936 362.09 5.61543 361.668 5.25124C361.246 4.88705 360.723 4.70499 360.1 4.70499C359.533 4.70499 359.049 4.88705 358.646 5.25124C358.243 5.6058 358.003 6.0898 357.926 6.70311H362.316ZM365.096 7.37874C365.096 6.5833 365.26 5.87892 365.586 5.26561C365.922 4.6523 366.372 4.17792 366.939 3.84249C367.514 3.49749 368.153 3.32499 368.853 3.32499C369.371 3.32499 369.88 3.43999 370.378 3.66999C370.887 3.89042 371.29 4.18749 371.587 4.56124V0.737488H373.242V11.375H371.587V10.1819C371.319 10.5652 370.945 10.8814 370.465 11.1306C369.995 11.3798 369.452 11.5044 368.838 11.5044C368.148 11.5044 367.514 11.3319 366.939 10.9869C366.372 10.6323 365.922 10.1435 365.586 9.52061C365.26 8.88811 365.096 8.17418 365.096 7.37874ZM371.587 7.40749C371.587 6.86124 371.472 6.38686 371.242 5.98436C371.021 5.58186 370.729 5.27518 370.364 5.06436C369.999 4.85355 369.606 4.74812 369.184 4.74812C368.761 4.74812 368.368 4.85355 368.004 5.06436C367.639 5.26561 367.342 5.56749 367.111 5.96999C366.89 6.36292 366.78 6.83249 366.78 7.37874C366.78 7.92499 366.89 8.40417 367.111 8.81624C367.342 9.2283 367.639 9.54455 368.004 9.76499C368.378 9.9758 368.771 10.0812 369.184 10.0812C369.606 10.0812 369.999 9.9758 370.364 9.76499C370.729 9.55418 371.021 9.24749 371.242 8.84499C371.472 8.43293 371.587 7.95374 371.587 7.40749Z" fill="#F9F9FB"/>
<g filter="url(#filter2_d_240_259)">
<path d="M398.872 35.75H316.898C311.368 35.75 306.886 40.2272 306.886 45.75V318.875C306.886 324.398 311.368 328.875 316.898 328.875H398.872C404.402 328.875 408.885 324.398 408.885 318.875V45.75C408.885 40.2272 404.402 35.75 398.872 35.75Z" fill="#F9F9FB"/>
</g>
<g filter="url(#filter3_d_240_259)">
<path d="M167.342 90.125H30.926C25.3964 90.125 20.9138 94.6022 20.9138 100.125V163.875C20.9138 169.398 25.3964 173.875 30.926 173.875H167.342C172.871 173.875 177.354 169.398 177.354 163.875V100.125C177.354 94.6022 172.871 90.125 167.342 90.125Z" fill="#4C75A4"/>
<path d="M80.361 99.5H32.1776C31.1408 99.5 30.3003 100.339 30.3003 101.375V105.125C30.3003 106.161 31.1408 107 32.1776 107H80.361C81.3978 107 82.2383 106.161 82.2383 105.125V101.375C82.2383 100.339 81.3978 99.5 80.361 99.5Z" fill="black" fill-opacity="0.2"/>
<path d="M118.532 110.125H32.1776C31.1408 110.125 30.3003 110.964 30.3003 112V115.75C30.3003 116.786 31.1408 117.625 32.1776 117.625H118.532C119.569 117.625 120.41 116.786 120.41 115.75V112C120.41 110.964 119.569 110.125 118.532 110.125Z" fill="black" fill-opacity="0.2"/>
<path d="M93.502 120.75H32.1776C31.1408 120.75 30.3003 121.589 30.3003 122.625V126.375C30.3003 127.411 31.1408 128.25 32.1776 128.25H93.502C94.5388 128.25 95.3793 127.411 95.3793 126.375V122.625C95.3793 121.589 94.5388 120.75 93.502 120.75Z" fill="black" fill-opacity="0.2"/>
</g>
<g filter="url(#filter4_d_240_259)">
<path d="M300.002 203.25H163.587C158.057 203.25 153.575 207.727 153.575 213.25V277C153.575 282.523 158.057 287 163.587 287H300.002C305.532 287 310.015 282.523 310.015 277V213.25C310.015 207.727 305.532 203.25 300.002 203.25Z" fill="#A0A0A0"/>
<path d="M213.022 212.625H164.838C163.802 212.625 162.961 213.464 162.961 214.5V218.25C162.961 219.286 163.802 220.125 164.838 220.125H213.022C214.059 220.125 214.899 219.286 214.899 218.25V214.5C214.899 213.464 214.059 212.625 213.022 212.625Z" fill="black" fill-opacity="0.2"/>
<path d="M251.193 223.25H164.838C163.802 223.25 162.961 224.089 162.961 225.125V228.875C162.961 229.911 163.802 230.75 164.838 230.75H251.193C252.23 230.75 253.071 229.911 253.071 228.875V225.125C253.071 224.089 252.23 223.25 251.193 223.25Z" fill="black" fill-opacity="0.2"/>
<path d="M226.163 233.875H164.838C163.802 233.875 162.961 234.714 162.961 235.75V239.5C162.961 240.536 163.802 241.375 164.838 241.375H226.163C227.2 241.375 228.04 240.536 228.04 239.5V235.75C228.04 234.714 227.2 233.875 226.163 233.875Z" fill="black" fill-opacity="0.2"/>
</g>
<g filter="url(#filter5_d_240_259)">
<path d="M462.074 82.625H325.659C320.129 82.625 315.646 87.1022 315.646 92.625V156.375C315.646 161.898 320.129 166.375 325.659 166.375H462.074C467.604 166.375 472.086 161.898 472.086 156.375V92.625C472.086 87.1022 467.604 82.625 462.074 82.625Z" fill="#F89B61"/>
<path d="M375.094 92H326.91C325.873 92 325.033 92.8395 325.033 93.875V97.625C325.033 98.6605 325.873 99.5 326.91 99.5H375.094C376.131 99.5 376.971 98.6605 376.971 97.625V93.875C376.971 92.8395 376.131 92 375.094 92Z" fill="black" fill-opacity="0.2"/>
<path d="M413.265 102.625H326.91C325.873 102.625 325.033 103.464 325.033 104.5V108.25C325.033 109.286 325.873 110.125 326.91 110.125H413.265C414.302 110.125 415.142 109.286 415.142 108.25V104.5C415.142 103.464 414.302 102.625 413.265 102.625Z" fill="black" fill-opacity="0.2"/>
<path d="M388.235 113.25H326.91C325.873 113.25 325.033 114.089 325.033 115.125V118.875C325.033 119.911 325.873 120.75 326.91 120.75H388.235C389.271 120.75 390.112 119.911 390.112 118.875V115.125C390.112 114.089 389.271 113.25 388.235 113.25Z" fill="black" fill-opacity="0.2"/>
</g>
<defs>
<filter id="filter0_d_240_259" x="62.864" y="15.75" width="141.999" height="333.125" filterUnits="userSpaceOnUse" color-interpolation-filters="sRGB">
<feFlood flood-opacity="0" result="BackgroundImageFix"/>
<feColorMatrix in="SourceAlpha" type="matrix" values="0 0 0 0 0 0 0 0 0 0 0 0 0 0 0 0 0 0 127 0" result="hardAlpha"/>
<feOffset/>
<feGaussianBlur stdDeviation="10"/>
<feComposite in2="hardAlpha" operator="out"/>
<feColorMatrix type="matrix" values="0 0 0 0 0 0 0 0 0 0 0 0 0 0 0 0 0 0 0.25 0"/>
<feBlend mode="normal" in2="BackgroundImageFix" result="effect1_dropShadow_240_259"/>
<feBlend mode="normal" in="SourceGraphic" in2="effect1_dropShadow_240_259" result="shape"/>
</filter>
<filter id="filter1_d_240_259" x="174.875" y="15.75" width="141.999" height="333.125" filterUnits="userSpaceOnUse" color-interpolation-filters="sRGB">
<feFlood flood-opacity="0" result="BackgroundImageFix"/>
<feColorMatrix in="SourceAlpha" type="matrix" values="0 0 0 0 0 0 0 0 0 0 0 0 0 0 0 0 0 0 127 0" result="hardAlpha"/>
<feOffset/>
<feGaussianBlur stdDeviation="10"/>
<feComposite in2="hardAlpha" operator="out"/>
<feColorMatrix type="matrix" values="0 0 0 0 0 0 0 0 0 0 0 0 0 0 0 0 0 0 0.25 0"/>
<feBlend mode="normal" in2="BackgroundImageFix" result="effect1_dropShadow_240_259"/>
<feBlend mode="normal" in="SourceGraphic" in2="effect1_dropShadow_240_259" result="shape"/>
</filter>
<filter id="filter2_d_240_259" x="286.886" y="15.75" width="141.999" height="333.125" filterUnits="userSpaceOnUse" color-interpolation-filters="sRGB">
<feFlood flood-opacity="0" result="BackgroundImageFix"/>
<feColorMatrix in="SourceAlpha" type="matrix" values="0 0 0 0 0 0 0 0 0 0 0 0 0 0 0 0 0 0 127 0" result="hardAlpha"/>
<feOffset/>
<feGaussianBlur stdDeviation="10"/>
<feComposite in2="hardAlpha" operator="out"/>
<feColorMatrix type="matrix" values="0 0 0 0 0 0 0 0 0 0 0 0 0 0 0 0 0 0 0.25 0"/>
<feBlend mode="normal" in2="BackgroundImageFix" result="effect1_dropShadow_240_259"/>
<feBlend mode="normal" in="SourceGraphic" in2="effect1_dropShadow_240_259" result="shape"/>
</filter>
<filter id="filter3_d_240_259" x="0.913818" y="70.125" width="196.44" height="123.75" filterUnits="userSpaceOnUse" color-interpolation-filters="sRGB">
<feFlood flood-opacity="0" result="BackgroundImageFix"/>
<feColorMatrix in="SourceAlpha" type="matrix" values="0 0 0 0 0 0 0 0 0 0 0 0 0 0 0 0 0 0 127 0" result="hardAlpha"/>
<feOffset/>
<feGaussianBlur stdDeviation="10"/>
<feComposite in2="hardAlpha" operator="out"/>
<feColorMatrix type="matrix" values="0 0 0 0 0 0 0 0 0 0 0 0 0 0 0 0 0 0 0.4 0"/>
<feBlend mode="normal" in2="BackgroundImageFix" result="effect1_dropShadow_240_259"/>
<feBlend mode="normal" in="SourceGraphic" in2="effect1_dropShadow_240_259" result="shape"/>
</filter>
<filter id="filter4_d_240_259" x="133.575" y="183.25" width="196.44" height="123.75" filterUnits="userSpaceOnUse" color-interpolation-filters="sRGB">
<feFlood flood-opacity="0" result="BackgroundImageFix"/>
<feColorMatrix in="SourceAlpha" type="matrix" values="0 0 0 0 0 0 0 0 0 0 0 0 0 0 0 0 0 0 127 0" result="hardAlpha"/>
<feOffset/>
<feGaussianBlur stdDeviation="10"/>
<feComposite in2="hardAlpha" operator="out"/>
<feColorMatrix type="matrix" values="0 0 0 0 0 0 0 0 0 0 0 0 0 0 0 0 0 0 0.4 0"/>
<feBlend mode="normal" in2="BackgroundImageFix" result="effect1_dropShadow_240_259"/>
<feBlend mode="normal" in="SourceGraphic" in2="effect1_dropShadow_240_259" result="shape"/>
</filter>
<filter id="filter5_d_240_259" x="295.646" y="62.625" width="196.44" height="123.75" filterUnits="userSpaceOnUse" color-interpolation-filters="sRGB">
<feFlood flood-opacity="0" result="BackgroundImageFix"/>
<feColorMatrix in="SourceAlpha" type="matrix" values="0 0 0 0 0 0 0 0 0 0 0 0 0 0 0 0 0 0 127 0" result="hardAlpha"/>
<feOffset/>
<feGaussianBlur stdDeviation="10"/>
<feComposite in2="hardAlpha" operator="out"/>
<feColorMatrix type="matrix" values="0 0 0 0 0 0 0 0 0 0 0 0 0 0 0 0 0 0 0.4 0"/>
<feBlend mode="normal" in2="BackgroundImageFix" result="effect1_dropShadow_240_259"/>
<feBlend mode="normal" in="SourceGraphic" in2="effect1_dropShadow_240_259" result="shape"/>
</filter>
</defs>
</svg>
