<svg width="515" height="400" viewBox="0 0 515 400" fill="none" xmlns="http://www.w3.org/2000/svg">
<path d="M140.834 39.3844V49.375H139.193V42.5325L136.142 49.375H135.005L131.94 42.5325V49.375H130.299V39.3844H132.069L135.581 47.2188L139.078 39.3844H140.834ZM146.43 49.5044C145.682 49.5044 145.005 49.3367 144.401 49.0013C143.796 48.6563 143.321 48.1771 142.976 47.5638C142.631 46.9408 142.458 46.2221 142.458 45.4075C142.458 44.6025 142.636 43.8886 142.99 43.2656C143.346 42.6427 143.83 42.1636 144.444 41.8282C145.059 41.4927 145.744 41.325 146.502 41.325C147.261 41.325 147.946 41.4927 148.56 41.8282C149.175 42.1636 149.659 42.6427 150.014 43.2656C150.369 43.8886 150.546 44.6025 150.546 45.4075C150.546 46.2125 150.364 46.9265 150 47.5494C149.635 48.1723 149.136 48.6563 148.503 49.0013C147.879 49.3367 147.189 49.5044 146.43 49.5044ZM146.43 48.0813C146.853 48.0813 147.246 47.9806 147.61 47.7794C147.985 47.5781 148.287 47.2763 148.517 46.8738C148.747 46.4713 148.863 45.9825 148.863 45.4075C148.863 44.8325 148.752 44.3486 148.532 43.9557C148.311 43.5532 148.018 43.2513 147.654 43.05C147.289 42.8488 146.896 42.7482 146.473 42.7482C146.052 42.7482 145.658 42.8488 145.293 43.05C144.938 43.2513 144.656 43.5532 144.444 43.9557C144.233 44.3486 144.127 44.8325 144.127 45.4075C144.127 46.2605 144.343 46.9217 144.775 47.3913C145.217 47.8513 145.768 48.0813 146.43 48.0813ZM156.17 41.325C156.793 41.325 157.35 41.4544 157.839 41.7131C158.338 41.9719 158.727 42.3552 159.005 42.8632C159.283 43.3711 159.422 43.9844 159.422 44.7032V49.375H157.796V44.9475C157.796 44.2383 157.619 43.6969 157.263 43.3232C156.909 42.9398 156.424 42.7482 155.81 42.7482C155.196 42.7482 154.707 42.9398 154.342 43.3232C153.987 43.6969 153.809 44.2383 153.809 44.9475V49.375H152.168V41.4544H153.809V42.36C154.078 42.0342 154.419 41.7802 154.831 41.5981C155.253 41.4161 155.7 41.325 156.17 41.325Z" fill="#F9F9FB"/>
<g filter="url(#filter0_d_40_766)">
<path d="M185.851 73.75H103.876C98.3465 73.75 93.8639 78.2272 93.8639 83.75V356.875C93.8639 362.398 98.3465 366.875 103.876 366.875H185.851C191.38 366.875 195.863 362.398 195.863 356.875V83.75C195.863 78.2272 191.38 73.75 185.851 73.75Z" fill="#F9F9FB"/>
</g>
<path d="M250.962 39.3844V40.7213H248.299V49.375H246.659V40.7213H243.982V39.3844H250.962ZM259.805 41.4544V49.375H258.165V48.4406C257.905 48.7665 257.565 49.0252 257.143 49.2169C256.73 49.399 256.289 49.49 255.819 49.49C255.195 49.49 254.634 49.3607 254.135 49.1019C253.645 48.8432 253.257 48.4598 252.969 47.9519C252.691 47.444 252.551 46.8306 252.551 46.1119V41.4544H254.178V45.8675C254.178 46.5767 254.356 47.123 254.71 47.5063C255.066 47.88 255.55 48.0669 256.164 48.0669C256.778 48.0669 257.263 47.88 257.618 47.5063C257.982 47.123 258.165 46.5767 258.165 45.8675V41.4544H259.805ZM269.239 45.2206C269.239 45.5177 269.219 45.7861 269.181 46.0256H263.122C263.17 46.6581 263.405 47.1661 263.827 47.5494C264.249 47.9327 264.768 48.1244 265.381 48.1244C266.264 48.1244 266.888 47.7555 267.252 47.0175H269.023C268.783 47.7458 268.346 48.3448 267.713 48.8144C267.089 49.2744 266.312 49.5044 265.381 49.5044C264.624 49.5044 263.942 49.3367 263.338 49.0013C262.743 48.6563 262.273 48.1771 261.927 47.5638C261.591 46.9408 261.423 46.2221 261.423 45.4075C261.423 44.593 261.587 43.879 261.913 43.2656C262.249 42.6427 262.714 42.1636 263.309 41.8282C263.913 41.4927 264.604 41.325 265.381 41.325C266.13 41.325 266.797 41.488 267.382 41.8138C267.967 42.1396 268.423 42.5996 268.749 43.1938C269.075 43.7783 269.239 44.454 269.239 45.2206ZM267.526 44.7032C267.517 44.0994 267.301 43.6155 266.878 43.2513C266.456 42.8871 265.933 42.705 265.309 42.705C264.743 42.705 264.259 42.8871 263.856 43.2513C263.453 43.6058 263.213 44.0898 263.136 44.7032H267.526Z" fill="#F9F9FB"/>
<g filter="url(#filter1_d_40_766)">
<path d="M297.862 73.75H215.887C210.357 73.75 205.875 78.2272 205.875 83.75V356.875C205.875 362.398 210.357 366.875 215.887 366.875H297.862C303.391 366.875 307.874 362.398 307.874 356.875V83.75C307.874 78.2272 303.391 73.75 297.862 73.75Z" fill="#F9F9FB"/>
</g>
<path d="M366.407 39.3844L363.442 49.375H361.586L359.484 41.8137L357.254 49.375L355.411 49.3894L352.576 39.3844H354.317L356.39 47.5206L358.635 39.3844H360.477L362.564 47.4775L364.651 39.3844H366.407ZM375.029 45.2206C375.029 45.5177 375.009 45.786 374.971 46.0256H368.912C368.96 46.6581 369.195 47.1661 369.617 47.5494C370.039 47.9327 370.557 48.1244 371.172 48.1244C372.054 48.1244 372.678 47.7554 373.043 47.0175H374.813C374.573 47.7458 374.137 48.3448 373.503 48.8144C372.879 49.2744 372.102 49.5044 371.172 49.5044C370.413 49.5044 369.732 49.3367 369.128 49.0012C368.533 48.6562 368.063 48.177 367.717 47.5637C367.381 46.9408 367.214 46.2221 367.214 45.4075C367.214 44.5929 367.376 43.8789 367.703 43.2656C368.039 42.6427 368.504 42.1636 369.099 41.8281C369.704 41.4927 370.394 41.325 371.172 41.325C371.92 41.325 372.587 41.4879 373.172 41.8137C373.757 42.1396 374.213 42.5996 374.54 43.1937C374.866 43.7783 375.029 44.4539 375.029 45.2206ZM373.316 44.7031C373.306 44.0994 373.09 43.6154 372.669 43.2512C372.246 42.8871 371.723 42.705 371.1 42.705C370.533 42.705 370.049 42.8871 369.646 43.2512C369.243 43.6058 369.003 44.0898 368.926 44.7031H373.316ZM376.096 45.3787C376.096 44.5833 376.26 43.8789 376.586 43.2656C376.922 42.6523 377.372 42.1779 377.939 41.8425C378.514 41.4975 379.153 41.325 379.853 41.325C380.371 41.325 380.88 41.44 381.378 41.67C381.887 41.8904 382.29 42.1875 382.587 42.5612V38.7375H384.243V49.375H382.587V48.1819C382.319 48.5652 381.945 48.8814 381.465 49.1306C380.995 49.3798 380.452 49.5044 379.838 49.5044C379.148 49.5044 378.514 49.3319 377.939 48.9869C377.372 48.6323 376.922 48.1435 376.586 47.5206C376.26 46.8881 376.096 46.1742 376.096 45.3787ZM382.587 45.4075C382.587 44.8612 382.472 44.3869 382.242 43.9844C382.021 43.5819 381.729 43.2752 381.364 43.0644C380.999 42.8536 380.606 42.7481 380.184 42.7481C379.761 42.7481 379.368 42.8536 379.004 43.0644C378.639 43.2656 378.342 43.5675 378.111 43.97C377.89 44.3629 377.78 44.8325 377.78 45.3787C377.78 45.925 377.89 46.4042 378.111 46.8162C378.342 47.2283 378.639 47.5446 379.004 47.765C379.378 47.9758 379.772 48.0812 380.184 48.0812C380.606 48.0812 380.999 47.9758 381.364 47.765C381.729 47.5542 382.021 47.2475 382.242 46.845C382.472 46.4329 382.587 45.9537 382.587 45.4075Z" fill="#F9F9FB"/>
<g filter="url(#filter2_d_40_766)">
<path d="M409.872 73.75H327.898C322.368 73.75 317.886 78.2272 317.886 83.75V356.875C317.886 362.398 322.368 366.875 327.898 366.875H409.872C415.402 366.875 419.885 362.398 419.885 356.875V83.75C419.885 78.2272 415.402 73.75 409.872 73.75Z" fill="#F9F9FB"/>
</g>
<g filter="url(#filter3_d_40_766)">
<path d="M178.341 128.125H41.9259C36.3963 128.125 31.9138 132.602 31.9138 138.125V201.875C31.9138 207.398 36.3963 211.875 41.9259 211.875H178.341C183.871 211.875 188.354 207.398 188.354 201.875V138.125C188.354 132.602 183.871 128.125 178.341 128.125Z" fill="#4C75A4"/>
<path d="M91.3609 137.5H43.1774C42.1407 137.5 41.3002 138.339 41.3002 139.375V143.125C41.3002 144.161 42.1407 145 43.1774 145H91.3609C92.3977 145 93.2382 144.161 93.2382 143.125V139.375C93.2382 138.339 92.3977 137.5 91.3609 137.5Z" fill="black" fill-opacity="0.2"/>
<path d="M129.532 148.125H43.1774C42.1407 148.125 41.3002 148.964 41.3002 150V153.75C41.3002 154.786 42.1407 155.625 43.1774 155.625H129.532C130.569 155.625 131.41 154.786 131.41 153.75V150C131.41 148.964 130.569 148.125 129.532 148.125Z" fill="black" fill-opacity="0.2"/>
<path d="M104.502 158.75H43.1774C42.1407 158.75 41.3002 159.589 41.3002 160.625V164.375C41.3002 165.411 42.1407 166.25 43.1774 166.25H104.502C105.539 166.25 106.379 165.411 106.379 164.375V160.625C106.379 159.589 105.539 158.75 104.502 158.75Z" fill="black" fill-opacity="0.2"/>
</g>
<g filter="url(#filter4_d_40_766)">
<path d="M311.002 241.25H174.587C169.057 241.25 164.575 245.727 164.575 251.25V315C164.575 320.523 169.057 325 174.587 325H311.002C316.532 325 321.015 320.523 321.015 315V251.25C321.015 245.727 316.532 241.25 311.002 241.25Z" fill="#A0A0A0"/>
<path d="M224.022 250.625H175.838C174.802 250.625 173.961 251.464 173.961 252.5V256.25C173.961 257.286 174.802 258.125 175.838 258.125H224.022C225.059 258.125 225.899 257.286 225.899 256.25V252.5C225.899 251.464 225.059 250.625 224.022 250.625Z" fill="black" fill-opacity="0.2"/>
<path d="M262.193 261.25H175.838C174.802 261.25 173.961 262.089 173.961 263.125V266.875C173.961 267.911 174.802 268.75 175.838 268.75H262.193C263.23 268.75 264.07 267.911 264.07 266.875V263.125C264.07 262.089 263.23 261.25 262.193 261.25Z" fill="black" fill-opacity="0.2"/>
<path d="M237.163 271.875H175.838C174.802 271.875 173.961 272.714 173.961 273.75V277.5C173.961 278.536 174.802 279.375 175.838 279.375H237.163C238.2 279.375 239.04 278.536 239.04 277.5V273.75C239.04 272.714 238.2 271.875 237.163 271.875Z" fill="black" fill-opacity="0.2"/>
</g>
<g filter="url(#filter5_d_40_766)">
<path d="M473.074 120.625H336.659C331.129 120.625 326.646 125.102 326.646 130.625V194.375C326.646 199.898 331.129 204.375 336.659 204.375H473.074C478.604 204.375 483.086 199.898 483.086 194.375V130.625C483.086 125.102 478.604 120.625 473.074 120.625Z" fill="#F89B61"/>
<path d="M386.094 130H337.91C336.873 130 336.033 130.839 336.033 131.875V135.625C336.033 136.661 336.873 137.5 337.91 137.5H386.094C387.13 137.5 387.971 136.661 387.971 135.625V131.875C387.971 130.839 387.13 130 386.094 130Z" fill="black" fill-opacity="0.2"/>
<path d="M424.265 140.625H337.91C336.873 140.625 336.033 141.464 336.033 142.5V146.25C336.033 147.286 336.873 148.125 337.91 148.125H424.265C425.302 148.125 426.142 147.286 426.142 146.25V142.5C426.142 141.464 425.302 140.625 424.265 140.625Z" fill="black" fill-opacity="0.2"/>
<path d="M399.235 151.25H337.91C336.873 151.25 336.033 152.089 336.033 153.125V156.875C336.033 157.911 336.873 158.75 337.91 158.75H399.235C400.271 158.75 401.112 157.911 401.112 156.875V153.125C401.112 152.089 400.271 151.25 399.235 151.25Z" fill="black" fill-opacity="0.2"/>
</g>
<defs>
<filter id="filter0_d_40_766" x="73.8639" y="53.75" width="141.999" height="333.125" filterUnits="userSpaceOnUse" color-interpolation-filters="sRGB">
<feFlood flood-opacity="0" result="BackgroundImageFix"/>
<feColorMatrix in="SourceAlpha" type="matrix" values="0 0 0 0 0 0 0 0 0 0 0 0 0 0 0 0 0 0 127 0" result="hardAlpha"/>
<feOffset/>
<feGaussianBlur stdDeviation="10"/>
<feComposite in2="hardAlpha" operator="out"/>
<feColorMatrix type="matrix" values="0 0 0 0 0 0 0 0 0 0 0 0 0 0 0 0 0 0 0.25 0"/>
<feBlend mode="normal" in2="BackgroundImageFix" result="effect1_dropShadow_40_766"/>
<feBlend mode="normal" in="SourceGraphic" in2="effect1_dropShadow_40_766" result="shape"/>
</filter>
<filter id="filter1_d_40_766" x="185.875" y="53.75" width="141.999" height="333.125" filterUnits="userSpaceOnUse" color-interpolation-filters="sRGB">
<feFlood flood-opacity="0" result="BackgroundImageFix"/>
<feColorMatrix in="SourceAlpha" type="matrix" values="0 0 0 0 0 0 0 0 0 0 0 0 0 0 0 0 0 0 127 0" result="hardAlpha"/>
<feOffset/>
<feGaussianBlur stdDeviation="10"/>
<feComposite in2="hardAlpha" operator="out"/>
<feColorMatrix type="matrix" values="0 0 0 0 0 0 0 0 0 0 0 0 0 0 0 0 0 0 0.25 0"/>
<feBlend mode="normal" in2="BackgroundImageFix" result="effect1_dropShadow_40_766"/>
<feBlend mode="normal" in="SourceGraphic" in2="effect1_dropShadow_40_766" result="shape"/>
</filter>
<filter id="filter2_d_40_766" x="297.886" y="53.75" width="141.999" height="333.125" filterUnits="userSpaceOnUse" color-interpolation-filters="sRGB">
<feFlood flood-opacity="0" result="BackgroundImageFix"/>
<feColorMatrix in="SourceAlpha" type="matrix" values="0 0 0 0 0 0 0 0 0 0 0 0 0 0 0 0 0 0 127 0" result="hardAlpha"/>
<feOffset/>
<feGaussianBlur stdDeviation="10"/>
<feComposite in2="hardAlpha" operator="out"/>
<feColorMatrix type="matrix" values="0 0 0 0 0 0 0 0 0 0 0 0 0 0 0 0 0 0 0.25 0"/>
<feBlend mode="normal" in2="BackgroundImageFix" result="effect1_dropShadow_40_766"/>
<feBlend mode="normal" in="SourceGraphic" in2="effect1_dropShadow_40_766" result="shape"/>
</filter>
<filter id="filter3_d_40_766" x="11.9138" y="108.125" width="196.44" height="123.75" filterUnits="userSpaceOnUse" color-interpolation-filters="sRGB">
<feFlood flood-opacity="0" result="BackgroundImageFix"/>
<feColorMatrix in="SourceAlpha" type="matrix" values="0 0 0 0 0 0 0 0 0 0 0 0 0 0 0 0 0 0 127 0" result="hardAlpha"/>
<feOffset/>
<feGaussianBlur stdDeviation="10"/>
<feComposite in2="hardAlpha" operator="out"/>
<feColorMatrix type="matrix" values="0 0 0 0 0 0 0 0 0 0 0 0 0 0 0 0 0 0 0.4 0"/>
<feBlend mode="normal" in2="BackgroundImageFix" result="effect1_dropShadow_40_766"/>
<feBlend mode="normal" in="SourceGraphic" in2="effect1_dropShadow_40_766" result="shape"/>
</filter>
<filter id="filter4_d_40_766" x="144.575" y="221.25" width="196.44" height="123.75" filterUnits="userSpaceOnUse" color-interpolation-filters="sRGB">
<feFlood flood-opacity="0" result="BackgroundImageFix"/>
<feColorMatrix in="SourceAlpha" type="matrix" values="0 0 0 0 0 0 0 0 0 0 0 0 0 0 0 0 0 0 127 0" result="hardAlpha"/>
<feOffset/>
<feGaussianBlur stdDeviation="10"/>
<feComposite in2="hardAlpha" operator="out"/>
<feColorMatrix type="matrix" values="0 0 0 0 0 0 0 0 0 0 0 0 0 0 0 0 0 0 0.4 0"/>
<feBlend mode="normal" in2="BackgroundImageFix" result="effect1_dropShadow_40_766"/>
<feBlend mode="normal" in="SourceGraphic" in2="effect1_dropShadow_40_766" result="shape"/>
</filter>
<filter id="filter5_d_40_766" x="306.646" y="100.625" width="196.44" height="123.75" filterUnits="userSpaceOnUse" color-interpolation-filters="sRGB">
<feFlood flood-opacity="0" result="BackgroundImageFix"/>
<feColorMatrix in="SourceAlpha" type="matrix" values="0 0 0 0 0 0 0 0 0 0 0 0 0 0 0 0 0 0 127 0" result="hardAlpha"/>
<feOffset/>
<feGaussianBlur stdDeviation="10"/>
<feComposite in2="hardAlpha" operator="out"/>
<feColorMatrix type="matrix" values="0 0 0 0 0 0 0 0 0 0 0 0 0 0 0 0 0 0 0.4 0"/>
<feBlend mode="normal" in2="BackgroundImageFix" result="effect1_dropShadow_40_766"/>
<feBlend mode="normal" in="SourceGraphic" in2="effect1_dropShadow_40_766" result="shape"/>
</filter>
</defs>
</svg>
