<svg width="400" height="300" viewBox="0 0 400 300" fill="none" xmlns="http://www.w3.org/2000/svg">
<path d="M121.057 240.691C137.375 240.691 150.603 253.936 150.603 270.274C150.603 286.612 137.375 299.857 121.057 299.857C104.739 299.857 91.5112 286.612 91.5112 270.274C91.5112 253.936 104.739 240.691 121.057 240.691ZM131.487 259.831L131.239 259.615C130.468 259.043 129.409 259.036 128.632 259.594L128.354 259.831L121.057 267.135L113.76 259.831L113.512 259.615C112.741 259.043 111.682 259.036 110.904 259.594L110.627 259.831L110.412 260.079C109.84 260.851 109.833 261.911 110.391 262.69L110.627 262.968L117.922 270.274L110.627 277.58L110.412 277.829C109.84 278.601 109.833 279.661 110.391 280.44L110.627 280.718L110.875 280.933C111.646 281.506 112.705 281.513 113.482 280.954L113.76 280.718L121.057 273.413L128.354 280.718L128.602 280.933C129.373 281.506 130.432 281.513 131.21 280.954L131.487 280.718L131.702 280.469C132.275 279.697 132.281 278.637 131.723 277.858L131.487 277.58L124.192 270.274L131.487 262.968L131.702 262.719C132.275 261.947 132.281 260.887 131.723 260.108L131.487 259.831Z" fill="#E28888"/>
<path d="M278.389 240.506C294.197 240.506 307.012 253.337 307.012 269.165C307.012 284.992 294.197 297.824 278.389 297.824C262.581 297.824 249.766 284.992 249.766 269.165C249.766 253.337 262.581 240.506 278.389 240.506ZM287.605 260.48L274.812 273.289L269.174 267.645C268.335 266.806 266.976 266.806 266.138 267.645C265.3 268.484 265.3 269.845 266.138 270.685L273.294 277.849C274.132 278.689 275.491 278.689 276.329 277.849L290.641 263.52C291.479 262.681 291.479 261.319 290.641 260.48C289.802 259.641 288.443 259.641 287.605 260.48Z" fill="#9DEA9C"/>
<path d="M132.691 0.142944H72.8601C67.9648 0.142944 63.9963 4.11639 63.9963 9.01789V90.5564C63.9963 95.4579 67.9648 99.4314 72.8601 99.4314H132.691C137.586 99.4314 141.554 95.4579 141.554 90.5564V9.01789C141.554 4.11639 137.586 0.142944 132.691 0.142944Z" fill="#F9F9FB"/>
<path d="M88.9257 7.07516C92.751 7.07516 95.8516 10.1799 95.8516 14.0098C95.8516 17.8396 92.751 20.9442 88.9257 20.9442C85.101 20.9442 81.9998 17.8396 81.9998 14.0098C81.9998 10.1799 85.101 7.07516 88.9257 7.07516ZM88.9229 12.7957C88.5678 12.796 88.2753 13.0638 88.236 13.4087L88.231 13.4895L88.2338 17.3041L88.2382 17.385C88.2786 17.7298 88.5717 17.9972 88.9268 17.9969C89.2819 17.9968 89.5744 17.7289 89.6137 17.384L89.6187 17.3032L89.616 13.4886L89.6115 13.4078C89.5711 13.063 89.278 12.7955 88.9229 12.7957ZM88.9263 10.1959C88.4476 10.1959 88.0593 10.5844 88.0593 11.0637C88.0593 11.5429 88.4476 11.9314 88.9263 11.9314C89.4049 11.9314 89.7927 11.5429 89.7927 11.0637C89.7927 10.5844 89.4049 10.1959 88.9263 10.1959Z" fill="#4C75A4"/>
<path d="M115.24 7.94316C114.571 7.94316 114.028 8.48642 114.028 9.15653V11.4099H111.778C111.109 11.4099 110.566 11.9532 110.566 12.6233V15.3967C110.566 16.0668 111.109 16.6101 111.778 16.6101H114.028V18.8635C114.028 19.5336 114.571 20.0772 115.24 20.0772H118.01C118.679 20.0772 119.222 19.5336 119.222 18.8635V16.6101H121.473C122.142 16.6101 122.685 16.0668 122.685 15.3967V12.6233C122.685 11.9532 122.142 11.4099 121.473 11.4099H119.222V9.15653C119.222 8.48642 118.679 7.94316 118.01 7.94316H115.24Z" fill="#4C75A4"/>
<path d="M123.273 32.8692H76.7384C75.8205 32.8692 75.0764 33.6142 75.0764 34.5333V37.8614C75.0764 38.7804 75.8205 39.5254 76.7384 39.5254H123.273C124.191 39.5254 124.935 38.7804 124.935 37.8614V34.5333C124.935 33.6142 124.191 32.8692 123.273 32.8692Z" fill="black" fill-opacity="0.2"/>
<path d="M128.813 45.0723H76.7384C75.8205 45.0723 75.0764 45.8173 75.0764 46.7363V50.0644C75.0764 50.9834 75.8205 51.7285 76.7384 51.7285H128.813C129.731 51.7285 130.475 50.9834 130.475 50.0644V46.7363C130.475 45.8173 129.731 45.0723 128.813 45.0723Z" fill="black" fill-opacity="0.2"/>
<path d="M128.813 57.2754H76.7384C75.8205 57.2754 75.0764 58.0204 75.0764 58.9394V62.2675C75.0764 63.1866 75.8205 63.9316 76.7384 63.9316H128.813C129.731 63.9316 130.475 63.1866 130.475 62.2675V58.9394C130.475 58.0204 129.731 57.2754 128.813 57.2754Z" fill="black" fill-opacity="0.2"/>
<path d="M123.273 69.4784H76.7384C75.8205 69.4784 75.0764 70.2234 75.0764 71.1425V74.4706C75.0764 75.3896 75.8205 76.1346 76.7384 76.1346H123.273C124.191 76.1346 124.935 75.3896 124.935 74.4706V71.1425C124.935 70.2234 124.191 69.4784 123.273 69.4784Z" fill="black" fill-opacity="0.2"/>
<path d="M117.733 81.6815H76.7384C75.8205 81.6815 75.0764 82.4265 75.0764 83.3455V86.6736C75.0764 87.5926 75.8205 88.3377 76.7384 88.3377H117.733C118.651 88.3377 119.395 87.5926 119.395 86.6736V83.3455C119.395 82.4265 118.651 81.6815 117.733 81.6815Z" fill="black" fill-opacity="0.2"/>
<path d="M327.14 15.1194H217.451C212.555 15.1194 208.587 19.0929 208.587 23.9944V61.7129C208.587 66.6144 212.555 70.5878 217.451 70.5878H327.14C332.035 70.5878 336.004 66.6144 336.004 61.7129V23.9944C336.004 19.0929 332.035 15.1194 327.14 15.1194Z" fill="#F9F9FB"/>
<path d="M252.453 46.5517C254.746 46.5517 256.605 48.4132 256.605 50.7102V52.4081C256.605 53.4681 256.275 54.502 255.658 55.3645C252.804 59.3638 248.143 61.3457 241.827 61.3457C235.509 61.3457 230.85 59.3633 228.003 55.3612C227.39 54.4998 227.06 53.4686 227.06 52.4108V50.7102C227.06 48.4132 228.92 46.5517 231.213 46.5517H252.453ZM241.827 24.3732C246.926 24.3732 251.06 28.5123 251.06 33.6181C251.06 38.7235 246.926 42.8625 241.827 42.8625C236.728 42.8625 232.594 38.7235 232.594 33.6181C232.594 28.5123 236.728 24.3732 241.827 24.3732Z" fill="#4C75A4"/>
<path d="M317.722 27.3224H271.187C270.269 27.3224 269.525 28.0675 269.525 28.9865V32.3146C269.525 33.2336 270.269 33.9787 271.187 33.9787H317.722C318.64 33.9787 319.384 33.2336 319.384 32.3146V28.9865C319.384 28.0675 318.64 27.3224 317.722 27.3224Z" fill="black" fill-opacity="0.2"/>
<path d="M312.182 39.5255H271.187C270.269 39.5255 269.525 40.2705 269.525 41.1895V44.5176C269.525 45.4367 270.269 46.1817 271.187 46.1817H312.182C313.1 46.1817 313.844 45.4367 313.844 44.5176V41.1895C313.844 40.2705 313.1 39.5255 312.182 39.5255Z" fill="black" fill-opacity="0.2"/>
<path d="M312.182 51.7285H271.187C270.269 51.7285 269.525 52.4735 269.525 53.3926V56.7207C269.525 57.6397 270.269 58.3847 271.187 58.3847H312.182C313.1 58.3847 313.844 57.6397 313.844 56.7207V53.3926C313.844 52.4735 313.1 51.7285 312.182 51.7285Z" fill="black" fill-opacity="0.2"/>
<path d="M231.854 128.83H168.146C163.251 128.83 159.282 132.803 159.282 137.705V201.493C159.282 206.395 163.251 210.368 168.146 210.368H231.854C236.75 210.368 240.718 206.395 240.718 201.493V137.705C240.718 132.803 236.75 128.83 231.854 128.83Z" fill="#F9F9FB"/>
<path d="M192.59 144.869C191.429 144.869 190.292 144.984 189.191 145.204C188.453 145.351 187.878 145.931 187.735 146.67L186.846 151.266C186.775 151.635 186.393 151.856 186.038 151.733L181.615 150.205C180.906 149.96 180.119 150.167 179.622 150.731C178.12 152.435 176.947 154.439 176.205 156.644C175.964 157.357 176.178 158.144 176.745 158.637L180.284 161.712C180.567 161.959 180.567 162.4 180.284 162.646L176.745 165.722C176.178 166.215 175.964 167.002 176.204 167.715C176.947 169.919 178.12 171.924 179.622 173.628C180.118 174.192 180.905 174.399 181.615 174.154L186.038 172.626C186.393 172.503 186.775 172.723 186.846 173.092L187.735 177.689C187.878 178.429 188.454 179.009 189.191 179.156C190.292 179.376 191.429 179.491 192.59 179.491C193.76 179.491 194.905 179.374 196.013 179.151C196.75 179.003 197.324 178.424 197.467 177.686L198.355 173.092C198.427 172.723 198.808 172.503 199.163 172.626L203.571 174.149C204.281 174.394 205.068 174.186 205.565 173.622C207.068 171.915 208.24 169.908 208.982 167.7C209.222 166.987 209.008 166.201 208.44 165.708L204.917 162.646C204.633 162.4 204.633 161.959 204.917 161.712L208.44 158.651C209.007 158.158 209.221 157.371 208.982 156.659C208.24 154.451 207.067 152.444 205.564 150.737C205.068 150.173 204.28 149.965 203.57 150.21L199.163 151.733C198.808 151.856 198.427 151.635 198.355 151.267L197.467 146.674C197.324 145.936 196.75 145.357 196.013 145.209C194.905 144.986 193.76 144.869 192.59 144.869ZM188.27 162.18C188.27 159.79 190.205 157.852 192.593 157.852C194.98 157.852 196.915 159.79 196.915 162.18C196.915 164.57 194.98 166.508 192.593 166.508C190.205 166.508 188.27 164.57 188.27 162.18ZM203.487 176.483C203.789 176.084 204.32 175.949 204.792 176.113L207.904 177.188C208.549 177.41 209.242 177.01 209.372 176.339L209.998 173.103C210.093 172.61 210.475 172.218 210.973 172.157C211.424 172.1 211.883 172.072 212.349 172.072C212.815 172.072 213.275 172.1 213.725 172.157C214.223 172.218 214.605 172.61 214.701 173.103L215.327 176.339C215.456 177.01 216.149 177.41 216.795 177.188L219.905 176.113C220.379 175.949 220.908 176.084 221.211 176.483C221.764 177.214 222.23 178.015 222.591 178.871C222.786 179.333 222.637 179.861 222.26 180.189L219.772 182.351C219.257 182.799 219.257 183.6 219.772 184.048L222.26 186.211C222.638 186.539 222.787 187.066 222.591 187.528C222.23 188.384 221.765 189.185 221.212 189.916C220.91 190.316 220.379 190.451 219.906 190.287L216.795 189.212C216.149 188.989 215.456 189.389 215.327 190.061L214.701 193.297C214.605 193.79 214.222 194.182 213.725 194.244C213.275 194.3 212.815 194.328 212.349 194.328C211.883 194.328 211.424 194.3 210.973 194.244C210.476 194.182 210.093 193.79 209.998 193.297L209.372 190.061C209.242 189.389 208.549 188.989 207.904 189.212L204.792 190.287C204.319 190.451 203.789 190.316 203.487 189.916C202.933 189.185 202.468 188.384 202.107 187.528C201.912 187.066 202.061 186.539 202.439 186.211L204.927 184.048C205.442 183.6 205.442 182.799 204.927 182.351L202.439 180.189C202.061 179.861 201.912 179.333 202.107 178.871C202.468 178.015 202.934 177.214 203.487 176.483ZM215.437 183.2C215.437 181.492 214.055 180.108 212.349 180.108C210.643 180.108 209.26 181.492 209.26 183.2C209.26 184.908 210.643 186.293 212.349 186.293C214.055 186.293 215.437 184.908 215.437 183.2Z" fill="#F89B61"/>
<path d="M103.329 101.65C103.329 101.344 103.081 101.095 102.775 101.095C102.47 101.095 102.221 101.344 102.221 101.65H103.329ZM199.608 127.003C199.824 127.22 200.176 127.22 200.392 127.003L203.917 123.473C204.134 123.257 204.134 122.905 203.917 122.689C203.701 122.472 203.35 122.472 203.134 122.689L200 125.827L196.866 122.689C196.65 122.472 196.299 122.472 196.083 122.689C195.866 122.905 195.866 123.257 196.083 123.473L199.608 127.003ZM115.24 114.685H187.535V113.576H115.24V114.685ZM187.535 114.685C194.113 114.685 199.446 120.025 199.446 126.611H200.554C200.554 119.412 194.726 113.576 187.535 113.576V114.685ZM102.221 101.65C102.221 108.849 108.05 114.685 115.24 114.685V113.576C108.662 113.576 103.329 108.236 103.329 101.65H102.221Z" fill="#F9F9FB"/>
<path d="M200.554 212.587C200.554 212.281 200.306 212.032 200 212.032C199.694 212.032 199.446 212.281 199.446 212.587H200.554ZM120.665 232.948C120.881 233.165 121.233 233.165 121.449 232.948L124.974 229.418C125.191 229.201 125.191 228.85 124.974 228.633C124.758 228.416 124.407 228.416 124.191 228.633L121.057 231.771L117.923 228.633C117.707 228.416 117.356 228.416 117.14 228.633C116.923 228.85 116.923 229.201 117.14 229.418L120.665 232.948ZM190.028 222.017H131.029V223.126H190.028V222.017ZM131.029 222.017C125.216 222.017 120.503 226.735 120.503 232.556H121.611C121.611 227.348 125.827 223.126 131.029 223.126V222.017ZM199.446 212.587C199.446 217.795 195.23 222.017 190.028 222.017V223.126C195.841 223.126 200.554 218.407 200.554 212.587H199.446Z" fill="#F9F9FB"/>
<path d="M200.554 212.587C200.554 212.281 200.306 212.032 200 212.032C199.694 212.032 199.446 212.281 199.446 212.587H200.554ZM277.997 232.948C278.214 233.165 278.565 233.165 278.781 232.948L282.306 229.418C282.523 229.201 282.523 228.85 282.306 228.633C282.09 228.416 281.739 228.416 281.523 228.633L278.389 231.771L275.255 228.633C275.039 228.416 274.688 228.416 274.472 228.633C274.255 228.85 274.255 229.201 274.472 229.418L277.997 232.948ZM209.972 223.126H268.417V222.017H209.972V223.126ZM268.417 223.126C273.619 223.126 277.835 227.348 277.835 232.556H278.943C278.943 226.735 274.23 222.017 268.417 222.017V223.126ZM199.446 212.587C199.446 218.407 204.159 223.126 209.972 223.126V222.017C204.77 222.017 200.554 217.795 200.554 212.587H199.446Z" fill="#F9F9FB"/>
<path d="M272.849 72.8065C272.849 72.5004 272.601 72.2519 272.295 72.2519C271.989 72.2519 271.741 72.5004 271.741 72.8065H272.849ZM199.608 127.003C199.824 127.22 200.175 127.22 200.392 127.003L203.917 123.473C204.134 123.257 204.134 122.905 203.917 122.689C203.701 122.472 203.35 122.472 203.134 122.689L200 125.827L196.866 122.689C196.65 122.472 196.299 122.472 196.083 122.689C195.866 122.905 195.866 123.257 196.083 123.473L199.608 127.003ZM271.741 72.8065V86.3963H272.849V72.8065H271.741ZM258.999 99.154H213.296V100.263H258.999V99.154ZM199.446 113.021V126.611H200.554V113.021H199.446ZM213.296 99.154C205.647 99.154 199.446 105.363 199.446 113.021H200.554C200.554 105.975 206.258 100.263 213.296 100.263V99.154ZM271.741 86.3963C271.741 93.4425 266.037 99.154 258.999 99.154V100.263C266.648 100.263 272.849 94.0548 272.849 86.3963H271.741Z" fill="#F9F9FB"/>
</svg>
