<svg width="419" height="400" viewBox="0 0 419 400" fill="none" xmlns="http://www.w3.org/2000/svg">
<path d="M120.793 314.751C139.324 314.751 154.346 329.792 154.346 348.346C154.346 366.901 139.324 381.942 120.793 381.942C102.262 381.942 87.2394 366.901 87.2394 348.346C87.2394 329.792 102.262 314.751 120.793 314.751ZM132.638 336.486L132.356 336.242C131.48 335.592 130.278 335.584 129.395 336.218L129.08 336.486L120.793 344.782L112.507 336.486L112.224 336.242C111.348 335.592 110.146 335.584 109.263 336.218L108.948 336.486L108.703 336.768C108.054 337.645 108.046 338.849 108.68 339.734L108.948 340.05L117.233 348.346L108.948 356.644L108.703 356.926C108.054 357.803 108.046 359.007 108.68 359.892L108.948 360.207L109.229 360.451C110.105 361.102 111.307 361.109 112.191 360.475L112.507 360.207L120.793 351.911L129.08 360.207L129.362 360.451C130.237 361.102 131.44 361.109 132.323 360.475L132.638 360.207L132.882 359.924C133.532 359.048 133.54 357.844 132.906 356.959L132.638 356.644L124.353 348.346L132.638 340.05L132.882 339.767C133.532 338.89 133.54 337.686 132.906 336.802L132.638 336.486Z" fill="#E28888"/>
<path d="M299.465 314.541C317.418 314.541 331.971 329.112 331.971 347.087C331.971 365.061 317.418 379.633 299.465 379.633C281.513 379.633 266.96 365.061 266.96 347.087C266.96 329.112 281.513 314.541 299.465 314.541ZM309.931 337.224L295.403 351.771L289 345.361C288.048 344.408 286.504 344.408 285.552 345.361C284.6 346.314 284.6 347.859 285.552 348.813L293.679 356.949C294.631 357.902 296.174 357.902 297.126 356.949L313.379 340.676C314.331 339.723 314.331 338.177 313.379 337.224C312.427 336.271 310.884 336.271 309.931 337.224Z" fill="#9DEA9C"/>
<path d="M134.005 41.5748H66.0586C60.4992 41.5748 55.9925 46.0872 55.9925 51.6535V144.252C55.9925 149.818 60.4992 154.331 66.0586 154.331H134.005C139.564 154.331 144.071 149.818 144.071 144.252V51.6535C144.071 46.0872 139.564 41.5748 134.005 41.5748Z" fill="#F9F9FB"/>
<path d="M84.3033 49.4473C88.6474 49.4473 92.1687 52.9732 92.1687 57.3225C92.1687 61.6719 88.6474 65.1975 84.3033 65.1975C79.9598 65.1975 76.4379 61.6719 76.4379 57.3225C76.4379 52.9732 79.9598 49.4473 84.3033 49.4473ZM84.3002 55.9437C83.8969 55.9441 83.5647 56.2482 83.52 56.6399L83.5144 56.7317L83.5175 61.0637L83.5226 61.1555C83.5685 61.5471 83.9013 61.8508 84.3046 61.8505C84.7078 61.8503 85.04 61.5461 85.0847 61.1544L85.0903 61.0627L85.0872 56.7307L85.0822 56.6389C85.0362 56.2473 84.7034 55.9435 84.3002 55.9437ZM84.3039 52.9914C83.7604 52.9914 83.3193 53.4326 83.3193 53.9768C83.3193 54.5211 83.7604 54.9623 84.3039 54.9623C84.8475 54.9623 85.2879 54.5211 85.2879 53.9768C85.2879 53.4326 84.8475 52.9914 84.3039 52.9914Z" fill="#4C75A4"/>
<path d="M114.187 50.4331C113.427 50.4331 112.81 51.05 112.81 51.811V54.3701H110.255C109.495 54.3701 108.878 54.987 108.878 55.748V58.8976C108.878 59.6586 109.495 60.2756 110.255 60.2756H112.81V62.8347C112.81 63.5956 113.427 64.2129 114.187 64.2129H117.333C118.093 64.2129 118.709 63.5956 118.709 62.8347V60.2756H121.265C122.025 60.2756 122.641 59.6586 122.641 58.8976V55.748C122.641 54.987 122.025 54.3701 121.265 54.3701H118.709V51.811C118.709 51.05 118.093 50.4331 117.333 50.4331H114.187Z" fill="#4C75A4"/>
<path d="M123.309 78.7402H70.4625C69.4201 78.7402 68.5751 79.5862 68.5751 80.6299V84.4095C68.5751 85.4532 69.4201 86.2992 70.4625 86.2992H123.309C124.352 86.2992 125.197 85.4532 125.197 84.4095V80.6299C125.197 79.5862 124.352 78.7402 123.309 78.7402Z" fill="black" fill-opacity="0.2"/>
<path d="M129.601 92.5984H70.4625C69.4201 92.5984 68.5751 93.4445 68.5751 94.4882V98.2677C68.5751 99.3114 69.4201 100.158 70.4625 100.158H129.601C130.643 100.158 131.488 99.3114 131.488 98.2677V94.4882C131.488 93.4445 130.643 92.5984 129.601 92.5984Z" fill="black" fill-opacity="0.2"/>
<path d="M129.601 106.457H70.4625C69.4201 106.457 68.5751 107.303 68.5751 108.346V112.126C68.5751 113.17 69.4201 114.016 70.4625 114.016H129.601C130.643 114.016 131.488 113.17 131.488 112.126V108.346C131.488 107.303 130.643 106.457 129.601 106.457Z" fill="black" fill-opacity="0.2"/>
<path d="M123.309 120.315H70.4625C69.4201 120.315 68.5751 121.161 68.5751 122.205V125.984C68.5751 127.028 69.4201 127.874 70.4625 127.874H123.309C124.352 127.874 125.197 127.028 125.197 125.984V122.205C125.197 121.161 124.352 120.315 123.309 120.315Z" fill="black" fill-opacity="0.2"/>
<path d="M117.018 134.173H70.4625C69.4201 134.173 68.5751 135.019 68.5751 136.063V139.843C68.5751 140.886 69.4201 141.732 70.4625 141.732H117.018C118.06 141.732 118.905 140.886 118.905 139.843V136.063C118.905 135.019 118.06 134.173 117.018 134.173Z" fill="black" fill-opacity="0.2"/>
<path d="M354.829 58.5827H230.261C224.702 58.5827 220.195 63.0951 220.195 68.6614V111.496C220.195 117.062 224.702 121.575 230.261 121.575H354.829C360.388 121.575 364.895 117.062 364.895 111.496V68.6614C364.895 63.0951 360.388 58.5827 354.829 58.5827Z" fill="#F9F9FB"/>
<path d="M270.011 94.2784C272.615 94.2784 274.727 96.3924 274.727 99.0009V100.929C274.727 102.133 274.351 103.307 273.652 104.287C270.41 108.828 265.116 111.079 257.944 111.079C250.77 111.079 245.479 108.828 242.245 104.283C241.548 103.305 241.174 102.134 241.174 100.932V99.0009C241.174 96.3924 243.286 94.2784 245.891 94.2784H270.011ZM257.944 69.0916C263.735 69.0916 268.429 73.7921 268.429 79.5905C268.429 85.3883 263.735 90.0888 257.944 90.0888C252.153 90.0888 247.458 85.3883 247.458 79.5905C247.458 73.7921 252.153 69.0916 257.944 69.0916Z" fill="#4C75A4"/>
<path d="M344.134 72.4409H291.287C290.244 72.4409 289.399 73.287 289.399 74.3307V78.1102C289.399 79.1539 290.244 80 291.287 80H344.134C345.176 80 346.021 79.1539 346.021 78.1102V74.3307C346.021 73.287 345.176 72.4409 344.134 72.4409Z" fill="black" fill-opacity="0.2"/>
<path d="M337.842 86.2992H291.287C290.244 86.2992 289.399 87.1453 289.399 88.189V91.9685C289.399 93.0122 290.244 93.8582 291.287 93.8582H337.842C338.885 93.8582 339.73 93.0122 339.73 91.9685V88.189C339.73 87.1453 338.885 86.2992 337.842 86.2992Z" fill="black" fill-opacity="0.2"/>
<path d="M337.842 100.157H291.287C290.244 100.157 289.399 101.004 289.399 102.047V105.827C289.399 106.87 290.244 107.717 291.287 107.717H337.842C338.885 107.717 339.73 106.87 339.73 105.827V102.047C339.73 101.004 338.885 100.157 337.842 100.157Z" fill="black" fill-opacity="0.2"/>
<path d="M246.619 187.717H174.269C168.709 187.717 164.203 192.229 164.203 197.795V270.236C164.203 275.803 168.709 280.315 174.269 280.315H246.619C252.178 280.315 256.685 275.803 256.685 270.236V197.795C256.685 192.229 252.178 187.717 246.619 187.717Z" fill="#F9F9FB"/>
<path d="M202.029 205.932C200.71 205.932 199.419 206.062 198.169 206.312C197.331 206.479 196.677 207.138 196.515 207.977L195.506 213.196C195.424 213.616 194.992 213.866 194.588 213.727L189.565 211.991C188.76 211.713 187.866 211.948 187.302 212.588C185.596 214.524 184.264 216.8 183.421 219.303C183.148 220.113 183.39 221.007 184.035 221.567L188.053 225.06C188.375 225.34 188.375 225.84 188.053 226.12L184.035 229.613C183.39 230.173 183.148 231.066 183.42 231.877C184.264 234.38 185.596 236.656 187.301 238.591C187.865 239.231 188.759 239.467 189.565 239.189L194.588 237.453C194.992 237.313 195.424 237.564 195.506 237.983L196.515 243.204C196.678 244.043 197.331 244.702 198.169 244.869C199.419 245.119 200.71 245.249 202.029 245.249C203.358 245.249 204.658 245.117 205.916 244.864C206.753 244.695 207.404 244.038 207.567 243.199L208.576 237.983C208.657 237.564 209.09 237.313 209.493 237.453L214.499 239.183C215.306 239.461 216.2 239.225 216.764 238.585C218.47 236.646 219.802 234.367 220.644 231.86C220.916 231.05 220.673 230.157 220.029 229.597L216.028 226.12C215.706 225.84 215.706 225.34 216.028 225.06L220.028 221.582C220.673 221.023 220.916 220.13 220.644 219.32C219.801 216.813 218.469 214.534 216.763 212.595C216.199 211.955 215.304 211.718 214.498 211.997L209.493 213.727C209.09 213.866 208.657 213.616 208.576 213.197L207.567 207.982C207.405 207.143 206.753 206.486 205.916 206.317C204.658 206.064 203.358 205.932 202.029 205.932ZM197.123 225.591C197.123 222.876 199.321 220.676 202.032 220.676C204.743 220.676 206.941 222.876 206.941 225.591C206.941 228.305 204.743 230.505 202.032 230.505C199.321 230.505 197.123 228.305 197.123 225.591ZM214.404 241.834C214.747 241.38 215.35 241.227 215.886 241.413L219.419 242.634C220.152 242.887 220.939 242.432 221.087 241.67L221.798 237.995C221.906 237.436 222.34 236.99 222.905 236.92C223.417 236.857 223.938 236.824 224.468 236.824C224.997 236.824 225.519 236.857 226.031 236.92C226.596 236.99 227.03 237.436 227.138 237.995L227.849 241.67C227.996 242.432 228.783 242.887 229.517 242.634L233.049 241.413C233.587 241.227 234.188 241.38 234.532 241.834C235.16 242.664 235.689 243.574 236.099 244.545C236.32 245.07 236.152 245.669 235.723 246.042L232.898 248.497C232.312 249.007 232.312 249.916 232.898 250.425L235.723 252.881C236.152 253.254 236.321 253.853 236.1 254.377C235.689 255.349 235.161 256.259 234.533 257.089C234.19 257.543 233.587 257.696 233.05 257.51L229.517 256.289C228.783 256.036 227.996 256.491 227.849 257.253L227.138 260.928C227.03 261.488 226.595 261.934 226.03 262.004C225.519 262.067 224.997 262.1 224.468 262.1C223.938 262.1 223.418 262.067 222.905 262.004C222.34 261.934 221.906 261.488 221.798 260.928L221.087 257.253C220.939 256.491 220.152 256.036 219.419 256.289L215.886 257.51C215.348 257.696 214.747 257.543 214.403 257.089C213.775 256.259 213.246 255.349 212.836 254.377C212.615 253.853 212.784 253.254 213.213 252.881L216.038 250.425C216.624 249.916 216.624 249.007 216.038 248.497L213.214 246.042C212.784 245.669 212.615 245.07 212.837 244.545C213.247 243.574 213.776 242.664 214.404 241.834ZM227.975 249.462C227.975 247.522 226.405 245.95 224.468 245.95C222.53 245.95 220.96 247.522 220.96 249.462C220.96 251.402 222.53 252.974 224.468 252.974C226.405 252.974 227.975 251.402 227.975 249.462Z" fill="#F89B61"/>
<path d="M100.661 156.85C100.661 156.503 100.379 156.22 100.032 156.22C99.6843 156.22 99.4024 156.503 99.4024 156.85H100.661ZM209.999 185.642C210.244 185.888 210.643 185.888 210.888 185.642L214.892 181.633C215.138 181.388 215.138 180.988 214.892 180.743C214.647 180.496 214.248 180.496 214.003 180.743L210.444 184.306L206.885 180.743C206.639 180.496 206.24 180.496 205.995 180.743C205.749 180.988 205.749 181.388 205.995 181.633L209.999 185.642ZM114.187 171.654H196.288V170.394H114.187V171.654ZM196.288 171.654C203.759 171.654 209.815 177.717 209.815 185.197H211.073C211.073 177.021 204.454 170.394 196.288 170.394V171.654ZM99.4024 156.85C99.4024 165.026 106.021 171.654 114.187 171.654V170.394C106.717 170.394 100.661 164.33 100.661 156.85H99.4024Z" fill="#F9F9FB"/>
<path d="M211.073 282.835C211.073 282.487 210.791 282.205 210.444 282.205C210.096 282.205 209.815 282.487 209.815 282.835H211.073ZM120.348 305.957C120.593 306.203 120.992 306.203 121.238 305.957L125.241 301.948C125.487 301.703 125.487 301.303 125.241 301.058C124.996 300.811 124.597 300.811 124.352 301.058L120.793 304.621L117.234 301.058C116.988 300.811 116.59 300.811 116.344 301.058C116.098 301.303 116.098 301.703 116.344 301.948L120.348 305.957ZM199.119 293.543H132.117V294.803H199.119V293.543ZM132.117 293.543C125.516 293.543 120.164 298.902 120.164 305.512H121.422C121.422 299.597 126.21 294.803 132.117 294.803V293.543ZM209.815 282.835C209.815 288.749 205.026 293.543 199.119 293.543V294.803C205.721 294.803 211.073 289.444 211.073 282.835H209.815Z" fill="#F9F9FB"/>
<path d="M211.073 282.835C211.073 282.487 210.791 282.205 210.444 282.205C210.096 282.205 209.815 282.487 209.815 282.835H211.073ZM299.021 305.957C299.266 306.203 299.665 306.203 299.91 305.957L303.914 301.948C304.16 301.703 304.16 301.303 303.914 301.058C303.669 300.811 303.27 300.811 303.024 301.058L299.465 304.621L295.906 301.058C295.661 300.811 295.262 300.811 295.017 301.058C294.771 301.303 294.771 301.703 295.017 301.948L299.021 305.957ZM221.768 294.803H288.141V293.543H221.768V294.803ZM288.141 294.803C294.048 294.803 298.836 299.597 298.836 305.512H300.095C300.095 298.902 294.743 293.543 288.141 293.543V294.803ZM209.815 282.835C209.815 289.444 215.167 294.803 221.768 294.803V293.543C215.861 293.543 211.073 288.749 211.073 282.835H209.815Z" fill="#F9F9FB"/>
<path d="M293.174 124.094C293.174 123.747 292.892 123.465 292.545 123.465C292.198 123.465 291.916 123.747 291.916 124.094H293.174ZM209.999 185.642C210.244 185.889 210.643 185.889 210.888 185.642L214.892 181.633C215.138 181.388 215.138 180.988 214.892 180.743C214.647 180.496 214.248 180.496 214.003 180.743L210.444 184.306L206.885 180.743C206.639 180.496 206.24 180.496 205.995 180.743C205.749 180.988 205.749 181.388 205.995 181.633L209.999 185.642ZM291.916 124.094V139.528H293.174V124.094H291.916ZM277.446 154.016H225.543V155.276H277.446V154.016ZM209.815 169.764V185.197H211.073V169.764H209.815ZM225.543 154.016C216.856 154.016 209.815 161.066 209.815 169.764H211.073C211.073 161.762 217.551 155.276 225.543 155.276V154.016ZM291.916 139.528C291.916 147.529 285.438 154.016 277.446 154.016V155.276C286.132 155.276 293.174 148.225 293.174 139.528H291.916Z" fill="#F9F9FB"/>
</svg>
