<svg width="309" height="341" viewBox="0 0 309 341" fill="none" xmlns="http://www.w3.org/2000/svg">
<path d="M64.7928 273.751C83.3238 273.751 98.3462 288.792 98.3462 307.346C98.3462 325.901 83.3238 340.942 64.7928 340.942C46.2618 340.942 31.2395 325.901 31.2395 307.346C31.2395 288.792 46.2618 273.751 64.7928 273.751ZM76.6381 295.486L76.3562 295.242C75.4805 294.592 74.2782 294.584 73.3949 295.218L73.0797 295.486L64.7928 303.782L56.5066 295.486L56.2241 295.242C55.3484 294.592 54.1461 294.584 53.2628 295.218L52.9476 295.486L52.7035 295.768C52.0542 296.645 52.0461 297.849 52.6796 298.734L52.9476 299.05L61.2326 307.346L52.9476 315.644L52.7035 315.926C52.0542 316.803 52.0461 318.007 52.6796 318.892L52.9476 319.207L53.2294 319.451C54.1052 320.102 55.3075 320.109 56.1908 319.475L56.5066 319.207L64.7928 310.911L73.0797 319.207L73.3616 319.451C74.2373 320.102 75.4396 320.109 76.3235 319.475L76.6381 319.207L76.8822 318.924C77.5321 318.048 77.5396 316.844 76.9061 315.959L76.6381 315.644L68.3531 307.346L76.6381 299.05L76.8822 298.767C77.5321 297.89 77.5396 296.686 76.9061 295.802L76.6381 295.486Z" fill="#E28888"/>
<path d="M243.465 273.54C261.418 273.54 275.971 288.112 275.971 306.087C275.971 324.061 261.418 338.633 243.465 338.633C225.513 338.633 210.96 324.061 210.96 306.087C210.96 288.112 225.513 273.54 243.465 273.54ZM253.931 296.224L239.402 310.771L233 304.361C232.048 303.408 230.504 303.408 229.552 304.361C228.6 305.314 228.6 306.859 229.552 307.813L237.679 315.949C238.631 316.902 240.174 316.902 241.126 315.949L257.379 299.676C258.33 298.723 258.33 297.177 257.379 296.224C256.427 295.271 254.883 295.271 253.931 296.224Z" fill="#9DEA9C"/>
<path d="M78.0044 0.574799H10.0585C4.49916 0.574799 -0.00756836 5.0872 -0.00756836 10.6535V103.252C-0.00756836 108.818 4.49916 113.331 10.0585 113.331H78.0044C83.5638 113.331 88.0705 108.818 88.0705 103.252V10.6535C88.0705 5.0872 83.5638 0.574799 78.0044 0.574799Z" fill="#F9F9FB"/>
<path d="M28.3034 8.4473C32.6475 8.4473 36.1687 11.9732 36.1687 16.3225C36.1687 20.6719 32.6475 24.1975 28.3034 24.1975C23.9599 24.1975 20.438 20.6719 20.438 16.3225C20.438 11.9732 23.9599 8.4473 28.3034 8.4473ZM28.3002 14.9437C27.8969 14.9441 27.5648 15.2482 27.5201 15.6399L27.5144 15.7317L27.5176 20.0637L27.5226 20.1555C27.5685 20.5471 27.9013 20.8508 28.3046 20.8505C28.7079 20.8503 29.0401 20.5461 29.0847 20.1544L29.0904 20.0627L29.0873 15.7307L29.0822 15.6389C29.0363 15.2473 28.7035 14.9435 28.3002 14.9437ZM28.304 11.9914C27.7604 11.9914 27.3194 12.4326 27.3194 12.9768C27.3194 13.5211 27.7604 13.9623 28.304 13.9623C28.8476 13.9623 29.2879 13.5211 29.2879 12.9768C29.2879 12.4326 28.8476 11.9914 28.304 11.9914Z" fill="#4C75A4"/>
<path d="M58.1869 9.43307C57.4269 9.43307 56.8104 10.05 56.8104 10.811V13.3701H54.2548C53.4948 13.3701 52.8783 13.987 52.8783 14.748V17.8976C52.8783 18.6586 53.4948 19.2756 54.2548 19.2756H56.8104V21.8346C56.8104 22.5956 57.4269 23.2129 58.1869 23.2129H61.3325C62.0925 23.2129 62.7091 22.5956 62.7091 21.8346V19.2756H65.2646C66.0246 19.2756 66.6411 18.6586 66.6411 17.8976V14.748C66.6411 13.987 66.0246 13.3701 65.2646 13.3701H62.7091V10.811C62.7091 10.05 62.0925 9.43307 61.3325 9.43307H58.1869Z" fill="#4C75A4"/>
<path d="M67.3093 37.7402H14.4625C13.4201 37.7402 12.5751 38.5862 12.5751 39.6299V43.4094C12.5751 44.4531 13.4201 45.2992 14.4625 45.2992H67.3093C68.3517 45.2992 69.1967 44.4531 69.1967 43.4094V39.6299C69.1967 38.5862 68.3517 37.7402 67.3093 37.7402Z" fill="black" fill-opacity="0.2"/>
<path d="M73.6006 51.5984H14.4625C13.4201 51.5984 12.5751 52.4445 12.5751 53.4882V57.2677C12.5751 58.3114 13.4201 59.1575 14.4625 59.1575H73.6006C74.643 59.1575 75.488 58.3114 75.488 57.2677V53.4882C75.488 52.4445 74.643 51.5984 73.6006 51.5984Z" fill="black" fill-opacity="0.2"/>
<path d="M73.6006 65.4567H14.4625C13.4201 65.4567 12.5751 66.3028 12.5751 67.3465V71.126C12.5751 72.1697 13.4201 73.0158 14.4625 73.0158H73.6006C74.643 73.0158 75.488 72.1697 75.488 71.126V67.3465C75.488 66.3028 74.643 65.4567 73.6006 65.4567Z" fill="black" fill-opacity="0.2"/>
<path d="M67.3093 79.315H14.4625C13.4201 79.315 12.5751 80.161 12.5751 81.2047V84.9842C12.5751 86.0279 13.4201 86.874 14.4625 86.874H67.3093C68.3517 86.874 69.1967 86.0279 69.1967 84.9842V81.2047C69.1967 80.161 68.3517 79.315 67.3093 79.315Z" fill="black" fill-opacity="0.2"/>
<path d="M61.018 93.1732H14.4625C13.4201 93.1732 12.5751 94.0193 12.5751 95.063V98.8425C12.5751 99.8862 13.4201 100.732 14.4625 100.732H61.018C62.0604 100.732 62.9054 99.8862 62.9054 98.8425V95.063C62.9054 94.0193 62.0604 93.1732 61.018 93.1732Z" fill="black" fill-opacity="0.2"/>
<path d="M298.829 17.5827H174.261C168.702 17.5827 164.195 22.0951 164.195 27.6614V70.4961C164.195 76.0624 168.702 80.5748 174.261 80.5748H298.829C304.388 80.5748 308.895 76.0624 308.895 70.4961V27.6614C308.895 22.0951 304.388 17.5827 298.829 17.5827Z" fill="#F9F9FB"/>
<path d="M214.011 53.2784C216.616 53.2784 218.727 55.3924 218.727 58.0009V59.9291C218.727 61.1329 218.351 62.3071 217.652 63.2866C214.41 67.8283 209.116 70.079 201.944 70.079C194.77 70.079 189.479 67.8277 186.245 63.2828C185.549 62.3046 185.174 61.1335 185.174 59.9323V58.0009C185.174 55.3924 187.286 53.2784 189.891 53.2784H214.011ZM201.944 28.0916C207.735 28.0916 212.429 32.7921 212.429 38.5905C212.429 44.3883 207.735 49.0888 201.944 49.0888C196.153 49.0888 191.459 44.3883 191.459 38.5905C191.459 32.7921 196.153 28.0916 201.944 28.0916Z" fill="#4C75A4"/>
<path d="M288.134 31.4409H235.287C234.244 31.4409 233.399 32.287 233.399 33.3307V37.1102C233.399 38.1539 234.244 39 235.287 39H288.134C289.176 39 290.021 38.1539 290.021 37.1102V33.3307C290.021 32.287 289.176 31.4409 288.134 31.4409Z" fill="black" fill-opacity="0.2"/>
<path d="M281.842 45.2992H235.287C234.244 45.2992 233.399 46.1453 233.399 47.189V50.9685C233.399 52.0122 234.244 52.8583 235.287 52.8583H281.842C282.885 52.8583 283.73 52.0122 283.73 50.9685V47.189C283.73 46.1453 282.885 45.2992 281.842 45.2992Z" fill="black" fill-opacity="0.2"/>
<path d="M281.842 59.1575H235.287C234.244 59.1575 233.399 60.0035 233.399 61.0472V64.8268C233.399 65.8704 234.244 66.7165 235.287 66.7165H281.842C282.885 66.7165 283.73 65.8704 283.73 64.8268V61.0472C283.73 60.0035 282.885 59.1575 281.842 59.1575Z" fill="black" fill-opacity="0.2"/>
<path d="M190.619 146.717H118.269C112.709 146.717 108.203 151.229 108.203 156.795V229.236C108.203 234.803 112.709 239.315 118.269 239.315H190.619C196.178 239.315 200.685 234.803 200.685 229.236V156.795C200.685 151.229 196.178 146.717 190.619 146.717Z" fill="#F9F9FB"/>
<path d="M146.029 164.932C144.71 164.932 143.419 165.062 142.169 165.312C141.331 165.479 140.677 166.138 140.515 166.977L139.506 172.196C139.424 172.616 138.992 172.866 138.588 172.727L133.565 170.991C132.76 170.713 131.866 170.948 131.302 171.588C129.596 173.524 128.264 175.8 127.421 178.303C127.148 179.113 127.39 180.007 128.035 180.567L132.053 184.06C132.375 184.34 132.375 184.84 132.053 185.12L128.035 188.613C127.39 189.173 127.148 190.066 127.42 190.877C128.264 193.38 129.596 195.656 131.301 197.591C131.865 198.231 132.759 198.467 133.565 198.189L138.588 196.453C138.992 196.313 139.424 196.564 139.506 196.983L140.515 202.204C140.678 203.043 141.331 203.702 142.169 203.869C143.419 204.119 144.71 204.249 146.029 204.249C147.358 204.249 148.658 204.117 149.916 203.864C150.753 203.695 151.404 203.038 151.567 202.199L152.576 196.983C152.657 196.564 153.09 196.313 153.493 196.453L158.499 198.183C159.306 198.461 160.2 198.225 160.764 197.585C162.47 195.646 163.802 193.367 164.644 190.86C164.916 190.05 164.673 189.157 164.029 188.597L160.028 185.12C159.706 184.84 159.706 184.34 160.028 184.06L164.028 180.582C164.673 180.023 164.916 179.13 164.644 178.32C163.801 175.813 162.469 173.534 160.763 171.595C160.199 170.955 159.304 170.718 158.498 170.997L153.493 172.727C153.09 172.866 152.657 172.616 152.576 172.197L151.567 166.982C151.405 166.143 150.753 165.486 149.916 165.317C148.658 165.064 147.358 164.932 146.029 164.932ZM141.123 184.591C141.123 181.876 143.321 179.676 146.032 179.676C148.743 179.676 150.941 181.876 150.941 184.591C150.941 187.305 148.743 189.505 146.032 189.505C143.321 189.505 141.123 187.305 141.123 184.591ZM158.404 200.834C158.747 200.38 159.35 200.227 159.886 200.413L163.419 201.634C164.152 201.887 164.939 201.432 165.087 200.67L165.798 196.995C165.906 196.436 166.34 195.99 166.905 195.92C167.417 195.857 167.938 195.824 168.468 195.824C168.997 195.824 169.519 195.857 170.031 195.92C170.596 195.99 171.03 196.436 171.138 196.995L171.849 200.67C171.996 201.432 172.783 201.887 173.517 201.634L177.049 200.413C177.587 200.227 178.188 200.38 178.532 200.834C179.16 201.664 179.689 202.574 180.099 203.545C180.32 204.07 180.152 204.669 179.723 205.042L176.898 207.497C176.312 208.007 176.312 208.916 176.898 209.425L179.723 211.881C180.152 212.254 180.321 212.853 180.1 213.377C179.689 214.349 179.161 215.259 178.533 216.089C178.19 216.543 177.587 216.696 177.05 216.51L173.517 215.289C172.783 215.036 171.996 215.491 171.849 216.253L171.138 219.928C171.03 220.488 170.595 220.934 170.03 221.004C169.519 221.067 168.997 221.1 168.468 221.1C167.938 221.1 167.418 221.067 166.905 221.004C166.34 220.934 165.906 220.488 165.798 219.928L165.087 216.253C164.939 215.491 164.152 215.036 163.419 215.289L159.886 216.51C159.348 216.696 158.747 216.543 158.403 216.089C157.775 215.259 157.246 214.349 156.836 213.377C156.615 212.853 156.784 212.254 157.213 211.881L160.038 209.425C160.624 208.916 160.624 208.007 160.038 207.497L157.214 205.042C156.784 204.669 156.615 204.07 156.837 203.545C157.247 202.574 157.776 201.664 158.404 200.834ZM171.975 208.462C171.975 206.522 170.405 204.95 168.468 204.95C166.53 204.95 164.96 206.522 164.96 208.462C164.96 210.402 166.53 211.974 168.468 211.974C170.405 211.974 171.975 210.402 171.975 208.462Z" fill="#F89B61"/>
<path d="M44.6606 115.85C44.6606 115.503 44.3788 115.22 44.0315 115.22C43.6842 115.22 43.4023 115.503 43.4023 115.85H44.6606ZM153.999 144.642C154.244 144.888 154.643 144.888 154.888 144.642L158.892 140.633C159.138 140.388 159.138 139.988 158.892 139.743C158.647 139.496 158.248 139.496 158.003 139.743L154.444 143.306L150.885 139.743C150.639 139.496 150.24 139.496 149.995 139.743C149.749 139.988 149.749 140.388 149.995 140.633L153.999 144.642ZM58.1869 130.654H140.288V129.394H58.1869V130.654ZM140.288 130.654C147.759 130.654 153.815 136.717 153.815 144.197H155.073C155.073 136.021 148.454 129.394 140.288 129.394V130.654ZM43.4023 115.85C43.4023 124.026 50.0214 130.654 58.1869 130.654V129.394C50.7166 129.394 44.6606 123.33 44.6606 115.85H43.4023Z" fill="#F9F9FB"/>
<path d="M155.073 241.835C155.073 241.487 154.791 241.205 154.444 241.205C154.096 241.205 153.815 241.487 153.815 241.835H155.073ZM64.3481 264.957C64.5934 265.203 64.9923 265.203 65.2376 264.957L69.2414 260.948C69.4874 260.703 69.4874 260.303 69.2414 260.058C68.9961 259.811 68.5972 259.811 68.3518 260.058L64.7929 263.621L61.2339 260.058C60.9885 259.811 60.5896 259.811 60.3443 260.058C60.0983 260.303 60.0983 260.703 60.3443 260.948L64.3481 264.957ZM143.119 252.543H76.1172V253.803H143.119V252.543ZM76.1172 252.543C69.5157 252.543 64.1637 257.902 64.1637 264.512H65.422C65.422 258.597 70.2103 253.803 76.1172 253.803V252.543ZM153.815 241.835C153.815 247.749 149.026 252.543 143.119 252.543V253.803C149.721 253.803 155.073 248.444 155.073 241.835H153.815Z" fill="#F9F9FB"/>
<path d="M155.073 241.835C155.073 241.487 154.791 241.205 154.444 241.205C154.096 241.205 153.815 241.487 153.815 241.835H155.073ZM243.021 264.957C243.266 265.203 243.665 265.203 243.91 264.957L247.914 260.948C248.16 260.703 248.16 260.303 247.914 260.058C247.669 259.811 247.27 259.811 247.024 260.058L243.465 263.621L239.906 260.058C239.661 259.811 239.262 259.811 239.017 260.058C238.771 260.303 238.771 260.703 239.017 260.948L243.021 264.957ZM165.768 253.803H232.141V252.543H165.768V253.803ZM232.141 253.803C238.048 253.803 242.836 258.597 242.836 264.512H244.095C244.095 257.902 238.743 252.543 232.141 252.543V253.803ZM153.815 241.835C153.815 248.444 159.167 253.803 165.768 253.803V252.543C159.861 252.543 155.073 247.749 155.073 241.835H153.815Z" fill="#F9F9FB"/>
<path d="M237.174 83.0945C237.174 82.7468 236.892 82.4646 236.545 82.4646C236.198 82.4646 235.916 82.7468 235.916 83.0945H237.174ZM153.999 144.642C154.244 144.889 154.643 144.889 154.889 144.642L158.892 140.633C159.138 140.388 159.138 139.988 158.892 139.743C158.647 139.496 158.248 139.496 158.003 139.743L154.444 143.306L150.885 139.743C150.639 139.496 150.241 139.496 149.995 139.743C149.749 139.988 149.749 140.388 149.995 140.633L153.999 144.642ZM235.916 83.0945V98.5276H237.174V83.0945H235.916ZM221.446 113.016H169.543V114.276H221.446V113.016ZM153.815 128.764V144.197H155.073V128.764H153.815ZM169.543 113.016C160.856 113.016 153.815 120.066 153.815 128.764H155.073C155.073 120.762 161.551 114.276 169.543 114.276V113.016ZM235.916 98.5276C235.916 106.529 229.438 113.016 221.446 113.016V114.276C230.132 114.276 237.174 107.225 237.174 98.5276H235.916Z" fill="#F9F9FB"/>
</svg>
