<svg width="469" height="30" viewBox="0 0 469 30" fill="none" xmlns="http://www.w3.org/2000/svg">
<path d="M3.87024 26.5391C2.66371 26.8548 0.762059 26.7922 3.13879 26.9552C10.2117 27.4403 18.1173 24.397 24.9404 22.9075C119.301 2.30915 216.422 0.348586 312.551 2.72247C313.28 2.74047 314.953 2.85662 313.144 2.72309C308.038 2.34599 303.005 2.33164 297.884 2.52147C276.114 3.32836 254.315 4.12978 232.628 6.36047C186.476 11.1076 140.995 21.3202 95.0734 27.781C83.2802 29.4402 118.552 23.7319 130.277 21.6246C170.956 14.3136 212.067 11.6514 253.269 9.7613C323.983 6.51733 396.805 6.38499 467.015 16.6644" stroke="#EBEBED" stroke-width="3" stroke-linecap="round" stroke-linejoin="round"/>
</svg>
